SplineFontDB: 3.0
FontName: InconsolataLGC-BoldItalic
FullName: Inconsolata LGC Bold Italic
FamilyName: Inconsolata LGC
Weight: Bold
Copyright: Original Roman version created by Raph Levien using his own tools and FontForge. Copyright 2006 Raph Levien. Hellenisation of the Roman font, by Dimosthenis Kaponis, using FontForge. Hellenic glyphs Copyright 2010-2012 Dimosthenis Kaponis. Released under the SIL Open Font License, http://scripts.sil.org/OFL.\n\nCyrillic glyphs added by MihailJP, using FontForge. Cyrillic glyphs Copyright 2012 MihailJP. Released under the SIL Open Font License, http://scripts.sil.org/OFL.\n\nEmboldened and italicized by MihailJP.\n\nSome glyphs modified by Greg Omelaenko, using FontForge.
UComments: "2005-8-26: Created." 
Version: 1.2
ItalicAngle: -10
UnderlinePosition: -102
UnderlineWidth: 51
Ascent: 840
Descent: 184
LayerCount: 2
Layer: 0 0 "Back"  1
Layer: 1 0 "Fore"  0
XUID: [1021 77 1780377399 11264577]
FSType: 8
OS2Version: 0
OS2_WeightWidthSlopeOnly: 0
OS2_UseTypoMetrics: 0
CreationTime: 1161020814
ModificationTime: 1459694881
PfmFamily: 17
TTFWeight: 700
TTFWidth: 5
LineGap: 205
VLineGap: 0
Panose: 2 11 8 9 3 0 3 0 0 0
OS2TypoAscent: 0
OS2TypoAOffset: 1
OS2TypoDescent: 0
OS2TypoDOffset: 1
OS2TypoLinegap: 0
OS2WinAscent: 0
OS2WinAOffset: 1
OS2WinDescent: 0
OS2WinDOffset: 1
HheadAscent: 0
HheadAOffset: 1
HheadDescent: 0
HheadDOffset: 1
OS2Vendor: 'PfEd'
Lookup: 1 0 0 "Polish kreska forms"  {"Polish kreska forms-1" ("pl" ) } ['loca' ('latn' <'PLK ' > ) ]
Lookup: 1 0 0 "Macedonian-Serbian Italic"  {"Macedonian-Serbian Italic subtable" ("mkd" ) } ['locl' ('cyrl' <'MKD ' 'SRB ' > ) ]
Lookup: 1 0 0 "Romanian comma accent"  {"Romanian comma accent-1"  } ['locl' ('latn' <'MOL ' 'ROM ' > ) ]
MarkAttachClasses: 1
DEI: 91125
LangName: 1033 
Encoding: UnicodeBmp
Compacted: 1
UnicodeInterp: none
NameList: Adobe Glyph List
DisplaySize: -72
AntiAlias: 1
FitToEm: 1
WinInfo: 32 16 4
BeginPrivate: 6
BlueValues 31 [-14 0 542 555 739 748 767 796]

StartChar: a
Encoding: 97 97 0
Width: 613
Flags: W
TeX: 99 0
LayerCount: 2
Fore
SplineSet
588 30 m 0
 580 0 l 1
 460 -6 l 1
 458 7 l 0
 458 8 449 51 454 125 c 1
 376 -5 279 -12 208 -12 c 0
 195 -12 181 -11 169 -9 c 0
 95 3 55 56 74 157 c 0
 120 404 350 543 463 543 c 0
 616 543 584 514 634 501 c 0
 657 495 l 1
 642 477 l 1
 639 473 627 449 622 423 c 0
 600 303 597 285 575 164 c 1
 562 95 579 48 588 30 c 0
467 449 m 0
 398 449 221 331 190 167 c 0
 189 160 188 155 188 149 c 0
 188 110 214 94 226 94 c 0
 318 94 413 170 463 263 c 0
 475 286 495 337 509 406 c 0
 515 439 l 1
 510 443 497 449 467 449 c 0
EndSplineSet
EndChar

StartChar: c
Encoding: 99 99 1
Width: 613
Flags: W
TeX: 101 0
LayerCount: 2
Fore
SplineSet
293 -9 m 0
 158 13 83 129 110 274 c 0
 140 435 280 553 447 553 c 0
 539 553 610 513 645 444 c 0
 651 434 l 1
 559 346 l 1
 549 355 l 0
 532 370 542 389 542 389 c 1
 538 399 508 450 429 450 c 0
 338 450 250 385 229 277 c 0
 226 262 225 248 225 235 c 0
 225 149 279 95 362 95 c 0
 413 95 499 120 538 157 c 0
 551 169 l 1
 608 86 l 1
 598 77 l 0
 532 18 420 -13 341 -13 c 0
 324 -13 309 -12 293 -9 c 0
EndSplineSet
EndChar

StartChar: m
Encoding: 109 109 2
Width: 613
Flags: W
TeX: 112 0
LayerCount: 2
Fore
SplineSet
146 0 m 1
 37 0 l 1
 107 377 l 0
 120 448 113 501 102 520 c 0
 92 539 l 1
 219 556 l 1
 223 543 l 0
 225 536 227 523 227 503 c 1
 258 532 295 555 342 555 c 0
 385 555 418 532 432 497 c 1
 466 533 513 555 560 555 c 0
 593 555 632 543 650 506 c 1
 668 472 662 431 655 395 c 0
 654 389 652 383 651 377 c 0
 612 164 l 0
 595 75 622 22 622 21 c 1
 632 1 l 1
 490 -6 l 1
 489 9 l 1
 489 12 484 81 499 168 c 0
 533 374 l 0
 535 384 537 393 539 403 c 0
 542 419 542 436 540 446 c 1
 536 460 528 464 517 464 c 0
 494 464 469 448 457 432 c 1
 442 415 435 398 430 371 c 0
 364 0 l 1
 253 0 l 1
 323 370 l 0
 325 378 326 386 327 394 c 0
 330 408 332 422 330 433 c 1
 327 454 315 459 302 459 c 0
 287 459 264 449 240 418 c 1
 221 393 216 374 212 351 c 0
 146 0 l 1
EndSplineSet
EndChar

StartChar: s
Encoding: 115 115 3
Width: 613
Flags: W
TeX: 118 0
LayerCount: 2
Fore
SplineSet
79 79 m 0
 71 88 l 1
 150 194 l 1
 162 188 l 0
 180 179 173 160 173 160 c 0
 173 158 l 1
 186 140 232 90 322 90 c 0
 420 90 479 124 486 159 c 0
 488 172 487 191 452 208 c 0
 420 224 331 238 286 254 c 0
 261 263 150 299 169 401 c 0
 185 486 288 555 419 555 c 0
 503 555 575 524 619 464 c 0
 626 454 l 1
 548 363 l 1
 539 365 l 0
 531 367 520 377 523 392 c 0
 523 393 524 394 524 394 c 1
 509 418 469 460 400 460 c 0
 342 460 294 432 288 402 c 0
 286 391 286 374 322 356 c 0
 363 336 481 323 541 288 c 0
 604 251 615 198 606 158 c 0
 580 49 490 -12 353 -12 c 0
 220 -12 136 15 79 79 c 0
EndSplineSet
EndChar

StartChar: I
Encoding: 73 73 4
Width: 613
Flags: W
TeX: 75 0
LayerCount: 2
Fore
SplineSet
212 639 m 1
 230 739 l 1
 627 739 l 1
 609 639 l 1
 463 639 l 1
 368 98 l 1
 521 98 l 1
 504 -1 l 1
 91 -1 l 1
 109 99 l 1
 254 99 l 1
 349 639 l 1
 212 639 l 1
EndSplineSet
EndChar

StartChar: o
Encoding: 111 111 5
Width: 613
Flags: W
TeX: 114 0
LayerCount: 2
Fore
SplineSet
413 554 m 0
 545 554 652 453 619 269 c 0
 588 92 448 -14 310 -14 c 0
 164 -14 61 103 90 267 c 0
 119 433 265 554 413 554 c 0
502 265 m 0
 525 397 456 451 388 451 c 0
 315 451 233 391 212 274 c 0
 191 156 253 90 329 90 c 0
 398 90 481 145 502 265 c 0
EndSplineSet
EndChar

StartChar: n
Encoding: 110 110 6
Width: 613
Flags: W
TeX: 113 0
LayerCount: 2
Fore
SplineSet
191 0 m 1
 73 0 l 1
 143 377 l 0
 156 448 149 501 138 520 c 0
 128 539 l 1
 263 555 l 1
 267 543 l 0
 270 534 273 512 271 469 c 1
 319 515 382 554 456 555 c 0
 524 556 581 518 599 454 c 0
 612 409 602 364 595 324 c 0
 566 164 l 0
 549 75 576 22 576 21 c 1
 586 1 l 1
 441 -6 l 1
 440 8 l 1
 440 11 435 75 450 157 c 0
 481 323 l 1
 488 360 494 398 475 424 c 0
 463 441 443 450 420 450 c 0
 370 450 312 408 288 384 c 0
 262 358 254 337 248 304 c 0
 191 0 l 1
EndSplineSet
EndChar

StartChar: l
Encoding: 108 108 7
Width: 613
Flags: W
TeX: 111 0
LayerCount: 2
Fore
SplineSet
373 689 m 1
 219 689 l 1
 237 788 l 1
 508 788 l 1
 394 174 l 1
 392 162 390 148 390 137 c 0
 390 114 395 105 415 105 c 0
 439 105 460 110 491 112 c 0
 511 113 l 1
 489 0 l 1
 421 0 l 0
 383 0 343 1 315 20 c 1
 270 50 265 105 277 169 c 0
 277 171 278 172 278 174 c 0
 373 689 l 1
EndSplineSet
EndChar

StartChar: t
Encoding: 116 116 8
Width: 613
Flags: W
TeX: 119 0
LayerCount: 2
Fore
SplineSet
304 542 m 1
 340 685 l 1
 459 704 l 1
 463 694 l 0
 465 688 463 683 463 681 c 0
 460 665 452 657 450 653 c 1
 442 630 426 571 419 543 c 1
 594 543 l 1
 577 441 l 1
 397 441 l 1
 380 380 367 321 356 261 c 0
 344 191 344 173 343 166 c 1
 342 114 374 99 407 99 c 0
 436 99 478 113 528 146 c 0
 546 157 l 1
 567 60 l 1
 556 53 l 0
 502 18 432 -10 363 -10 c 0
 304 -10 259 12 237 50 c 1
 210 97 220 151 228 196 c 0
 242 277 261 361 281 441 c 1
 155 441 l 1
 175 542 l 1
 304 542 l 1
EndSplineSet
EndChar

StartChar: e
Encoding: 101 101 9
Width: 613
Flags: W
TeX: 103 0
LayerCount: 2
Fore
SplineSet
271 -8 m 0
 145 13 70 112 99 269 c 0
 135 462 277 555 395 555 c 0
 505 555 540 539 570 513 c 0
 606 482 620 436 612 390 c 0
 600 325 548 290 456 259 c 1
 384 235 305 234 230 234 c 0
 212 234 l 0
 189 97 284 87 345 87 c 0
 396 87 478 108 516 144 c 0
 528 155 l 1
 586 86 l 1
 576 76 l 0
 516 16 407 -12 326 -12 c 0
 307 -12 288 -11 271 -8 c 0
413 459 m 0
 348 459 256 425 228 331 c 1
 247 331 266 330 286 330 c 0
 326 330 368 332 399 338 c 1
 470 353 490 364 495 391 c 0
 496 395 496 398 496 402 c 0
 496 431 473 459 413 459 c 0
EndSplineSet
EndChar

StartChar: b
Encoding: 98 98 11
Width: 613
Flags: W
TeX: 100 0
LayerCount: 2
Fore
SplineSet
234 285 m 2
 201 114 l 1
 204 110 218 94 280 94 c 0
 364 94 472 148 495 264 c 0
 500 288 501 308 501 326 c 0
 501 436 429 451 390 451 c 0
 342 451 292 426 266 385 c 0
 250 360 243 330 234 285 c 2
84 34 m 2
 69 37 l 1
 207 790 l 1
 334 790 l 1
 336 776 l 2
 337 767 334 760 330 756 c 0
 326 751 322 749 322 749 c 2
 321 748 l 2
 320 748 l 2
 318 746 l 2
 318 745 318 746 318 745 c 2
 273 492 l 1
 318 532 376 555 433 555 c 0
 445 555 456 554 467 552 c 0
 570 535 648 441 617 275 c 0
 587 114 460 0 314 0 c 0
 176 0 142 22 84 34 c 2
EndSplineSet
EndChar

StartChar: H
Encoding: 72 72 12
Width: 613
Flags: W
TeX: 74 0
LayerCount: 2
Fore
SplineSet
59 0 m 1
 190 739 l 1
 307 739 l 1
 310 731 l 0
 311 727 311 723 310 719 c 0
 306 699 300 701 299 697 c 0
 253 438 l 1
 512 438 l 1
 566 739 l 1
 680 739 l 1
 683 732 l 0
 685 728 685 724 684 720 c 0
 680 698 672 701 672 699 c 0
 549 -1 l 1
 434 -1 l 1
 494 337 l 1
 236 337 l 1
 176 0 l 1
 59 0 l 1
EndSplineSet
EndChar

StartChar: g
Encoding: 103 103 13
Width: 613
Flags: W
TeX: 105 0
LayerCount: 2
Fore
SplineSet
31 -124 m 0
 25 -114 l 1
 112 -20 l 1
 124 -32 l 1
 135 -45 133 -56 133 -57 c 1
 142 -68 190 -109 247 -109 c 0
 338 -109 337 -108 378 -87 c 0
 416 -68 423 -46 427 -26 c 0
 441 53 l 1
 395 12 338 -12 281 -12 c 0
 270 -12 258 -11 247 -9 c 0
 145 8 61 102 94 278 c 0
 136 502 389 543 463 543 c 0
 539 543 575 515 638 500 c 0
 661 495 l 1
 646 477 l 1
 643 474 631 447 626 423 c 1
 543 -26 l 0
 529 -107 440 -204 277 -204 c 0
 120 -204 65 -178 31 -124 c 0
427 452 m 0
 357 451 232 392 213 303 c 0
 208 277 206 254 206 234 c 0
 206 121 266 94 310 94 c 0
 360 94 421 128 451 188 c 0
 464 214 474 243 481 283 c 1
 506 436 l 1
 491 442 463 452 427 452 c 0
EndSplineSet
EndChar

StartChar: h
Encoding: 104 104 14
Width: 613
Flags: W
TeX: 106 0
LayerCount: 2
Fore
SplineSet
193 0 m 1
 75 0 l 1
 219 788 l 1
 344 788 l 1
 346 776 l 0
 346 773 346 770 346 767 c 0
 344 753 332 746 331 745 c 0
 330 744 l 1
 330 744 330 744 330 743 c 0
 283 478 l 1
 333 523 394 555 458 555 c 0
 526 555 583 518 601 454 c 0
 614 409 604 364 597 324 c 0
 568 164 l 0
 551 75 578 22 578 21 c 1
 588 1 l 1
 443 -6 l 1
 442 9 l 1
 442 12 437 76 452 157 c 0
 483 323 l 0
 490 359 496 397 477 424 c 0
 465 441 445 450 422 450 c 0
 372 450 314 408 290 384 c 0
 264 358 256 337 250 304 c 0
 193 0 l 1
EndSplineSet
EndChar

StartChar: u
Encoding: 117 117 15
Width: 613
Flags: W
TeX: 120 0
LayerCount: 2
Fore
SplineSet
272 -13 m 0
 196 -13 129 27 108 102 c 0
 94 150 103 199 111 243 c 0
 142 405 l 0
 153 462 142 503 132 520 c 0
 122 539 l 1
 257 555 l 1
 261 543 l 0
 263 537 276 497 265 438 c 0
 228 242 l 0
 221 207 216 171 227 140 c 1
 239 105 267 87 304 87 c 0
 350 87 400 117 430 156 c 0
 453 185 461 212 468 251 c 0
 523 542 l 1
 640 542 l 1
 570 164 l 0
 554 76 587 23 588 22 c 1
 601 1 l 1
 456 -6 l 1
 453 5 l 1
 452 11 448 25 447 61 c 1
 396 18 329 -13 272 -13 c 0
EndSplineSet
EndChar

StartChar: r
Encoding: 114 114 16
Width: 613
Flags: W
TeX: 117 0
LayerCount: 2
Fore
SplineSet
228 0 m 1
 110 0 l 1
 180 377 l 0
 193 448 186 501 175 520 c 0
 165 539 l 1
 300 555 l 1
 304 543 l 0
 306 538 311 521 311 487 c 1
 362 533 426 554 492 555 c 0
 571 556 622 529 653 490 c 0
 660 481 l 1
 589 373 l 1
 575 388 l 0
 565 400 563 412 559 418 c 0
 551 432 532 451 458 451 c 0
 389 451 351 410 325 384 c 0
 299 358 291 337 285 304 c 0
 228 0 l 1
EndSplineSet
EndChar

StartChar: i
Encoding: 105 105 17
Width: 613
Flags: W
TeX: 108 0
LayerCount: 2
Fore
SplineSet
332 442 m 1
 201 442 l 1
 219 543 l 1
 467 543 l 1
 397 172 l 1
 395 160 393 147 393 136 c 0
 393 113 398 105 418 105 c 0
 442 105 463 110 494 112 c 0
 514 113 l 1
 492 0 l 1
 424 0 l 0
 386 0 346 1 318 20 c 1
 273 49 268 103 280 165 c 0
 280 167 281 168 281 170 c 0
 332 442 l 1
415 627 m 0
 378 633 355 666 362 704 c 0
 369 745 408 778 450 778 c 0
 454 778 458 778 462 777 c 0
 499 771 522 737 515 699 c 0
 508 658 470 626 428 626 c 0
 424 626 419 626 415 627 c 0
EndSplineSet
EndChar

StartChar: f
Encoding: 102 102 18
Width: 613
Flags: W
TeX: 104 0
LayerCount: 2
Fore
SplineSet
262 417 m 1
 145 417 l 1
 162 512 l 1
 280 512 l 1
 287 551 l 0
 296 599 306 648 344 696 c 0
 396 762 478 796 558 796 c 0
 631 796 690 767 724 715 c 0
 729 706 l 1
 666 612 l 1
 658 612 l 0
 647 612 633 623 635 639 c 1
 635 642 636 644 636 644 c 1
 635 645 l 0
 621 674 589 698 542 698 c 0
 502 698 461 680 434 644 c 1
 412 615 405 581 399 545 c 0
 398 541 398 538 397 534 c 0
 393 511 l 1
 570 511 l 1
 553 417 l 1
 376 417 l 1
 267 -172 l 1
 154 -172 l 1
 262 417 l 1
EndSplineSet
EndChar

StartChar: v
Encoding: 118 118 19
Width: 613
Flags: W
TeX: 121 0
LayerCount: 2
Fore
SplineSet
261 -4 m 1
 130 543 l 1
 268 543 l 1
 268 531 l 0
 269 515 260 504 260 504 c 1
 260 504 261 503 261 502 c 0
 340 141 l 1
 442 308 l 0
 485 379 525 453 553 530 c 0
 558 543 l 1
 667 543 l 1
 660 525 l 0
 628 445 583 370 538 298 c 0
 348 -4 l 1
 261 -4 l 1
EndSplineSet
EndChar

StartChar: d
Encoding: 100 100 20
Width: 613
Flags: W
TeX: 102 0
LayerCount: 2
Fore
SplineSet
427 452 m 0
 357 451 232 392 213 303 c 0
 208 277 206 254 206 234 c 0
 206 121 266 94 310 94 c 0
 360 94 421 128 451 188 c 0
 464 214 474 243 481 283 c 1
 506 436 l 1
 491 442 463 452 427 452 c 0
588 30 m 0
 580 0 l 1
 458 -6 l 1
 457 9 l 1
 457 10 456 37 456 73 c 1
 407 25 339 -12 277 -12 c 0
 266 -12 254 -11 243 -9 c 0
 141 8 64 102 97 278 c 0
 139 501 389 543 445 543 c 0
 481 543 513 533 531 527 c 1
 577 790 l 1
 698 790 l 1
 696 772 l 0
 694 758 685 750 683 747 c 0
 679 742 680 743 679 738 c 0
 657 616 598 293 575 168 c 1
 562 95 579 48 588 30 c 0
EndSplineSet
EndChar

StartChar: p
Encoding: 112 112 21
Width: 613
Flags: W
TeX: 115 0
LayerCount: 2
Fore
SplineSet
147 -198 m 1
 29 -198 l 1
 138 403 l 1
 145 462 138 503 129 520 c 0
 119 539 l 1
 246 556 l 1
 250 543 l 0
 252 536 257 513 257 475 c 1
 302 519 360 554 437 554 c 0
 449 554 461 553 473 551 c 0
 575 534 654 443 623 275 c 0
 587 81 451 0 355 0 c 0
 276 0 230 8 185 17 c 1
 147 -198 l 1
235 292 m 0
 202 120 l 1
 226 110 279 92 316 92 c 0
 365 92 473 113 501 262 c 0
 505 285 507 306 507 324 c 0
 507 438 429 451 393 451 c 0
 343 451 292 426 266 385 c 1
 250 362 243 334 235 292 c 0
EndSplineSet
EndChar

StartChar: q
Encoding: 113 113 22
Width: 613
Flags: W
TeX: 116 0
LayerCount: 2
Fore
SplineSet
427 452 m 0
 357 451 232 392 213 303 c 0
 208 277 206 254 206 234 c 0
 206 121 266 94 310 94 c 0
 360 94 421 128 451 188 c 0
 464 214 474 243 481 283 c 1
 506 436 l 1
 491 442 463 452 427 452 c 0
247 -9 m 0
 145 8 61 103 94 279 c 0
 136 503 389 543 463 543 c 0
 539 543 575 515 638 500 c 0
 661 495 l 1
 646 477 l 1
 643 474 631 447 626 423 c 1
 543 -24 l 0
 526 -118 553 -175 553 -176 c 1
 564 -197 l 1
 419 -203 l 1
 417 -189 l 0
 417 -188 409 -122 425 -34 c 0
 441 53 l 1
 395 12 338 -12 281 -12 c 0
 270 -12 258 -11 247 -9 c 0
EndSplineSet
EndChar

StartChar: y
Encoding: 121 121 23
Width: 613
Flags: W
TeX: 124 0
LayerCount: 2
Fore
SplineSet
25 -114 m 1
 112 -20 l 1
 124 -32 l 1
 136 -45 133 -56 133 -57 c 0
 142 -68 190 -109 247 -109 c 0
 338 -109 327 -108 368 -87 c 0
 406 -68 413 -46 417 -26 c 2
 434 50 l 1
 385 12 324 -13 272 -13 c 0
 196 -13 129 27 108 102 c 0
 94 150 103 199 111 243 c 2
 142 405 l 2
 153 462 142 503 132 520 c 2
 122 539 l 1
 257 555 l 1
 261 543 l 2
 263 537 276 497 265 438 c 2
 228 242 l 2
 221 207 216 171 227 140 c 0
 239 105 267 87 304 87 c 0
 350 87 400 117 430 156 c 0
 453 185 461 212 468 251 c 2
 523 542 l 1
 640 542 l 1
 534 -26 l 2
 520 -107 440 -204 277 -204 c 0
 120 -204 65 -178 31 -124 c 2
 25 -114 l 1
EndSplineSet
EndChar

StartChar: period
Encoding: 46 46 24
Width: 613
Flags: W
TeX: 115 0
LayerCount: 2
Fore
SplineSet
315 123 m 0
 362 123 394 85 386 39 c 0
 378 -7 333 -44 286 -44 c 0
 239 -44 207 -7 215 39 c 0
 223 85 268 123 315 123 c 0
EndSplineSet
EndChar

StartChar: comma
Encoding: 44 44 25
Width: 613
Flags: W
TeX: 101 0
HStem: -205 327
VStem: 155 235
LayerCount: 2
Fore
SplineSet
312 122 m 0
 364 122 402 76 390 8 c 0
 379 -52 320 -121 223 -195 c 0
 211 -205 l 1
 155 -157 l 1
 169 -147 l 0
 199 -126 223 -103 237 -87 c 0
 244 -79 257 -64 259 -52 c 0
 261 -39 252 -33 242 -27 c 0
 233 -20 207 -2 214 39 c 0
 222 83 264 122 312 122 c 0
EndSplineSet
EndChar

StartChar: plus
Encoding: 43 43 28
Width: 613
Flags: W
TeX: 115 0
LayerCount: 2
Fore
SplineSet
334 433 m 1
 367 621 l 1
 473 621 l 1
 440 433 l 1
 643 433 l 1
 624 330 l 1
 422 330 l 1
 382 108 l 1
 277 108 l 1
 316 330 l 1
 106 330 l 1
 125 433 l 1
 334 433 l 1
EndSplineSet
EndChar

StartChar: minus
Encoding: 8722 8722 29
Width: 613
Flags: W
TeX: 106 0
LayerCount: 2
Fore
SplineSet
107 335 m 1
 125 438 l 1
 644 438 l 1
 625 335 l 1
 107 335 l 1
EndSplineSet
EndChar

StartChar: underscore
Encoding: 95 95 31
Width: 613
Flags: W
TeX: 120 0
LayerCount: 2
Fore
SplineSet
14 -126 m 1
 32 -23 l 1
 575 -23 l 1
 556 -126 l 1
 14 -126 l 1
EndSplineSet
EndChar

StartChar: less
Encoding: 60 60 32
Width: 613
Flags: W
TeX: 111 0
LayerCount: 2
Fore
SplineSet
669 566 m 1
 242 378 l 1
 602 168 l 1
 580 43 l 1
 96 342 l 1
 110 418 l 1
 690 685 l 1
 669 566 l 1
EndSplineSet
EndChar

StartChar: greater
Encoding: 62 62 33
Width: 613
Flags: W
TeX: 105 0
LayerCount: 2
Fore
SplineSet
145 566 m 1
 166 685 l 1
 652 418 l 1
 639 342 l 1
 50 43 l 1
 72 168 l 1
 506 378 l 1
 145 566 l 1
EndSplineSet
EndChar

StartChar: quotesingle
Encoding: 39 39 34
Width: 613
Flags: W
TeX: 116 0
LayerCount: 2
Fore
SplineSet
475 791 m 0
 508 791 531 767 521 708 c 2
 501 595 l 1
 482 473 l 1
 352 473 l 1
 359 518 l 0
 363 565 367 566 373 611 c 0
 373 613 l 1
 374 615 l 0
 381 627 375 637 380 663 c 0
 389 716 l 0
 398 766 444 791 475 791 c 0
EndSplineSet
EndChar

StartChar: grave
Encoding: 96 96 35
Width: 613
Flags: W
TeX: 105 0
LayerCount: 2
Fore
SplineSet
287 361 m 2
 222 474 l 1
 159 580 l 1
 156 805 l 1
 185 762 l 0
 215 721 215 713 244 671 c 0
 245 670 l 1
 245 669 l 0
 256 640 261 645 277 617 c 0
 311 566 l 0
 340 513 352 424 353 378 c 0
 353 362 356 342 338 333 c 0
 315 321 298 345 287 361 c 2
EndSplineSet
EndChar

StartChar: slash
Encoding: 47 47 36
Width: 613
Flags: W
TeX: 118 0
LayerCount: 2
Fore
SplineSet
153 -56 m 1
 65 -7 l 1
 590 794 l 1
 680 746 l 1
 153 -56 l 1
EndSplineSet
EndChar

StartChar: backslash
Encoding: 92 92 37
Width: 613
Flags: W
TeX: 100 0
LayerCount: 2
Fore
SplineSet
304 794 m 1
 547 -7 l 1
 442 -56 l 1
 197 746 l 1
 304 794 l 1
EndSplineSet
EndChar

StartChar: micro
Encoding: 181 181 38
Width: 613
Flags: W
TeX: 120 0
LayerCount: 2
Fore
SplineSet
-11 -198 m 1
 -9 -182 l 2
 16 -49 64 94 89 237 c 0
 143 542 l 1
 251 542 l 1
 195 226 l 0
 189 192 185 163 195 136 c 0
 208 100 238 82 269 82 c 0
 305 82 346 105 372 146 c 1
 389 172 395 199 401 233 c 0
 456 542 l 1
 562 542 l 1
 492 144 l 0
 489 126 487 109 492 97 c 0
 492 97 l 1
 493 96 l 0
 497 85 504 82 513 82 c 0
 540 82 572 125 573 127 c 0
 590 155 l 1
 625 64 l 1
 619 56 l 0
 589 21 540 -12 489 -12 c 0
 442 -12 409 18 399 57 c 1
 357 13 301 -13 246 -13 c 0
 200 -13 160 7 136 38 c 1
 123 -36 110 -109 96 -182 c 0
 93 -198 l 1
 -11 -198 l 1
EndSplineSet
EndChar

StartChar: braceleft
Encoding: 123 123 39
Width: 613
Flags: W
TeX: 100 0
LayerCount: 2
Fore
SplineSet
102 255 m 1
 119 352 l 1
 158 352 l 0
 180 352 206 353 231 373 c 1
 259 398 268 433 273 460 c 0
 278 487 279 513 284 542 c 0
 292 586 310 655 376 706 c 1
 438 753 508 756 565 756 c 0
 643 756 l 1
 626 657 l 1
 570 657 l 0
 552 657 537 658 523 658 c 0
 495 658 476 656 456 645 c 1
 414 622 402 575 398 551 c 0
 394 526 393 500 388 471 c 0
 383 443 374 407 350 373 c 1
 331 345 304 320 274 303 c 1
 312 277 341 223 323 120 c 0
 316 82 307 49 302 20 c 0
 295 -20 293 -65 325 -90 c 0
 344 -105 370 -106 408 -106 c 0
 490 -106 l 1
 473 -204 l 1
 378 -204 l 0
 321 -204 267 -201 227 -165 c 1
 167 -112 179 -24 187 19 c 0
 195 66 207 103 213 138 c 0
 222 188 219 218 203 236 c 0
 187 255 163 255 142 255 c 0
 102 255 l 1
EndSplineSet
EndChar

StartChar: braceright
Encoding: 125 125 40
Width: 613
Flags: W
TeX: 100 0
LayerCount: 2
Fore
SplineSet
580 352 m 0
 619 352 l 1
 602 255 l 1
 562 255 l 0
 541 255 518 255 495 236 c 0
 473 218 459 188 450 138 c 0
 444 103 443 66 435 19 c 0
 427 -24 408 -112 330 -165 c 1
 277 -201 222 -204 165 -204 c 0
 70 -204 l 1
 87 -106 l 1
 169 -106 l 0
 207 -106 233 -105 258 -90 c 0
 298 -65 313 -20 320 20 c 0
 325 49 326 82 333 120 c 0
 351 224 401 278 447 303 c 1
 422 321 405 345 396 373 c 1
 384 407 387 443 392 471 c 0
 397 500 406 526 410 551 c 0
 414 575 420 622 386 645 c 1
 370 656 352 658 324 658 c 0
 310 658 295 657 277 657 c 0
 220 657 l 1
 238 756 l 1
 316 756 l 0
 373 756 442 753 487 706 c 1
 535 655 529 586 521 542 c 0
 516 513 509 487 504 460 c 0
 499 433 497 397 515 373 c 1
 534 352 558 352 580 352 c 0
EndSplineSet
EndChar

StartChar: asterisk
Encoding: 42 42 41
Width: 613
Flags: W
TeX: 99 0
LayerCount: 2
Fore
SplineSet
355 615 m 1
 486 615 l 1
 482 611 l 0
 476 594 473 592 470 581 c 0
 425 417 l 1
 618 498 l 1
 645 394 l 1
 438 349 l 1
 553 176 l 1
 452 116 l 1
 359 296 l 1
 198 115 l 1
 119 176 l 1
 299 349 l 1
 108 394 l 1
 171 503 l 1
 337 417 l 1
 355 615 l 1
EndSplineSet
EndChar

StartChar: O
Encoding: 79 79 42
Width: 613
Flags: W
TeX: 81 0
LayerCount: 2
Fore
SplineSet
645 606 m 0
 673 526 662 435 650 368 c 0
 639 305 618 214 563 134 c 0
 494 35 396 -11 310 -11 c 0
 187 -11 45 86 95 371 c 0
 145 657 324 748 443 748 c 0
 529 748 611 702 645 606 c 0
538 538 m 0
 519 614 466 639 420 639 c 0
 353 639 245 585 209 381 c 0
 170 162 258 100 330 100 c 0
 374 100 429 124 472 187 c 0
 510 244 526 313 534 358 c 0
 544 417 552 482 538 538 c 0
EndSplineSet
EndChar

StartChar: zero
Encoding: 48 48 43
Width: 613
Flags: W
TeX: 125 0
LayerCount: 2
Fore
SplineSet
118 364 m 0
 159 595 309 744 440 744 c 0
 567 744 665 603 622 357 c 0
 578 109 426 -13 307 -13 c 0
 177 -13 77 131 118 364 c 0
217 258 m 1
 505 562 l 1
 485 619 451 641 420 641 c 0
 361 641 260 550 227 363 c 0
 220 325 217 289 217 258 c 1
516 363 m 0
 523 405 527 443 527 476 c 1
 240 177 l 1
 261 119 296 93 329 93 c 0
 381 93 480 159 516 363 c 0
EndSplineSet
EndChar

StartChar: one
Encoding: 49 49 44
Width: 613
Flags: W
TeX: 114 0
LayerCount: 2
Fore
SplineSet
435 740 m 1
 511 740 l 1
 381 -1 l 1
 267 -1 l 1
 374 607 l 1
 225 566 l 1
 207 635 l 1
 435 740 l 1
EndSplineSet
EndChar

StartChar: two
Encoding: 50 50 45
Width: 613
Flags: W
TeX: 119 0
LayerCount: 2
Fore
SplineSet
189 606 m 1
 198 617 l 2
 258 696 352 744 441 744 c 0
 570 744 654 650 633 532 c 0
 614 423 520 346 457 298 c 0
 400 254 312 190 238 103 c 1
 521 103 l 0
 522 103 l 1
 523 104 523 104 524 105 c 0
 525 106 539 119 556 113 c 0
 566 109 l 1
 547 0 l 1
 82 0 l 1
 94 68 l 1
 96 71 l 0
 180 190 263 265 361 338 c 0
 424 385 504 444 518 521 c 0
 530 589 484 640 413 640 c 0
 355 640 307 604 288 580 c 0
 285 577 287 568 273 552 c 0
 261 539 l 1
 189 606 l 1
EndSplineSet
EndChar

StartChar: N
Encoding: 78 78 46
Width: 613
Flags: W
TeX: 80 0
LayerCount: 2
Fore
SplineSet
165 0 m 1
 54 0 l 1
 185 739 l 1
 290 739 l 1
 487 234 l 1
 576 740 l 1
 693 740 l 1
 692 727 l 0
 692 715 685 706 683 704 c 0
 679 698 680 700 679 695 c 0
 556 -1 l 1
 466 -1 l 1
 260 538 l 1
 165 0 l 1
EndSplineSet
EndChar

StartChar: four
Encoding: 52 52 47
Width: 613
Flags: W
TeX: 104 0
LayerCount: 2
Fore
SplineSet
100 269 m 1
 504 740 l 1
 597 740 l 1
 519 293 l 1
 614 293 l 1
 595 188 l 1
 500 188 l 1
 467 0 l 1
 350 0 l 1
 384 189 l 1
 86 189 l 1
 100 269 l 1
403 293 m 1
 449 557 l 1
 230 293 l 1
 403 293 l 1
EndSplineSet
EndChar

StartChar: eight
Encoding: 56 56 48
Width: 613
Flags: W
TeX: 103 0
LayerCount: 2
Fore
SplineSet
200 559 m 0
 218 664 328 749 449 749 c 0
 565 749 642 669 624 566 c 0
 612 499 560 434 492 395 c 1
 559 353 598 280 584 198 c 0
 563 80 441 -12 304 -12 c 0
 170 -12 80 78 100 193 c 0
 114 274 181 349 267 393 c 1
 215 432 188 492 200 559 c 0
471 207 m 0
 482 269 439 328 356 358 c 1
 287 330 231 272 220 212 c 0
 208 147 254 93 327 93 c 0
 399 93 460 145 471 207 c 0
510 553 m 0
 519 606 483 648 425 648 c 0
 368 648 319 607 310 558 c 0
 297 486 376 439 401 427 c 1
 458 457 502 506 510 553 c 0
EndSplineSet
EndChar

StartChar: five
Encoding: 53 53 49
Width: 613
Flags: W
TeX: 104 0
LayerCount: 2
Fore
SplineSet
157 353 m 1
 252 739 l 1
 657 739 l 1
 638 634 l 1
 332 634 l 1
 295 476 l 1
 332 489 367 496 402 496 c 0
 534 496 625 402 597 241 c 0
 568 78 439 -13 303 -13 c 0
 210 -13 130 30 92 107 c 0
 86 119 l 1
 193 190 l 1
 201 184 l 0
 217 171 209 150 209 150 c 1
 214 141 252 90 320 90 c 0
 390 90 463 141 481 243 c 0
 500 348 441 396 372 396 c 0
 326 396 274 373 234 332 c 0
 226 323 l 1
 157 353 l 1
EndSplineSet
EndChar

StartChar: S
Encoding: 83 83 50
Width: 613
Flags: W
TeX: 85 0
LayerCount: 2
Fore
SplineSet
652 646 m 2
 658 637 l 1
 577 547 l 1
 567 551 l 2
 560 553 552 561 554 574 c 0
 554 578 l 1
 534 616 492 644 428 644 c 0
 350 644 302 600 294 555 c 0
 290 531 294 495 346 463 c 0
 404 427 506 407 564 345 c 0
 606 300 609 246 602 206 c 0
 585 110 491 -12 302 -12 c 0
 207 -12 126 21 76 88 c 2
 70 96 l 1
 151 204 l 1
 163 197 l 2
 177 189 172 173 172 172 c 0
 172 170 171 169 171 169 c 1
 171 169 l 2
 195 131 247 93 323 93 c 0
 423 93 480 154 489 207 c 0
 494 234 488 266 449 292 c 0
 402 323 299 347 236 398 c 0
 178 444 169 503 177 548 c 0
 196 654 312 743 452 743 c 0
 537 743 610 709 652 646 c 2
EndSplineSet
EndChar

StartChar: M
Encoding: 77 77 51
Width: 613
Flags: W
TeX: 79 0
LayerCount: 2
Fore
SplineSet
43 -1 m 1
 173 739 l 1
 264 739 l 1
 377 396 l 1
 615 740 l 1
 702 740 l 1
 571 -1 l 1
 462 -1 l 1
 552 512 l 1
 372 260 l 1
 322 260 l 1
 241 505 l 1
 151 -1 l 1
 43 -1 l 1
EndSplineSet
EndChar

StartChar: L
Encoding: 76 76 52
Width: 613
Flags: W
TeX: 78 0
LayerCount: 2
Fore
SplineSet
74 -1 m 1
 204 739 l 1
 329 739 l 1
 329 726 l 0
 329 713 320 702 318 699 c 0
 313 692 312 694 311 686 c 0
 208 101 l 1
 565 101 l 1
 547 -1 l 1
 74 -1 l 1
EndSplineSet
EndChar

StartChar: ampersand
Encoding: 38 38 53
Width: 613
Flags: W
TeX: 80 0
LayerCount: 2
Fore
SplineSet
206 582 m 0
 223 676 315 747 413 747 c 0
 510 747 575 676 558 580 c 0
 545 504 483 430 403 386 c 1
 488 236 l 1
 512 261 527 287 538 308 c 0
 539 310 540 311 540 312 c 0
 540 313 540 318 541 326 c 0
 543 336 548 344 555 349 c 0
 565 357 l 1
 652 291 l 1
 643 280 l 0
 610 237 575 194 537 154 c 1
 603 48 l 1
 496 -21 l 1
 450 80 l 1
 390 26 314 -12 236 -12 c 0
 121 -12 51 72 70 181 c 0
 86 270 158 358 252 409 c 1
 220 459 195 519 206 582 c 0
394 646 m 0
 361 646 325 618 317 574 c 0
 313 549 316 513 355 447 c 1
 405 476 439 524 447 568 c 0
 456 617 428 646 394 646 c 0
416 122 m 0
 436 146 l 1
 428 100 l 1
 416 122 l 0
268 95 m 0
 322 95 380 142 404 163 c 1
 301 345 l 1
 242 306 202 248 193 197 c 0
 182 136 216 95 268 95 c 0
EndSplineSet
EndChar

StartChar: F
Encoding: 70 70 54
Width: 613
Flags: W
TeX: 80 0
LayerCount: 2
Fore
SplineSet
87 0 m 1
 218 740 l 1
 674 740 l 1
 656 637 l 1
 314 637 l 1
 281 451 l 1
 558 451 l 1
 540 348 l 1
 263 348 l 1
 202 0 l 1
 87 0 l 1
EndSplineSet
EndChar

StartChar: w
Encoding: 119 119 55
Width: 613
Flags: W
TeX: 122 0
LayerCount: 2
Fore
SplineSet
435 492 m 1
 475 162 l 1
 548 385 566 450 576 504 c 0
 577 511 578 519 579 526 c 0
 581 542 l 1
 694 542 l 1
 688 525 l 0
 634 352 575 182 508 11 c 0
 503 -1 l 1
 399 -1 l 1
 365 308 l 1
 227 -1 l 1
 125 -1 l 1
 106 543 l 1
 222 543 l 1
 224 532 l 0
 226 517 219 504 216 499 c 0
 212 491 213 493 213 486 c 0
 213 486 l 1
 221 162 l 1
 359 492 l 1
 435 492 l 1
EndSplineSet
EndChar

StartChar: quotedbl
Encoding: 34 34 58
Width: 613
Flags: W
TeX: 116 0
LayerCount: 2
Fore
SplineSet
569 791 m 0
 600 791 617 764 607 708 c 2
 587 595 l 1
 568 473 l 1
 455 473 l 1
 462 518 l 0
 467 565 471 566 477 611 c 0
 477 613 l 1
 478 615 l 0
 484 628 480 638 484 663 c 0
 494 716 l 0
 502 763 539 791 569 791 c 0
362 791 m 0
 393 791 410 764 400 708 c 2
 380 595 l 1
 361 473 l 1
 249 473 l 1
 256 518 l 0
 261 565 264 566 270 611 c 0
 270 613 l 1
 271 615 l 0
 277 628 274 638 278 663 c 0
 287 716 l 0
 295 763 332 791 362 791 c 0
EndSplineSet
EndChar

StartChar: T
Encoding: 84 84 59
Width: 613
Flags: W
TeX: 86 0
LayerCount: 2
Fore
SplineSet
144 635 m 1
 162 740 l 1
 705 740 l 1
 686 635 l 1
 468 635 l 1
 356 -1 l 1
 241 -1 l 1
 354 635 l 1
 144 635 l 1
EndSplineSet
EndChar

StartChar: hyphen
Encoding: 45 45 60
Width: 613
Flags: W
TeX: 106 0
LayerCount: 2
Fore
SplineSet
138 334 m 1
 157 443 l 1
 615 443 l 1
 595 334 l 1
 138 334 l 1
EndSplineSet
EndChar

StartChar: exclam
Encoding: 33 33 61
Width: 613
Flags: W
TeX: 103 0
LayerCount: 2
Fore
SplineSet
322 158 m 0
 369 158 401 119 393 72 c 0
 385 25 339 -13 292 -13 c 0
 245 -13 214 25 222 72 c 0
 230 119 275 158 322 158 c 0
361 745 m 0
 379 776 409 793 436 793 c 0
 466 793 493 772 496 730 c 0
 497 722 497 707 492 678 c 0
 484 631 468 586 457 542 c 0
 383 247 l 1
 294 247 l 1
 328 542 l 0
 337 619 335 647 342 688 c 0
 346 711 352 729 361 745 c 0
EndSplineSet
EndChar

StartChar: U
Encoding: 85 85 63
Width: 613
Flags: W
TeX: 87 0
LayerCount: 2
Fore
SplineSet
100 259 m 0
 185 739 l 1
 303 739 l 1
 306 730 l 0
 307 726 307 723 306 719 c 0
 304 706 293 696 291 694 c 0
 288 691 289 692 288 688 c 0
 213 261 l 0
 207 226 202 194 212 163 c 0
 227 114 273 88 326 88 c 0
 378 88 433 113 466 162 c 0
 488 195 495 228 501 264 c 0
 585 739 l 1
 695 739 l 1
 611 263 l 0
 602 211 590 158 551 105 c 0
 492 25 396 -13 306 -13 c 0
 214 -13 133 26 103 105 c 0
 83 157 91 209 100 259 c 0
EndSplineSet
EndChar

StartChar: numbersign
Encoding: 35 35 64
Width: 613
Flags: W
TeX: 113 0
LayerCount: 2
Fore
SplineSet
274 539 m 1
 333 740 l 1
 436 744 l 1
 376 540 l 1
 476 541 l 1
 532 734 l 1
 638 738 l 1
 580 543 l 1
 687 544 l 1
 663 456 l 1
 554 455 l 1
 503 286 l 1
 621 288 l 1
 596 202 l 1
 477 200 l 1
 414 -14 l 1
 310 -19 l 1
 374 198 l 1
 274 197 l 1
 211 -14 l 1
 109 -18 l 1
 172 195 l 1
 57 193 l 1
 80 278 l 1
 197 280 l 1
 248 452 l 1
 119 450 l 1
 141 537 l 1
 274 539 l 1
452 469 m 1
 352 468 l 1
 302 298 l 1
 402 299 l 1
 452 469 l 1
EndSplineSet
EndChar

StartChar: j
Encoding: 106 106 65
Width: 613
Flags: W
TeX: 109 0
LayerCount: 2
Fore
SplineSet
222 441 m 1
 240 543 l 1
 559 543 l 1
 471 47 l 0
 463 2 454 -43 421 -90 c 0
 367 -168 279 -207 197 -207 c 0
 125 -207 67 -177 34 -125 c 0
 28 -116 l 1
 117 -20 l 1
 127 -30 l 0
 139 -41 137 -56 137 -56 c 0
 139 -60 163 -102 221 -102 c 0
 261 -102 301 -81 326 -43 c 0
 342 -19 347 5 352 32 c 0
 424 441 l 1
 222 441 l 1
452 702 m 0
 459 744 501 778 543 778 c 0
 585 778 613 744 606 702 c 0
 599 660 558 626 516 626 c 0
 474 626 445 660 452 702 c 0
EndSplineSet
EndChar

StartChar: x
Encoding: 120 120 66
Width: 613
Flags: W
TeX: 123 0
LayerCount: 2
Fore
SplineSet
367 354 m 1
 528 543 l 1
 652 543 l 1
 419 279 l 1
 581 0 l 1
 446 0 l 1
 340 199 l 1
 171 0 l 1
 37 0 l 1
 287 275 l 1
 136 543 l 1
 266 543 l 1
 367 354 l 1
EndSplineSet
EndChar

StartChar: G
Encoding: 71 71 67
Width: 613
Flags: W
TeX: 73 0
LayerCount: 2
Fore
SplineSet
101 361 m 0
 157 681 366 747 471 747 c 0
 567 747 645 697 676 615 c 0
 680 605 l 1
 591 528 l 1
 582 535 l 0
 569 544 567 559 565 565 c 0
 553 609 512 643 452 643 c 0
 395 643 330 614 283 551 c 0
 247 503 228 442 217 378 c 0
 204 305 197 211 243 149 c 0
 273 109 318 92 362 92 c 0
 400 92 446 105 486 127 c 1
 511 267 l 1
 377 267 l 1
 395 370 l 1
 637 370 l 1
 584 70 l 1
 577 65 l 0
 496 14 409 -11 337 -11 c 0
 199 -11 52 85 101 361 c 0
EndSplineSet
EndChar

StartChar: k
Encoding: 107 107 68
Width: 613
Flags: W
TeX: 110 0
LayerCount: 2
Fore
SplineSet
74 -1 m 1
 213 788 l 1
 338 788 l 1
 338 776 l 0
 338 760 326 749 324 747 c 0
 323 745 322 745 322 745 c 1
 322 745 321 744 321 742 c 0
 246 313 l 1
 538 546 l 1
 546 544 l 0
 564 539 585 539 605 539 c 0
 674 539 l 1
 390 319 l 1
 611 -1 l 1
 578 -1 l 0
 575 -1 573 -1 570 -1 c 0
 514 -1 468 -5 468 -5 c 0
 460 -6 l 1
 292 264 l 1
 228 213 l 1
 190 -1 l 1
 74 -1 l 1
EndSplineSet
EndChar

StartChar: z
Encoding: 122 122 69
Width: 613
Flags: W
TeX: 125 0
LayerCount: 2
Fore
SplineSet
156 437 m 1
 175 543 l 1
 627 543 l 1
 614 469 l 1
 236 103 l 1
 526 103 l 0
 534 103 539 111 559 111 c 0
 561 111 563 110 565 110 c 0
 578 109 l 1
 559 -1 l 1
 54 -1 l 1
 67 73 l 1
 450 437 l 1
 156 437 l 1
EndSplineSet
EndChar

StartChar: dollar
Encoding: 36 36 70
Width: 613
Flags: W
TeX: 102 0
LayerCount: 2
Fore
SplineSet
397 701 m 1
 410 772 l 1
 512 772 l 1
 514 763 l 0
 515 760 515 757 514 753 c 0
 512 739 503 734 503 734 c 1
 503 733 l 0
 498 702 l 1
 565 692 619 661 654 611 c 0
 660 602 l 1
 581 523 l 1
 572 525 l 0
 565 527 557 534 558 546 c 0
 558 549 559 550 559 551 c 1
 558 553 558 554 557 555 c 0
 542 578 516 595 480 604 c 1
 446 412 l 1
 469 404 490 396 511 387 c 0
 534 377 630 335 610 220 c 0
 595 133 512 41 377 19 c 1
 364 -55 l 1
 264 -55 l 1
 276 16 l 1
 197 24 132 55 89 110 c 0
 82 119 l 1
 164 207 l 1
 174 202 l 0
 189 195 184 177 184 177 c 0
 184 176 183 175 183 175 c 1
 206 146 245 121 293 112 c 1
 333 336 l 1
 315 342 297 349 280 358 c 0
 184 406 173 476 181 523 c 0
 197 612 288 683 397 701 c 1
463 287 m 0
 454 293 441 298 427 303 c 1
 393 108 l 1
 456 126 493 169 500 210 c 0
 504 230 503 263 463 287 c 0
336 461 m 0
 341 458 348 453 353 451 c 1
 382 615 l 1
 323 602 298 569 293 539 c 0
 289 519 293 489 336 461 c 0
EndSplineSet
EndChar

StartChar: A
Encoding: 65 65 71
Width: 613
Flags: W
TeX: 67 0
LayerCount: 2
Fore
SplineSet
120 -1 m 1
 6 -1 l 1
 411 753 l 1
 441 753 l 1
 606 0 l 1
 487 0 l 1
 441 201 l 1
 228 201 l 1
 120 -1 l 1
271 296 m 1
 427 296 l 1
 385 516 l 1
 271 296 l 1
EndSplineSet
EndChar

StartChar: C
Encoding: 67 67 72
Width: 613
Flags: W
TeX: 69 0
LayerCount: 2
Fore
SplineSet
107 365 m 0
 158 656 348 745 471 745 c 0
 575 745 658 685 684 590 c 0
 688 576 l 1
 579 527 l 1
 572 532 l 0
 561 541 565 554 565 556 c 0
 566 561 567 564 567 565 c 0
 567 567 568 566 566 570 c 0
 547 617 503 648 451 648 c 0
 359 648 252 556 220 373 c 0
 187 187 264 90 360 90 c 0
 412 90 471 121 512 173 c 0
 523 186 l 1
 600 130 l 1
 590 117 l 0
 527 37 431 -12 337 -12 c 0
 206 -12 57 84 107 365 c 0
EndSplineSet
EndChar

StartChar: B
Encoding: 66 66 73
Width: 613
Flags: W
TeX: 68 0
LayerCount: 2
Fore
SplineSet
52 0 m 1
 183 739 l 1
 408 739 l 0
 453 739 502 739 548 718 c 0
 617 687 648 621 636 551 c 0
 625 488 580 430 520 397 c 1
 586 361 619 289 605 211 c 0
 591 132 530 58 439 23 c 1
 379 0 327 0 276 0 c 0
 52 0 l 1
379 638 m 0
 277 638 l 1
 244 449 l 1
 344 449 l 0
 377 449 410 449 443 461 c 0
 487 478 514 510 520 543 c 0
 526 576 510 611 469 627 c 0
 441 638 411 638 379 638 c 0
332 348 m 0
 226 348 l 1
 183 103 l 1
 309 103 l 0
 341 103 369 104 400 116 c 0
 449 135 481 176 489 221 c 0
 497 266 478 310 433 332 c 0
 402 347 369 348 332 348 c 0
EndSplineSet
EndChar

StartChar: bracketleft
Encoding: 91 91 74
Width: 613
Flags: W
TeX: 100 0
LayerCount: 2
Fore
SplineSet
132 -105 m 1
 291 795 l 1
 660 795 l 1
 642 693 l 1
 379 693 l 1
 256 -7 l 1
 520 -7 l 1
 503 -105 l 1
 132 -105 l 1
EndSplineSet
EndChar

StartChar: bracketright
Encoding: 93 93 75
Width: 613
Flags: W
TeX: 100 0
LayerCount: 2
Fore
SplineSet
234 795 m 1
 604 795 l 1
 445 -105 l 1
 75 -105 l 1
 92 -7 l 1
 356 -7 l 1
 480 693 l 1
 216 693 l 1
 234 795 l 1
EndSplineSet
EndChar

StartChar: parenleft
Encoding: 40 40 76
Width: 613
Flags: W
TeX: 115 0
LayerCount: 2
Fore
SplineSet
608 789 m 0
 623 795 l 1
 654 699 l 1
 641 692 l 0
 633 688 626 688 623 688 c 0
 615 688 611 689 610 689 c 0
 610 689 609 689 607 688 c 0
 460 612 355 470 327 310 c 0
 296 136 360 -28 502 -117 c 0
 515 -124 l 1
 445 -210 l 1
 433 -203 l 0
 257 -105 175 92 213 306 c 0
 251 522 404 708 608 789 c 0
EndSplineSet
EndChar

StartChar: parenright
Encoding: 41 41 77
Width: 613
Flags: W
TeX: 115 0
LayerCount: 2
Fore
SplineSet
217 690 m 0
 207 696 l 1
 256 795 l 1
 270 788 l 0
 453 700 547 508 510 297 c 0
 472 84 307 -112 89 -205 c 0
 72 -213 l 1
 57 -115 l 1
 70 -109 l 0
 240 -29 365 126 395 294 c 0
 424 459 355 612 217 690 c 0
EndSplineSet
EndChar

StartChar: three
Encoding: 51 51 78
Width: 613
Flags: W
TeX: 119 0
LayerCount: 2
Fore
SplineSet
425 742 m 0
 550 742 629 653 610 547 c 0
 599 483 552 424 492 393 c 1
 552 357 580 288 566 210 c 0
 545 92 434 -12 284 -12 c 0
 206 -12 136 18 94 77 c 0
 87 87 l 1
 186 185 l 1
 196 173 l 0
 210 155 203 142 206 138 c 0
 209 133 240 93 302 93 c 0
 380 93 446 152 458 221 c 0
 471 294 415 339 320 339 c 0
 308 339 297 338 285 336 c 0
 267 334 l 1
 283 428 l 1
 299 429 l 0
 367 429 400 440 412 445 c 0
 461 464 492 505 499 542 c 0
 508 593 472 637 403 637 c 0
 362 637 315 619 277 585 c 0
 264 573 l 1
 210 647 l 1
 221 658 l 0
 280 712 354 742 425 742 c 0
EndSplineSet
EndChar

StartChar: D
Encoding: 68 68 79
Width: 613
Flags: W
TeX: 70 0
LayerCount: 2
Fore
SplineSet
58 -1 m 1
 189 739 l 1
 377 739 l 0
 443 739 500 735 551 699 c 0
 641 636 662 510 637 371 c 0
 609 213 528 85 405 29 c 0
 345 2 291 -1 232 -1 c 0
 58 -1 l 1
354 638 m 0
 280 638 l 1
 185 95 l 1
 245 95 l 0
 291 95 333 97 380 124 c 0
 440 158 498 230 521 360 c 0
 538 459 531 554 477 603 c 0
 441 636 400 638 354 638 c 0
EndSplineSet
EndChar

StartChar: E
Encoding: 69 69 80
Width: 613
Flags: W
TeX: 71 0
LayerCount: 2
Fore
SplineSet
65 0 m 1
 195 740 l 1
 679 740 l 1
 661 636 l 1
 286 636 l 1
 252 439 l 1
 561 439 l 1
 542 333 l 1
 233 333 l 1
 192 104 l 1
 564 104 l 1
 546 0 l 1
 65 0 l 1
EndSplineSet
EndChar

StartChar: V
Encoding: 86 86 81
Width: 613
Flags: W
TeX: 88 0
LayerCount: 2
Fore
SplineSet
280 -5 m 1
 149 740 l 1
 269 740 l 1
 352 206 l 1
 615 739 l 1
 729 739 l 1
 340 -5 l 1
 280 -5 l 1
EndSplineSet
EndChar

StartChar: percent
Encoding: 37 37 82
Width: 613
Flags: W
TeX: 115 0
LayerCount: 2
Fore
SplineSet
38 0 m 1
 595 739 l 1
 711 739 l 1
 149 0 l 1
 38 0 l 1
133 590 m 0
 149 684 228 753 309 753 c 0
 391 753 445 682 429 589 c 0
 413 498 334 427 252 427 c 0
 169 427 117 499 133 590 c 0
323 586 m 0
 335 656 302 659 291 659 c 0
 277 659 246 651 236 593 c 0
 224 526 256 521 268 521 c 0
 282 521 313 530 323 586 c 0
505 311 m 0
 587 311 640 241 624 150 c 0
 608 59 530 -12 448 -12 c 0
 366 -12 312 58 328 149 c 0
 344 240 423 311 505 311 c 0
523 147 m 0
 534 210 504 219 489 219 c 0
 473 219 441 209 430 149 c 0
 420 91 447 79 465 79 c 0
 481 79 513 88 523 147 c 0
EndSplineSet
EndChar

StartChar: J
Encoding: 74 74 83
Width: 613
Flags: W
TeX: 76 0
LayerCount: 2
Fore
SplineSet
311 639 m 1
 329 739 l 1
 698 739 l 1
 680 639 l 1
 566 639 l 1
 498 251 l 0
 489 200 480 143 439 88 c 1
 390 22 314 -13 238 -13 c 0
 169 -13 107 18 70 74 c 0
 63 84 l 1
 153 173 l 1
 163 163 l 0
 173 153 168 139 168 139 c 1
 175 130 209 91 259 91 c 0
 289 91 319 105 340 129 c 1
 368 161 377 203 384 244 c 0
 454 639 l 1
 311 639 l 1
EndSplineSet
EndChar

StartChar: K
Encoding: 75 75 84
Width: 613
Flags: W
TeX: 77 0
LayerCount: 2
Fore
SplineSet
45 0 m 1
 176 740 l 1
 304 740 l 1
 303 727 l 2
 302 711 290 701 288 698 c 0
 287 697 l 2
 287 696 286 695 286 694 c 2
 238 423 l 1
 584 747 l 1
 593 745 l 2
 611 740 630 739 650 739 c 2
 714 739 l 1
 363 417 l 1
 599 -1 l 1
 569 -1 l 2
 511 -1 464 -5 464 -5 c 1
 455 -6 l 1
 269 360 l 1
 219 316 l 1
 164 0 l 1
 45 0 l 1
EndSplineSet
EndChar

StartChar: P
Encoding: 80 80 85
Width: 613
Flags: W
TeX: 82 0
LayerCount: 2
Fore
SplineSet
416 631 m 0
 292 631 l 1
 253 415 l 1
 387 415 l 0
 415 415 442 416 469 428 c 0
 509 445 535 480 542 520 c 0
 549 560 535 599 498 617 c 1
 473 630 447 631 416 631 c 0
65 0 m 1
 195 739 l 1
 436 739 l 0
 484 739 532 738 578 713 c 1
 647 676 673 601 659 524 c 0
 645 447 594 373 513 336 c 1
 460 312 412 311 366 311 c 0
 236 311 l 1
 181 0 l 1
 65 0 l 1
EndSplineSet
EndChar

StartChar: question
Encoding: 63 63 86
Width: 613
Flags: W
TeX: 116 0
LayerCount: 2
Fore
SplineSet
347 152 m 0
 394 152 426 114 418 68 c 0
 410 22 364 -15 317 -15 c 0
 270 -15 238 22 246 68 c 0
 254 114 300 152 347 152 c 0
180 648 m 1
 189 659 l 2
 258 743 360 790 454 790 c 0
 597 790 662 683 641 565 c 0
 620 445 524 395 482 362 c 0
 430 322 423 294 416 253 c 0
 414 242 l 1
 306 242 l 1
 308 253 l 0
 318 307 330 355 396 416 c 0
 441 458 505 502 517 571 c 0
 528 633 489 681 427 681 c 0
 374 681 309 645 263 586 c 0
 250 570 l 1
 180 648 l 1
EndSplineSet
EndChar

StartChar: at
Encoding: 64 64 87
Width: 613
Flags: W
TeX: 99 0
LayerCount: 2
Fore
SplineSet
555 46 m 1
 541 38 l 2
 483 5 419 -13 358 -13 c 0
 201 -13 49 101 97 373 c 0
 144 638 326 751 464 751 c 0
 556 751 633 701 658 614 c 1
 675 555 665 497 655 442 c 0
 611 192 l 1
 509 192 l 1
 513 216 l 1
 479 194 442 182 404 182 c 0
 310 182 248 258 265 352 c 0
 277 422 332 491 417 523 c 1
 471 543 521 543 566 543 c 0
 567 543 l 1
 571 608 519 656 444 656 c 0
 353 656 232 574 197 376 c 0
 159 163 276 85 382 85 c 0
 425 85 467 97 507 121 c 0
 523 131 l 1
 555 46 l 1
551 431 m 0
 555 453 l 1
 551 453 l 0
 509 453 462 452 423 428 c 1
 392 408 374 380 370 355 c 0
 363 313 391 279 435 279 c 0
 463 279 496 294 517 324 c 1
 536 352 544 389 551 431 c 0
EndSplineSet
EndChar

StartChar: bar
Encoding: 124 124 88
Width: 613
Flags: W
TeX: 100 0
LayerCount: 2
Fore
SplineSet
215 -210 m 1
 388 774 l 1
 499 774 l 1
 325 -210 l 1
 215 -210 l 1
EndSplineSet
EndChar

StartChar: asciitilde
Encoding: 126 126 89
Width: 613
Flags: W
TeX: 99 0
LayerCount: 2
Fore
SplineSet
205 413 m 0
 194 399 l 1
 119 455 l 1
 129 468 l 0
 174 514 245 551 320 551 c 0
 428 551 453 493 506 493 c 0
 536 493 563 506 602 532 c 0
 614 545 l 1
 685 512 l 1
 676 500 l 0
 636 452 561 384 478 384 c 0
 370 384 353 448 296 448 c 0
 270 448 238 438 205 413 c 0
EndSplineSet
EndChar

StartChar: asciicircum
Encoding: 94 94 90
Width: 613
Flags: W
TeX: 99 0
LayerCount: 2
Fore
SplineSet
257 402 m 1
 177 444 l 1
 424 739 l 1
 467 739 l 1
 588 445 l 1
 489 402 l 1
 415 599 l 1
 257 402 l 1
EndSplineSet
EndChar

StartChar: cent
Encoding: 162 162 91
Width: 613
Flags: W
TeX: 101 0
LayerCount: 2
Fore
SplineSet
425 611 m 1
 466 742 l 1
 571 731 l 1
 570 719 l 0
 569 706 562 697 560 694 c 0
 555 688 556 690 554 684 c 0
 528 603 l 1
 588 587 628 554 649 511 c 0
 653 502 l 1
 570 418 l 1
 560 426 l 0
 549 435 552 448 552 449 c 0
 553 454 554 457 554 457 c 1
 554 457 553 457 553 458 c 0
 544 471 524 490 497 502 c 1
 383 138 l 1
 432 142 480 162 520 196 c 0
 535 209 l 1
 582 130 l 1
 572 121 l 0
 509 65 429 35 350 34 c 1
 310 -95 l 1
 213 -83 l 1
 253 49 l 1
 142 86 86 191 109 324 c 0
 137 481 263 598 425 611 c 1
226 334 m 0
 210 245 236 182 285 151 c 1
 397 521 l 1
 314 508 245 443 226 334 c 0
EndSplineSet
EndChar

StartChar: euro
Encoding: 8364 8364 92
Width: 613
Flags: W
TeX: 80 0
LayerCount: 2
Fore
SplineSet
691 676 m 0
 697 669 l 1
 637 559 l 1
 623 573 l 0
 608 587 615 599 615 599 c 1
 613 602 580 646 510 646 c 0
 445 646 360 614 309 510 c 0
 309 509 307 508 307 507 c 1
 603 507 l 1
 548 408 l 1
 275 408 l 1
 271 391 267 373 263 353 c 0
 262 350 262 345 262 343 c 1
 513 343 l 1
 457 244 l 1
 255 244 l 1
 258 208 266 180 281 156 c 0
 311 108 363 89 414 89 c 0
 458 89 502 104 539 133 c 0
 555 146 l 1
 589 59 l 1
 578 51 l 0
 522 9 456 -13 391 -13 c 0
 291 -13 149 40 148 244 c 1
 73 244 l 1
 113 343 l 1
 157 343 l 1
 157 345 158 346 158 347 c 0
 162 367 165 388 170 408 c 1
 102 408 l 1
 142 507 l 1
 202 507 l 1
 218 544 237 578 262 609 c 0
 344 714 454 745 532 745 c 0
 598 745 655 721 691 676 c 0
EndSplineSet
EndChar

StartChar: sterling
Encoding: 163 163 93
Width: 613
Flags: W
TeX: 118 0
LayerCount: 2
Fore
SplineSet
635 675 m 0
 644 665 l 1
 558 577 l 1
 548 586 l 0
 534 597 535 611 534 612 c 0
 532 615 507 641 463 641 c 0
 408 641 345 604 330 520 c 0
 327 502 326 483 327 464 c 1
 447 464 l 1
 430 366 l 1
 332 366 l 1
 334 334 334 305 328 271 c 0
 320 223 300 177 273 137 c 1
 276 137 275 137 277 137 c 0
 363 137 405 91 465 91 c 0
 494 91 523 102 548 120 c 0
 565 133 l 1
 595 43 l 1
 584 35 l 0
 552 13 498 -18 441 -18 c 0
 357 -18 318 35 239 35 c 0
 217 35 174 32 93 -7 c 0
 77 -15 l 1
 50 78 l 1
 65 84 l 0
 126 109 135 111 156 136 c 0
 187 173 208 218 217 267 c 0
 223 300 222 335 220 366 c 1
 139 366 l 1
 157 464 l 1
 215 464 l 1
 215 483 217 501 220 521 c 0
 244 655 364 739 482 739 c 0
 542 739 597 717 635 675 c 0
EndSplineSet
EndChar

StartChar: Y
Encoding: 89 89 94
Width: 613
Flags: W
TeX: 91 0
LayerCount: 2
Fore
SplineSet
307 291 m 1
 150 740 l 1
 278 740 l 1
 390 401 l 1
 604 739 l 1
 726 739 l 1
 428 292 l 1
 377 0 l 1
 256 0 l 1
 307 291 l 1
EndSplineSet
EndChar

StartChar: yen
Encoding: 165 165 95
Width: 613
Flags: W
TeX: 124 0
LayerCount: 2
Fore
SplineSet
321 346 m 1
 157 740 l 1
 285 740 l 1
 396 448 l 1
 596 739 l 1
 719 739 l 1
 433 346 l 1
 432 341 l 1
 592 341 l 1
 574 243 l 1
 415 243 l 1
 407 199 l 1
 566 199 l 1
 549 101 l 1
 390 101 l 1
 372 0 l 1
 260 0 l 1
 278 101 l 1
 112 101 l 1
 129 199 l 1
 295 199 l 1
 303 243 l 1
 137 243 l 1
 154 341 l 1
 320 341 l 1
 321 346 l 1
EndSplineSet
EndChar

StartChar: Z
Encoding: 90 90 96
Width: 613
Flags: W
TeX: 92 0
LayerCount: 2
Fore
SplineSet
180 634 m 1
 199 739 l 1
 687 739 l 1
 672 665 l 1
 219 103 l 1
 542 103 l 0
 550 103 556 111 575 111 c 0
 594 111 l 1
 574 -1 l 1
 54 -1 l 1
 67 73 l 1
 527 634 l 1
 180 634 l 1
EndSplineSet
EndChar

StartChar: Q
Encoding: 81 81 97
Width: 613
Flags: W
TeX: 83 0
LayerCount: 2
Fore
SplineSet
541 539 m 1
 521 616 466 641 420 641 c 0
 351 641 244 583 209 382 c 0
 170 163 255 96 329 96 c 0
 382 96 497 130 537 357 c 0
 547 416 555 482 541 539 c 1
645 604 m 1
 672 525 661 435 649 367 c 0
 638 303 618 213 563 134 c 1
 509 56 436 11 366 -5 c 1
 363 -39 370 -67 427 -67 c 0
 452 -67 484 -62 523 -60 c 0
 540 -60 l 1
 517 -172 l 1
 435 -172 l 0
 387 -172 349 -170 316 -152 c 1
 264 -124 252 -70 262 -6 c 1
 152 17 51 123 95 371 c 0
 145 657 323 748 443 748 c 0
 530 748 612 701 645 604 c 1
EndSplineSet
EndChar

StartChar: thorn
Encoding: 254 254 98
Width: 613
Flags: W
TeX: 119 0
LayerCount: 2
Fore
SplineSet
32 -198 m 1
 206 788 l 1
 331 788 l 1
 327 771 l 0
 323 748 315 746 313 734 c 0
 269 488 l 1
 318 531 378 554 437 554 c 0
 553 554 656 465 623 277 c 0
 589 82 449 -14 329 -14 c 0
 273 -14 223 8 192 45 c 1
 149 -198 l 1
 32 -198 l 1
501 260 m 0
 532 434 429 451 388 451 c 0
 338 451 290 426 265 386 c 1
 250 364 242 336 235 294 c 0
 222 221 216 182 224 152 c 1
 236 113 277 92 323 92 c 0
 369 92 475 112 501 260 c 0
EndSplineSet
EndChar

StartChar: plusminus
Encoding: 177 177 100
Width: 613
Flags: W
TeX: 115 0
LayerCount: 2
Fore
SplineSet
50 5 m 1
 69 111 l 1
 588 111 l 1
 569 5 l 1
 50 5 l 1
EndSplineSet
Refer: 28 43 N 1 0 0 1 11 61 2
EndChar

StartChar: R
Encoding: 82 82 101
Width: 613
Flags: W
TeX: 84 0
LayerCount: 2
Fore
SplineSet
61 0 m 1
 192 739 l 1
 425 739 l 0
 473 739 523 739 569 714 c 0
 636 678 663 606 650 530 c 0
 633 436 560 354 469 323 c 1
 586 0 l 1
 458 0 l 1
 350 311 l 1
 231 311 l 1
 176 0 l 1
 61 0 l 1
406 631 m 0
 287 631 l 1
 249 415 l 1
 377 415 l 0
 406 415 431 415 458 427 c 0
 498 444 525 481 532 520 c 0
 539 560 525 598 488 617 c 0
 464 629 437 631 406 631 c 0
EndSplineSet
EndChar

StartChar: X
Encoding: 88 88 102
Width: 613
Flags: W
TeX: 90 0
LayerCount: 2
Fore
SplineSet
391 476 m 1
 581 740 l 1
 699 740 l 1
 440 379 l 1
 591 0 l 1
 463 0 l 1
 357 277 l 1
 159 0 l 1
 33 0 l 1
 310 377 l 1
 167 740 l 1
 291 740 l 1
 391 476 l 1
EndSplineSet
EndChar

StartChar: six
Encoding: 54 54 103
Width: 613
Flags: W
TeX: 118 0
LayerCount: 2
Fore
SplineSet
206 562 m 1
 276 691 388 748 483 748 c 0
 547 748 605 721 643 675 c 0
 651 665 l 1
 560 581 l 1
 550 589 l 0
 535 602 536 617 536 617 c 0
 534 620 509 643 465 643 c 0
 422 643 317 623 267 436 c 1
 310 472 363 493 416 493 c 0
 530 493 617 399 590 243 c 0
 563 88 440 -12 318 -12 c 0
 247 -12 182 22 148 89 c 0
 111 162 119 254 134 338 c 0
 146 407 167 491 206 562 c 1
477 238 m 0
 497 353 439 389 389 389 c 0
 343 389 286 357 245 305 c 1
 243 297 241 291 240 283 c 0
 220 169 269 92 340 92 c 0
 393 92 459 135 477 238 c 0
EndSplineSet
EndChar

StartChar: nine
Encoding: 57 57 104
Width: 613
Flags: W
TeX: 113 0
LayerCount: 2
Fore
SplineSet
541 163 m 1
 473 44 363 -12 266 -12 c 0
 200 -12 143 14 104 60 c 0
 95 70 l 1
 186 154 l 1
 196 147 l 0
 213 134 211 118 211 118 c 1
 214 115 242 94 287 94 c 0
 335 94 394 116 434 178 c 1
 442 192 463 228 483 305 c 1
 440 271 389 253 338 253 c 0
 221 253 137 349 163 494 c 0
 189 640 309 746 435 746 c 0
 518 746 600 697 621 582 c 1
 630 532 627 468 611 378 c 0
 590 260 560 197 541 163 c 1
275 497 m 0
 258 399 309 356 365 356 c 0
 411 356 465 385 504 432 c 1
 507 444 508 452 510 461 c 0
 531 578 479 642 414 642 c 0
 357 642 292 594 275 497 c 0
EndSplineSet
EndChar

StartChar: seven
Encoding: 55 55 105
Width: 613
Flags: W
TeX: 118 0
LayerCount: 2
Fore
SplineSet
199 630 m 1
 218 739 l 1
 668 739 l 1
 657 677 l 1
 655 674 l 0
 586 564 520 454 457 342 c 0
 395 233 337 122 281 10 c 0
 276 0 l 1
 150 0 l 1
 160 19 l 0
 226 146 296 272 368 397 c 0
 413 475 461 554 508 630 c 1
 199 630 l 1
EndSplineSet
EndChar

StartChar: W
Encoding: 87 87 106
Width: 613
Flags: W
TeX: 89 0
LayerCount: 2
Fore
SplineSet
135 -5 m 1
 143 739 l 1
 251 739 l 1
 244 298 l 1
 415 685 l 1
 464 685 l 1
 500 300 l 1
 636 739 l 1
 737 739 l 1
 484 -5 l 1
 427 -5 l 1
 389 438 l 1
 194 -5 l 1
 135 -5 l 1
EndSplineSet
EndChar

StartChar: acute
Encoding: 180 180 107
Width: 613
Flags: W
TeX: 80 0
LayerCount: 2
Fore
SplineSet
343 635 m 1
 499 836 l 1
 588 768 l 1
 418 584 l 1
 343 635 l 1
EndSplineSet
EndChar

StartChar: oslash
Encoding: 248 248 123
Width: 613
Flags: W
TeX: 114 0
LayerCount: 2
Fore
SplineSet
427 444 m 1
 413 449 402 451 388 451 c 0
 315 451 231 386 209 259 c 0
 201 214 204 176 213 147 c 1
 427 444 l 1
573 487 m 1
 616 438 636 365 619 269 c 0
 588 91 448 -14 310 -14 c 0
 274 -14 239 -6 211 7 c 1
 147 -81 l 1
 66 -35 l 1
 137 60 l 1
 94 111 75 182 90 266 c 0
 119 432 265 554 413 554 c 0
 442 554 470 548 496 538 c 1
 555 621 l 1
 637 573 l 1
 573 487 l 1
504 280 m 0
 513 333 510 374 499 405 c 1
 279 102 l 1
 296 94 311 90 329 90 c 0
 398 90 481 150 504 280 c 0
EndSplineSet
EndChar

StartChar: uni02CB
Encoding: 715 715 130
Width: 613
Flags: W
TeX: 80 0
LayerCount: 2
Fore
SplineSet
338 768 m 1
 451 836 l 1
 536 635 l 1
 443 584 l 1
 338 768 l 1
EndSplineSet
EndChar

StartChar: dotlessi
Encoding: 305 305 136
Width: 613
Flags: W
TeX: 80 0
LayerCount: 2
Fore
SplineSet
332 442 m 1
 201 442 l 1
 219 543 l 1
 467 543 l 1
 397 172 l 1
 395 160 393 147 393 136 c 0
 393 113 398 105 418 105 c 0
 442 105 463 110 494 112 c 0
 514 113 l 1
 492 0 l 1
 424 0 l 0
 386 0 346 1 318 20 c 1
 273 49 268 103 280 165 c 0
 280 167 281 168 281 170 c 0
 332 442 l 1
EndSplineSet
EndChar

StartChar: circumflex
Encoding: 710 710 137
Width: 613
Flags: W
TeX: 80 0
LayerCount: 2
Fore
SplineSet
316 567 m 1
 259 629 l 1
 437 813 l 1
 478 813 l 1
 590 627 l 1
 499 567 l 1
 431 686 l 1
 316 567 l 1
EndSplineSet
EndChar

StartChar: tilde
Encoding: 732 732 138
Width: 613
Flags: W
TeX: 80 0
LayerCount: 2
Fore
SplineSet
302 669 m 0
 291 655 l 1
 222 711 l 1
 232 723 l 0
 286 774 339 802 393 802 c 0
 449 802 480 776 493 766 c 0
 510 753 523 744 537 744 c 0
 555 744 568 753 599 770 c 0
 612 785 l 1
 671 745 l 1
 661 735 l 0
 611 684 569 645 516 645 c 0
 434 645 409 704 373 704 c 0
 352 704 336 695 302 669 c 0
EndSplineSet
EndChar

StartChar: dieresis
Encoding: 168 168 139
Width: 613
Flags: W
TeX: 80 0
LayerCount: 2
Fore
SplineSet
472 712 m 0
 479 754 520 789 562 789 c 0
 604 789 632 754 625 712 c 0
 618 670 577 636 535 636 c 0
 493 636 465 670 472 712 c 0
241 712 m 0
 248 754 288 788 330 788 c 0
 372 788 400 754 393 712 c 0
 386 670 345 636 303 636 c 0
 261 636 234 670 241 712 c 0
EndSplineSet
EndChar

StartChar: germandbls
Encoding: 223 223 144
Width: 613
Flags: W
TeX: 105 0
LayerCount: 2
Fore
SplineSet
172 0 m 1
 60 0 l 1
 148 494 l 0
 157 546 167 600 202 656 c 0
 256 744 347 794 434 794 c 0
 561 794 646 691 625 569 c 0
 614 509 576 456 523 422 c 1
 596 385 631 307 615 218 c 0
 592 88 471 -12 341 -12 c 0
 294 -12 252 1 217 27 c 0
 205 35 l 1
 281 129 l 1
 293 119 l 0
 310 103 333 94 359 94 c 0
 425 94 493 149 506 222 c 0
 515 275 493 321 457 345 c 0
 430 363 402 366 364 366 c 0
 313 366 l 1
 330 458 l 1
 379 458 l 0
 397 458 410 458 428 465 c 0
 469 481 506 525 514 572 c 0
 526 642 482 694 421 694 c 0
 387 694 348 678 317 642 c 0
 279 600 268 545 259 495 c 0
 172 0 l 1
EndSplineSet
EndChar

StartChar: paragraph
Encoding: 182 182 145
Width: 613
Flags: W
TeX: 115 0
LayerCount: 2
Fore
SplineSet
508 790 m 0
 692 790 l 1
 539 -81 l 1
 439 -81 l 1
 576 691 l 1
 496 691 l 1
 359 -81 l 1
 258 -81 l 1
 337 367 l 1
 219 381 144 472 163 580 c 0
 176 656 236 728 326 763 c 0
 391 789 453 790 508 790 c 0
EndSplineSet
EndChar

StartChar: section
Encoding: 167 167 146
Width: 613
Flags: W
TeX: 118 0
LayerCount: 2
Fore
SplineSet
634 684 m 0
 638 674 l 1
 539 598 l 1
 531 605 l 0
 517 617 522 637 522 637 c 0
 518 659 494 696 439 696 c 0
 383 696 340 661 333 623 c 0
 330 605 332 576 375 552 c 0
 403 536 446 526 492 503 c 0
 571 463 593 409 585 361 c 0
 577 313 539 273 491 248 c 1
 527 212 539 164 531 118 c 0
 514 20 408 -65 281 -65 c 0
 197 -65 122 -26 82 43 c 0
 77 53 l 1
 170 143 l 1
 180 139 l 0
 199 131 193 110 193 110 c 1
 195 102 222 45 301 45 c 0
 367 45 409 83 416 120 c 0
 420 141 414 167 381 188 c 0
 341 213 273 218 216 254 c 0
 165 286 147 332 155 377 c 0
 164 428 206 471 257 495 c 1
 218 531 208 577 216 620 c 0
 233 716 338 797 456 797 c 0
 540 797 607 753 634 684 c 0
416 421 m 0
 392 434 358 442 325 456 c 1
 300 446 281 425 276 399 c 0
 272 378 277 347 318 325 c 0
 346 310 385 304 424 288 c 1
 444 300 458 319 462 342 c 0
 466 364 462 396 416 421 c 0
EndSplineSet
EndChar

StartChar: copyright
Encoding: 169 169 147
Width: 613
Flags: W
TeX: 101 0
LayerCount: 2
Fore
SplineSet
189 327 m 0
 208 437 309 518 413 518 c 0
 494 518 549 467 554 397 c 0
 555 384 l 1
 465 351 l 1
 459 360 l 0
 449 375 457 390 457 390 c 0
 457 394 449 428 399 428 c 0
 349 428 298 399 287 335 c 0
 276 270 312 222 364 222 c 0
 395 222 427 239 447 267 c 0
 458 282 l 1
 528 230 l 1
 517 217 l 0
 472 163 406 129 342 129 c 0
 236 129 170 220 189 327 c 0
671 311 m 0
 640 133 478 -8 312 -8 c 0
 146 -8 35 133 66 310 c 0
 97 488 259 629 425 629 c 0
 591 629 702 488 671 311 c 0
412 548 m 0
 294 548 175 445 151 310 c 0
 127 176 209 74 328 74 c 0
 446 74 565 176 589 311 c 0
 613 445 530 548 412 548 c 0
EndSplineSet
EndChar

StartChar: registered
Encoding: 174 174 148
Width: 613
Flags: W
TeX: 117 0
LayerCount: 2
Fore
SplineSet
385 440 m 2
 342 440 l 1
 329 367 l 1
 375 367 l 2
 395 367 415 367 430 376 c 2
 430 377 l 1
 431 377 l 2
 443 383 449 392 451 403 c 0
 453 413 449 424 437 432 c 0
 425 440 405 440 385 440 c 2
269 512 m 1
 211 469 168 403 154 326 c 0
 130 192 212 89 331 89 c 0
 386 89 441 112 487 149 c 1
 416 139 l 1
 368 289 l 1
 315 289 l 1
 289 142 l 1
 204 142 l 1
 269 512 l 1
671 310 m 0
 640 132 478 -8 312 -8 c 0
 146 -8 35 132 66 309 c 0
 97 487 258 629 425 629 c 0
 591 629 702 488 671 310 c 0
412 548 m 0
 365 548 318 532 277 504 c 1
 395 504 l 2
 422 504 452 504 481 491 c 0
 523 471 540 430 533 388 c 0
 525 345 492 307 452 289 c 1
 500 148 l 1
 544 190 578 247 589 311 c 0
 613 445 531 548 412 548 c 0
EndSplineSet
EndChar

StartChar: uni00B9
Encoding: 185 185 149
Width: 613
Flags: W
TeX: 120 0
LayerCount: 2
Fore
SplineSet
512 751 m 1
 433 300 l 1
 326 300 l 1
 386 637 l 1
 274 609 l 1
 252 670 l 1
 442 751 l 1
 512 751 l 1
EndSplineSet
EndChar

StartChar: guilsinglleft
Encoding: 8249 8249 150
Width: 613
Flags: W
TeX: 80 0
LayerCount: 2
Fore
SplineSet
221 307 m 1
 449 486 l 1
 503 415 l 1
 337 285 l 1
 461 130 l 1
 380 61 l 1
 214 266 l 1
 221 307 l 1
EndSplineSet
EndChar

StartChar: guilsinglright
Encoding: 8250 8250 152
Width: 613
Flags: W
TeX: 80 0
LayerCount: 2
Fore
SplineSet
486 307 m 1
 479 266 l 1
 241 61 l 1
 184 130 l 1
 363 285 l 1
 242 415 l 1
 322 486 l 1
 486 307 l 1
EndSplineSet
EndChar

StartChar: guillemotright
Encoding: 187 187 153
Width: 613
Flags: W
TeX: 105 0
LayerCount: 2
Fore
SplineSet
394 307 m 1
 387 266 l 1
 148 61 l 1
 92 130 l 1
 271 285 l 1
 150 415 l 1
 230 486 l 1
 394 307 l 1
609 307 m 1
 602 266 l 1
 363 61 l 1
 307 130 l 1
 486 285 l 1
 365 415 l 1
 445 486 l 1
 609 307 l 1
EndSplineSet
EndChar

StartChar: logicalnot
Encoding: 172 172 154
Width: 613
Flags: W
TeX: 111 0
LayerCount: 2
Fore
SplineSet
160 322 m 1
 179 427 l 1
 592 427 l 1
 547 171 l 1
 441 171 l 1
 467 322 l 1
 160 322 l 1
EndSplineSet
EndChar

StartChar: degree
Encoding: 176 176 156
Width: 613
Flags: W
TeX: 102 0
LayerCount: 2
Fore
SplineSet
447 758 m 0
 544 758 610 686 595 598 c 0
 580 510 488 439 391 439 c 0
 294 439 229 511 244 599 c 0
 259 687 350 758 447 758 c 0
494 600 m 0
 501 637 471 665 432 665 c 0
 393 665 354 637 347 600 c 0
 340 563 370 535 409 535 c 0
 448 535 487 563 494 600 c 0
EndSplineSet
EndChar

StartChar: uni00B2
Encoding: 178 178 157
Width: 613
Flags: W
TeX: 120 0
LayerCount: 2
Fore
SplineSet
234 637 m 1
 244 650 l 2
 294 717 373 756 450 756 c 0
 551 756 614 698 601 625 c 0
 591 569 541 531 521 517 c 0
 471 477 411 449 346 395 c 1
 526 395 l 0
 528 395 l 1
 529 396 528 395 529 396 c 0
 530 397 545 411 562 405 c 0
 571 401 l 1
 554 300 l 1
 191 300 l 1
 204 373 l 1
 208 377 l 0
 291 462 389 515 428 540 c 0
 467 565 492 588 496 613 c 0
 500 638 481 664 431 664 c 0
 391 664 352 643 330 620 c 0
 326 616 327 613 317 598 c 0
 306 583 l 1
 234 637 l 1
EndSplineSet
EndChar

StartChar: eth
Encoding: 240 240 158
Width: 613
Flags: W
TeX: 103 0
LayerCount: 2
Fore
SplineSet
503 275 m 0
 528 420 446 451 392 451 c 0
 321 451 234 397 212 275 c 0
 191 153 254 90 329 90 c 0
 387 90 477 129 503 275 c 0
664 680 m 1
 564 653 l 1
 618 572 653 458 625 301 c 0
 614 239 593 164 541 99 c 0
 482 25 396 -14 312 -14 c 0
 166 -14 60 103 89 265 c 0
 117 426 261 554 403 554 c 0
 439 554 473 545 500 528 c 1
 487 563 470 594 450 622 c 1
 287 578 l 1
 270 664 l 1
 385 694 l 1
 359 716 332 734 301 749 c 0
 261 768 l 1
 415 799 l 1
 419 796 l 0
 446 779 478 755 507 725 c 1
 646 762 l 1
 664 680 l 1
EndSplineSet
EndChar

StartChar: Eth
Encoding: 208 208 159
Width: 613
Flags: W
TeX: 71 0
LayerCount: 2
Fore
SplineSet
166 441 m 1
 218 739 l 1
 400 739 l 0
 465 739 520 733 568 694 c 1
 651 627 666 497 644 374 c 0
 617 220 530 77 399 22 c 1
 350 2 308 -1 255 -1 c 0
 88 -1 l 1
 148 342 l 1
 91 342 l 1
 109 441 l 1
 166 441 l 1
380 342 m 1
 256 342 l 1
 213 98 l 1
 268 98 l 0
 310 98 345 100 388 125 c 0
 460 167 513 256 532 364 c 0
 546 441 542 524 510 578 c 0
 474 638 423 639 377 639 c 0
 308 639 l 1
 273 441 l 1
 397 441 l 1
 380 342 l 1
EndSplineSet
EndChar

StartChar: Thorn
Encoding: 222 222 160
Width: 613
Flags: W
TeX: 86 0
LayerCount: 2
Fore
SplineSet
65 0 m 1
 195 739 l 1
 314 739 l 1
 316 729 l 0
 317 726 317 722 316 719 c 0
 314 706 305 699 303 697 c 0
 301 695 302 696 301 692 c 0
 286 604 l 1
 412 604 l 0
 460 604 508 602 554 577 c 0
 623 539 648 463 634 386 c 0
 620 308 569 234 488 197 c 0
 435 173 388 172 342 172 c 0
 210 172 l 1
 179 0 l 1
 65 0 l 1
395 507 m 0
 269 507 l 1
 228 275 l 1
 363 275 l 0
 392 275 417 276 444 289 c 0
 484 308 512 346 519 388 c 0
 527 431 513 473 476 493 c 0
 452 506 426 507 395 507 c 0
EndSplineSet
EndChar

StartChar: ring
Encoding: 730 730 161
Width: 613
Flags: W
TeX: 80 0
LayerCount: 2
Fore
SplineSet
459 822 m 0
 523 822 565 774 555 715 c 0
 545 656 485 607 421 607 c 0
 357 607 316 656 326 715 c 0
 336 774 395 822 459 822 c 0
450 761 m 0
 427 761 403 742 398 716 c 0
 393 690 411 671 434 671 c 0
 457 671 480 690 485 716 c 0
 490 742 473 761 450 761 c 0
EndSplineSet
EndChar

StartChar: circumflex.cap
Encoding: 65536 -1 190
Width: 613
Flags: W
TeX: 80 0
LayerCount: 2
Fore
SplineSet
282 600 m 1
 240 662 l 1
 436 793 l 1
 472 793 l 1
 612 664 l 1
 542 596 l 1
 431 682 l 1
 282 600 l 1
EndSplineSet
EndChar

StartChar: ae
Encoding: 230 230 192
Width: 613
Flags: W
TeX: 99 0
LayerCount: 2
Fore
SplineSet
148 -11 m 0
 68 2 18 72 33 154 c 0
 45 217 93 281 179 315 c 1
 229 334 274 337 303 338 c 1
 318 338 l 1
 321 355 l 0
 325 375 327 393 324 408 c 1
 318 439 294 457 264 457 c 0
 237 457 203 440 178 411 c 0
 164 395 l 1
 114 475 l 1
 122 484 l 0
 166 529 225 554 282 554 c 0
 335 554 379 531 403 494 c 1
 441 532 490 554 541 554 c 0
 550 554 559 553 567 552 c 0
 647 539 685 468 670 387 c 0
 659 328 644 290 568 269 c 0
 517 255 450 254 421 253 c 1
 404 253 l 1
 397 212 l 0
 392 185 389 166 395 145 c 1
 405 108 438 87 478 87 c 0
 508 87 538 100 561 125 c 0
 574 139 l 1
 626 64 l 1
 617 55 l 0
 574 13 516 -13 459 -13 c 0
 402 -13 352 12 322 56 c 1
 283 12 231 -13 176 -13 c 0
 166 -13 157 -13 148 -11 c 0
204 228 m 1
 167 211 145 178 140 149 c 0
 139 144 139 139 139 135 c 0
 139 99 163 75 197 75 c 0
 224 75 255 90 272 122 c 1
 280 137 284 154 288 176 c 0
 300 244 l 1
 293 244 l 1
 262 243 234 242 204 228 c 1
426 365 m 0
 425 359 423 352 422 347 c 1
 429 347 l 1
 511 351 515 351 535 357 c 0
 549 361 574 378 577 392 c 0
 578 397 578 401 578 406 c 0
 578 441 554 466 520 466 c 0
 493 466 462 451 445 419 c 1
 436 403 430 386 426 365 c 0
EndSplineSet
EndChar

StartChar: oe
Encoding: 339 339 193
Width: 613
Flags: W
TeX: 114 0
LayerCount: 2
Fore
SplineSet
190 -13 m 0
 138 -13 75 12 50 88 c 0
 30 149 41 223 52 283 c 0
 62 335 77 399 119 454 c 1
 168 520 237 553 299 553 c 0
 341 553 379 536 403 506 c 1
 440 536 485 553 530 553 c 0
 591 553 655 521 670 443 c 0
 673 425 673 398 670 384 c 0
 657 324 635 286 580 267 c 0
 530 250 481 247 451 247 c 0
 381 247 l 1
 370 183 368 156 375 134 c 1
 385 96 417 80 457 80 c 0
 489 80 528 90 562 120 c 0
 576 132 l 1
 626 58 l 1
 616 50 l 0
 566 9 505 -14 443 -14 c 0
 395 -14 350 2 316 30 c 1
 279 3 233 -13 190 -13 c 0
156 288 m 0
 149 252 141 198 148 158 c 1
 155 104 186 90 213 90 c 0
 239 90 264 104 267 121 c 0
 269 130 264 186 282 282 c 0
 298 364 317 407 319 420 c 0
 323 438 311 451 286 451 c 0
 259 451 223 433 196 394 c 1
 171 359 162 319 156 288 c 0
423 402 m 1
 419 394 408 373 399 331 c 1
 471 334 509 335 526 340 c 0
 539 344 570 367 572 380 c 0
 573 384 573 388 573 392 c 0
 573 428 544 458 509 458 c 0
 483 458 447 445 423 402 c 1
EndSplineSet
EndChar

StartChar: acute.cap
Encoding: 65538 -1 194
Width: 613
Flags: W
TeX: 80 0
LayerCount: 2
Fore
SplineSet
320 712 m 1
 544 803 l 1
 593 722 l 1
 348 639 l 1
 320 712 l 1
EndSplineSet
EndChar

StartChar: grave.cap
Encoding: 65539 -1 195
Width: 613
Flags: W
TeX: 80 0
LayerCount: 2
Fore
SplineSet
314 722 m 1
 392 803 l 1
 584 712 l 1
 529 639 l 1
 314 722 l 1
EndSplineSet
EndChar

StartChar: ordfeminine
Encoding: 170 170 196
Width: 613
Flags: W
TeX: 114 0
LayerCount: 2
Fore
SplineSet
251 657 m 1
 262 666 l 2
 318 719 387 738 446 738 c 0
 514 738 571 711 588 652 c 1
 597 622 591 591 586 560 c 0
 540 300 l 1
 435 300 l 1
 439 323 l 1
 401 301 360 290 321 290 c 0
 232 290 178 350 190 421 c 0
 197 463 230 509 289 537 c 1
 342 563 397 564 447 564 c 0
 458 564 468 564 478 564 c 0
 480 564 l 1
 484 586 487 600 479 616 c 0
 472 632 455 644 422 644 c 0
 384 644 344 630 315 598 c 0
 300 582 l 1
 251 657 l 1
466 468 m 0
 467 472 l 1
 463 472 l 0
 449 472 433 472 418 472 c 0
 399 472 380 472 364 470 c 1
 317 463 301 440 298 425 c 0
 295 405 312 385 351 385 c 0
 382 385 414 398 435 413 c 1
 459 430 462 445 466 468 c 0
114 165 m 1
 131 260 l 1
 576 260 l 1
 560 165 l 1
 114 165 l 1
EndSplineSet
EndChar

StartChar: ordmasculine
Encoding: 186 186 197
Width: 613
Flags: W
TeX: 114 0
LayerCount: 2
Fore
SplineSet
197 505 m 0
 221 643 330 738 439 738 c 0
 534 738 613 663 588 519 c 0
 561 364 449 289 353 289 c 0
 249 289 174 373 197 505 c 0
416 641 m 0
 373 641 317 603 301 511 c 0
 285 423 330 388 372 388 c 0
 413 388 469 420 485 511 c 0
 501 602 459 641 416 641 c 0
114 165 m 1
 131 260 l 1
 576 260 l 1
 560 165 l 1
 114 165 l 1
EndSplineSet
EndChar

StartChar: uni02C9
Encoding: 713 713 198
Width: 613
Flags: W
TeX: 80 0
LayerCount: 2
Fore
SplineSet
254 640 m 1
 271 737 l 1
 603 737 l 1
 586 640 l 1
 254 640 l 1
EndSplineSet
EndChar

StartChar: cedilla
Encoding: 184 184 201
Width: 613
Flags: W
TeX: 80 0
LayerCount: 2
Fore
SplineSet
280 -114 m 1
 315 0 l 1
 379 0 l 1
 363 -54 l 1
 376 -54 l 1
 391 -55 408 -56 423 -63 c 1
 446 -75 455 -97 451 -121 c 0
 443 -165 389 -210 300 -210 c 0
 254 -210 204 -197 164 -165 c 0
 160 -161 l 1
 207 -101 l 1
 212 -106 l 0
 243 -135 283 -146 318 -146 c 0
 362 -146 368 -134 369 -130 c 0
 370 -126 368 -122 361 -119 c 0
 361 -119 l 1
 361 -119 l 0
 352 -114 335 -114 322 -114 c 0
 280 -114 l 1
EndSplineSet
EndChar

StartChar: uni00B3
Encoding: 179 179 204
Width: 613
Flags: W
TeX: 120 0
LayerCount: 2
Fore
SplineSet
266 678 m 0
 318 729 385 757 449 757 c 0
 544 757 610 702 598 633 c 0
 592 601 570 573 541 555 c 1
 577 534 594 495 586 450 c 0
 570 360 464 298 365 298 c 0
 296 298 235 328 199 380 c 0
 192 390 l 1
 282 474 l 1
 291 462 l 0
 305 444 299 434 302 430 c 0
 306 425 333 395 383 395 c 0
 437 395 478 427 483 457 c 0
 485 470 487 507 403 507 c 0
 391 507 380 506 369 505 c 0
 352 503 l 1
 368 596 l 1
 385 595 l 0
 392 594 400 594 407 594 c 0
 480 594 494 614 496 626 c 0
 499 643 476 664 429 664 c 0
 394 664 353 646 322 614 c 0
 309 600 l 1
 256 667 l 1
 266 678 l 0
EndSplineSet
EndChar

StartChar: divide
Encoding: 247 247 205
Width: 613
Flags: W
TeX: 102 0
LayerCount: 2
Fore
SplineSet
135 318 m 1
 154 428 l 1
 612 428 l 1
 593 318 l 1
 135 318 l 1
420 607 m 0
 458 607 484 577 477 539 c 0
 470 501 434 470 396 470 c 0
 358 470 333 501 340 539 c 0
 347 577 382 607 420 607 c 0
359 257 m 0
 397 257 422 226 415 188 c 0
 408 150 372 120 334 120 c 0
 296 120 271 150 278 188 c 0
 285 226 321 257 359 257 c 0
EndSplineSet
EndChar

StartChar: Oslash
Encoding: 216 216 206
Width: 613
Flags: W
TeX: 81 0
LayerCount: 2
Fore
SplineSet
497 608 m 1
 473 631 446 639 420 639 c 0
 353 639 245 582 207 366 c 0
 194 292 195 234 203 192 c 1
 497 608 l 1
645 606 m 0
 673 526 662 435 650 368 c 0
 639 305 618 214 563 134 c 0
 494 34 396 -11 310 -11 c 0
 268 -11 223 1 184 29 c 1
 107 -80 l 1
 26 -34 l 1
 121 96 l 1
 87 158 73 246 95 370 c 0
 145 656 324 748 443 748 c 0
 488 748 532 735 568 708 c 1
 639 808 l 1
 721 760 l 1
 631 637 l 1
 637 626 641 617 645 606 c 0
537 373 m 0
 546 427 554 485 547 538 c 1
 255 129 l 1
 278 109 304 100 330 100 c 0
 374 100 429 125 473 192 c 0
 512 252 529 325 537 373 c 0
EndSplineSet
EndChar

StartChar: multiply
Encoding: 215 215 207
Width: 613
Flags: W
TeX: 112 0
LayerCount: 2
Fore
SplineSet
570 607 m 1
 636 534 l 1
 456 386 l 1
 578 226 l 1
 488 150 l 1
 366 308 l 1
 192 155 l 1
 129 229 l 1
 307 385 l 1
 183 532 l 1
 275 608 l 1
 394 453 l 1
 570 607 l 1
EndSplineSet
EndChar

StartChar: AE
Encoding: 198 198 208
Width: 613
Flags: W
TeX: 67 0
LayerCount: 2
Fore
SplineSet
-6 0 m 1
 367 740 l 1
 731 740 l 1
 712 636 l 1
 506 636 l 1
 474 439 l 1
 647 439 l 1
 628 333 l 1
 456 333 l 1
 418 104 l 1
 615 104 l 1
 597 0 l 1
 294 0 l 1
 327 185 l 1
 199 185 l 1
 102 0 l 1
 -6 0 l 1
344 285 m 1
 401 608 l 1
 243 285 l 1
 344 285 l 1
EndSplineSet
EndChar

StartChar: OE
Encoding: 338 338 209
Width: 613
Flags: W
TeX: 81 0
LayerCount: 2
Fore
SplineSet
345 750 m 0
 375 750 402 740 423 724 c 1
 425 740 l 1
 731 740 l 1
 712 636 l 1
 511 636 l 1
 477 439 l 1
 647 439 l 1
 628 333 l 1
 458 333 l 1
 418 104 l 1
 615 104 l 1
 597 0 l 1
 294 0 l 1
 297 17 l 1
 270 0 241 -8 211 -8 c 0
 145 -8 75 36 59 147 c 1
 57 162 48 236 72 371 c 0
 89 467 112 551 158 626 c 0
 215 718 291 750 345 750 c 0
236 571 m 1
 225 552 201 501 180 384 c 0
 174 352 155 237 173 164 c 0
 188 106 219 95 239 95 c 0
 271 95 304 123 323 167 c 1
 393 563 l 1
 387 603 367 650 328 650 c 0
 303 650 267 630 236 571 c 1
EndSplineSet
EndChar

StartChar: currency
Encoding: 164 164 210
Width: 613
Flags: W
TeX: 80 0
LayerCount: 2
Fore
SplineSet
483 402 m 0
 492 455 453 498 396 498 c 0
 339 498 284 455 275 402 c 0
 266 349 305 306 362 306 c 0
 419 306 474 349 483 402 c 0
226 502 m 1
 170 568 l 1
 245 632 l 1
 301 563 l 1
 337 583 374 594 413 594 c 0
 451 594 484 583 512 564 c 1
 592 632 l 1
 644 568 l 1
 565 504 l 1
 580 473 586 438 579 401 c 0
 572 364 554 329 530 300 c 1
 585 235 l 1
 511 173 l 1
 455 239 l 1
 421 220 383 210 345 210 c 0
 305 210 271 222 244 240 c 1
 164 173 l 1
 111 235 l 1
 191 301 l 1
 177 331 173 364 179 401 c 0
 186 438 202 473 226 502 c 1
EndSplineSet
EndChar

StartChar: brokenbar
Encoding: 166 166 211
Width: 613
Flags: W
TeX: 80 0
LayerCount: 2
Fore
SplineSet
308 319 m 1
 388 774 l 1
 499 774 l 1
 419 319 l 1
 308 319 l 1
406 248 m 1
 328 -195 l 1
 218 -195 l 1
 296 248 l 1
 406 248 l 1
EndSplineSet
EndChar

StartChar: ogonek
Encoding: 731 731 214
Width: 613
Flags: W
TeX: 80 0
LayerCount: 2
Fore
SplineSet
428 -1 m 0
 430 0 l 1
 527 0 l 1
 513 -11 l 0
 468 -44 434 -73 422 -83 c 0
 412 -92 399 -103 397 -117 c 0
 395 -131 403 -142 421 -142 c 0
 427 -142 436 -140 449 -136 c 0
 468 -130 481 -122 489 -116 c 0
 500 -108 l 1
 488 -178 l 1
 485 -180 l 0
 457 -201 424 -209 394 -209 c 0
 330 -209 301 -176 308 -135 c 0
 315 -96 358 -49 428 -1 c 0
EndSplineSet
EndChar

StartChar: dotaccent
Encoding: 729 729 222
Width: 613
Flags: W
TeX: 80 0
LayerCount: 2
Fore
SplineSet
359 702 m 0
 366 744 407 778 449 778 c 0
 491 778 519 744 512 702 c 0
 505 660 464 626 422 626 c 0
 380 626 352 660 359 702 c 0
EndSplineSet
EndChar

StartChar: breve
Encoding: 728 728 241
Width: 613
Flags: W
LayerCount: 2
Fore
SplineSet
312 778 m 1
 320 760 l 2
 340 728 379 698 430 698 c 0
 473 698 523 720 569 760 c 0
 585 777 l 1
 625 707 l 1
 617 699 l 0
 565 646 492 606 414 606 c 0
 344 606 281 640 241 695 c 0
 234 704 l 1
 312 778 l 1
EndSplineSet
EndChar

StartChar: eng
Encoding: 331 331 242
Width: 613
Flags: W
LayerCount: 2
Fore
SplineSet
191 0 m 1
 73 0 l 1
 143 377 l 0
 156 448 149 501 138 520 c 0
 128 539 l 1
 263 555 l 1
 267 543 l 0
 269 536 274 513 273 471 c 1
 322 518 389 555 456 555 c 0
 524 555 581 518 599 453 c 0
 612 407 602 362 595 322 c 0
 549 72 l 0
 540 25 531 -25 500 -76 c 0
 450 -161 366 -209 285 -209 c 0
 240 -209 198 -193 166 -165 c 0
 156 -156 l 1
 224 -56 l 1
 234 -59 l 0
 251 -63 253 -80 253 -82 c 1
 259 -87 276 -98 301 -98 c 0
 329 -98 361 -84 387 -53 c 0
 417 -19 426 24 433 64 c 0
 481 322 l 0
 488 359 494 397 475 424 c 0
 463 441 443 450 420 450 c 0
 370 450 312 408 288 384 c 0
 262 358 254 337 248 304 c 0
 191 0 l 1
EndSplineSet
EndChar

StartChar: dcaron
Encoding: 271 271 245
Width: 613
Flags: W
LayerCount: 2
Fore
SplineSet
515 30 m 0
 507 0 l 1
 385 -6 l 1
 384 9 l 1
 384 10 382 37 382 73 c 1
 333 25 265 -12 203 -12 c 0
 192 -12 181 -11 171 -9 c 0
 70 7 13 104 45 278 c 0
 86 501 314 543 371 543 c 0
 400 543 437 532 457 526 c 1
 503 790 l 1
 625 790 l 1
 622 772 l 0
 620 758 611 750 609 747 c 0
 605 742 606 743 605 738 c 0
 583 616 524 293 501 168 c 1
 488 95 506 48 515 30 c 0
355 459 m 0
 303 459 182 413 161 302 c 0
 155 270 152 242 152 218 c 0
 152 115 195 94 236 94 c 0
 286 94 344 128 374 188 c 0
 388 215 401 244 408 283 c 0
 436 442 l 1
 416 448 380 459 355 459 c 0
EndSplineSet
Refer: 56 8217 N 0.8 0 0 0.8 348 191 2
EndChar

StartChar: eogonek
Encoding: 281 281 246
Width: 613
Flags: W
LayerCount: 2
Fore
SplineSet
99 269 m 0
 135 462 277 555 395 555 c 0
 505 555 540 539 570 513 c 0
 606 482 620 436 612 390 c 0
 600 325 548 290 456 259 c 0
 384 235 305 234 230 234 c 2
 212 234 l 1
 189 97 284 87 345 87 c 0
 396 87 478 108 516 144 c 2
 528 155 l 1
 586 86 l 1
 576 76 l 1
 576 76 l 2
 575 75 l 2
 520 19 l 2
 470 -32 428 -69 423 -100 c 0
 419 -124 432 -140 456 -140 c 0
 461 -140 480 -140 517 -119 c 2
 528 -113 l 1
 513 -186 l 1
 510 -188 l 2
 485 -201 454 -210 425 -210 c 0
 363 -210 328 -167 337 -115 c 0
 342 -88 382 -39 418 -2 c 1
 386 -9 354 -12 326 -12 c 0
 307 -12 288 -11 271 -8 c 0
 145 13 70 112 99 269 c 0
228 331 m 1
 247 331 266 330 286 330 c 0
 326 330 368 332 399 338 c 0
 470 353 490 364 495 391 c 0
 496 395 496 398 496 402 c 0
 496 431 473 459 413 459 c 0
 348 459 256 425 228 331 c 1
EndSplineSet
EndChar

StartChar: dotlessj
Encoding: 567 567 259
Width: 613
Flags: W
LayerCount: 2
Fore
SplineSet
222 441 m 1
 240 543 l 1
 559 543 l 1
 471 47 l 0
 463 2 454 -43 421 -90 c 0
 367 -168 279 -207 197 -207 c 0
 125 -207 67 -177 34 -125 c 0
 28 -116 l 1
 117 -20 l 1
 127 -30 l 0
 139 -41 137 -56 137 -56 c 0
 139 -60 163 -102 221 -102 c 0
 261 -102 301 -81 326 -43 c 0
 342 -19 347 5 352 32 c 0
 424 441 l 1
 222 441 l 1
EndSplineSet
EndChar

StartChar: kgreenlandic
Encoding: 312 312 260
Width: 613
Flags: W
LayerCount: 2
Fore
SplineSet
188 -1 m 1
 71 -1 l 1
 141 376 l 0
 154 447 147 500 136 519 c 0
 126 538 l 1
 261 554 l 1
 265 542 l 0
 268 531 277 477 265 408 c 1
 249 315 l 1
 539 546 l 1
 546 544 l 0
 564 539 585 539 605 539 c 0
 679 539 l 1
 390 318 l 1
 607 -1 l 1
 578 -1 l 0
 575 -1 574 -1 570 -1 c 1
 530 -1 499 -3 482 -4 c 0
 467 -9 l 1
 291 264 l 1
 225 212 l 1
 188 -1 l 1
EndSplineSet
EndChar

StartChar: uparrow
Encoding: 8593 8593 266
Width: 613
Flags: W
LayerCount: 2
Fore
SplineSet
143 477 m 1
 429 760 l 1
 469 760 l 1
 639 473 l 1
 544 416 l 1
 463 561 l 1
 356 -40 l 1
 247 -40 l 1
 354 565 l 1
 207 416 l 1
 143 477 l 1
EndSplineSet
EndChar

StartChar: visiblespace
Encoding: 9251 9251 268
Width: 613
Flags: W
LayerCount: 2
Fore
SplineSet
33 -109 m 1
 67 83 l 1
 153 83 l 1
 134 -25 l 1
 470 -25 l 1
 489 83 l 1
 577 83 l 1
 543 -109 l 1
 33 -109 l 1
EndSplineSet
EndChar

StartChar: r.serif
Encoding: 65540 -1 269
Width: 613
Flags: W
LayerCount: 2
Fore
SplineSet
150 442 m 1
 167 542 l 1
 361 542 l 1
 348 476 l 1
 397 524 459 554 524 554 c 0
 579 554 630 532 664 491 c 0
 670 483 l 1
 597 373 l 1
 584 387 l 0
 575 398 572 408 568 415 c 0
 559 431 538 450 501 450 c 0
 466 450 419 434 369 381 c 0
 319 328 315 299 310 273 c 0
 279 94 l 1
 392 94 l 1
 376 -1 l 1
 69 -1 l 1
 86 94 l 1
 163 94 l 1
 224 442 l 1
 150 442 l 1
EndSplineSet
EndChar

StartChar: hungarumlaut.cap
Encoding: 65541 -1 270
Width: 613
Flags: W
LayerCount: 2
Fore
SplineSet
473 800 m 1
 681 969 l 1
 737 866 l 1
 521 759 l 1
 473 800 l 1
241 800 m 1
 450 969 l 1
 506 866 l 1
 289 759 l 1
 241 800 l 1
EndSplineSet
EndChar

StartChar: uni2074
Encoding: 8308 8308 271
Width: 613
Flags: W
LayerCount: 2
Fore
SplineSet
200 477 m 1
 495 761 l 1
 564 761 l 1
 518 501 l 1
 593 501 l 1
 578 414 l 1
 503 414 l 1
 483 299 l 1
 384 299 l 1
 405 415 l 1
 189 415 l 1
 200 477 l 1
421 501 m 1
 442 616 l 1
 329 501 l 1
 421 501 l 1
EndSplineSet
EndChar

StartChar: fraction
Encoding: 8260 8260 274
Width: 613
Flags: W
LayerCount: 2
Fore
SplineSet
153 -56 m 1
 79 -11 l 1
 605 795 l 1
 680 749 l 1
 153 -56 l 1
EndSplineSet
EndChar

StartChar: lslash
Encoding: 322 322 275
Width: 613
Flags: W
LayerCount: 2
Fore
SplineSet
303 310 m 1
 204 280 l 1
 224 387 l 1
 323 418 l 1
 373 689 l 1
 219 689 l 1
 237 788 l 1
 508 788 l 1
 447 461 l 1
 504 479 l 0
 516 483 524 486 536 494 c 0
 565 512 l 1
 542 387 l 1
 427 352 l 1
 394 174 l 1
 392 162 390 148 390 137 c 0
 390 114 395 105 415 105 c 0
 439 105 460 110 491 112 c 0
 511 113 l 1
 489 0 l 1
 421 0 l 0
 383 0 343 1 315 20 c 1
 270 50 265 105 277 169 c 0
 277 171 278 172 278 174 c 0
 303 310 l 1
EndSplineSet
EndChar

StartChar: Lslash
Encoding: 321 321 276
Width: 613
Flags: W
LayerCount: 2
Fore
SplineSet
148 373 m 1
 212 739 l 1
 337 739 l 1
 337 726 l 0
 337 724 336 723 336 721 c 0
 332 697 322 696 320 686 c 0
 271 411 l 1
 457 466 l 0
 468 469 477 472 488 476 c 0
 512 485 l 1
 493 380 l 1
 253 310 l 1
 217 101 l 1
 573 101 l 1
 555 -1 l 1
 82 -1 l 1
 130 272 l 1
 63 252 l 1
 81 353 l 1
 148 373 l 1
EndSplineSet
EndChar

StartChar: Eng
Encoding: 330 330 277
Width: 613
Flags: W
LayerCount: 2
Fore
SplineSet
173 0 m 1
 55 0 l 1
 186 739 l 1
 303 739 l 1
 292 673 l 1
 346 722 415 753 483 753 c 0
 561 753 625 712 647 640 c 0
 662 591 654 543 646 498 c 0
 596 214 l 0
 589 175 581 133 552 90 c 1
 509 24 435 -12 361 -12 c 0
 322 -12 285 -2 254 19 c 0
 243 26 l 1
 318 126 l 1
 330 119 l 0
 338 114 340 105 341 104 c 1
 346 101 362 92 382 92 c 0
 410 92 437 106 455 133 c 1
 470 156 476 185 481 211 c 0
 530 494 l 0
 536 527 542 562 531 592 c 1
 519 628 489 647 449 647 c 0
 393 647 327 603 297 570 c 1
 272 542 264 518 258 482 c 0
 173 0 l 1
EndSplineSet
EndChar

StartChar: dcroat
Encoding: 273 273 278
Width: 613
Flags: W
LayerCount: 2
Fore
SplineSet
418 452 m 0
 348 451 223 392 204 303 c 0
 199 277 198 254 198 234 c 0
 198 121 258 94 302 94 c 0
 352 94 412 128 442 188 c 0
 455 214 466 243 473 283 c 1
 498 436 l 1
 483 442 454 452 418 452 c 0
580 30 m 0
 572 0 l 1
 450 -6 l 1
 449 9 l 1
 449 10 447 37 447 73 c 1
 398 25 331 -12 269 -12 c 0
 258 -12 246 -11 235 -9 c 0
 133 8 56 102 89 278 c 0
 131 501 380 543 436 543 c 0
 472 543 504 533 522 527 c 1
 538 614 l 1
 448 614 l 1
 464 709 l 1
 554 709 l 1
 569 790 l 1
 690 790 l 1
 688 772 l 0
 686 758 677 750 675 747 c 0
 671 742 672 743 671 738 c 0
 666 709 l 1
 718 709 l 1
 701 614 l 1
 649 614 l 1
 622 466 584 260 567 166 c 1
 554 94 571 48 580 30 c 0
EndSplineSet
EndChar

StartChar: bullet
Encoding: 8226 8226 287
Width: 613
Flags: W
LayerCount: 2
Fore
SplineSet
396 466 m 0
 460 466 503 415 492 352 c 0
 481 289 420 238 356 238 c 0
 292 238 249 289 260 352 c 0
 271 415 332 466 396 466 c 0
EndSplineSet
EndChar

StartChar: florin
Encoding: 402 402 288
Width: 613
Flags: W
LayerCount: 2
Fore
SplineSet
720 731 m 0
 725 723 l 1
 661 627 l 1
 651 627 l 0
 641 627 630 634 630 648 c 0
 630 657 631 656 630 659 c 0
 624 678 604 701 572 701 c 0
 548 701 518 688 494 650 c 0
 473 617 464 573 454 535 c 0
 434 458 l 1
 578 458 l 1
 562 364 l 1
 409 364 l 1
 324 36 l 0
 311 -15 295 -67 257 -116 c 0
 209 -178 147 -208 92 -208 c 0
 51 -208 14 -191 -8 -161 c 0
 -14 -152 l 1
 65 -55 l 1
 76 -61 l 0
 88 -67 90 -80 91 -82 c 0
 94 -89 103 -97 118 -97 c 0
 132 -97 151 -91 171 -63 c 0
 194 -32 205 9 214 43 c 0
 297 366 l 1
 155 366 l 1
 171 459 l 1
 321 459 l 1
 344 549 l 0
 355 594 368 642 400 690 c 0
 448 760 520 799 588 799 c 0
 643 799 692 774 720 731 c 0
EndSplineSet
EndChar

StartChar: dagger
Encoding: 8224 8224 289
Width: 613
Flags: W
LayerCount: 2
Fore
SplineSet
350 557 m 1
 388 774 l 1
 499 774 l 1
 461 557 l 1
 657 557 l 1
 639 456 l 1
 443 456 l 1
 328 -195 l 1
 218 -195 l 1
 332 456 l 1
 134 456 l 1
 151 557 l 1
 350 557 l 1
EndSplineSet
EndChar

StartChar: daggerdbl
Encoding: 8225 8225 290
Width: 613
Flags: W
LayerCount: 2
Fore
SplineSet
350 557 m 1
 388 774 l 1
 499 774 l 1
 461 557 l 1
 657 557 l 1
 639 456 l 1
 443 456 l 1
 390 159 l 1
 587 159 l 1
 569 57 l 1
 373 57 l 1
 328 -195 l 1
 218 -195 l 1
 262 57 l 1
 63 57 l 1
 81 159 l 1
 280 159 l 1
 332 456 l 1
 134 456 l 1
 151 557 l 1
 350 557 l 1
EndSplineSet
EndChar

StartChar: trademark
Encoding: 8482 8482 291
Width: 613
VWidth: 1184
Flags: W
LayerCount: 2
Fore
SplineSet
149 753 m 1
 442 753 l 1
 428 675 l 1
 321 675 l 1
 269 379 l 1
 185 379 l 1
 237 675 l 1
 135 675 l 1
 149 753 l 1
445 753 m 1
 512 753 l 1
 561 599 l 1
 574 618 580 627 602 659 c 0
 632 702 631 702 661 745 c 0
 667 753 l 1
 731 753 l 1
 665 379 l 1
 585 379 l 1
 622 591 l 1
 619 587 616 583 612 578 c 0
 588 545 588 545 566 514 c 0
 560 506 l 1
 523 508 l 1
 496 586 l 1
 460 379 l 1
 379 379 l 1
 445 753 l 1
EndSplineSet
EndChar

StartChar: zero.noslash
Encoding: 65542 -1 292
Width: 613
Flags: W
LayerCount: 2
Fore
SplineSet
438 744 m 0
 576 744 649 592 609 366 c 0
 571 148 446 -13 302 -13 c 0
 172 -13 91 123 131 350 c 0
 172 581 293 744 438 744 c 0
498 565 m 0
 480 631 443 641 419 641 c 0
 398 641 360 633 322 576 c 0
 290 528 260 459 243 361 c 0
 231 291 233 217 244 174 c 0
 262 104 301 93 326 93 c 0
 348 93 385 102 423 153 c 0
 464 208 489 296 499 352 c 0
 512 425 511 516 498 565 c 0
EndSplineSet
EndChar

StartChar: alpha
Encoding: 945 945 294
Width: 613
Flags: W
LayerCount: 2
Fore
SplineSet
446 278 m 0
 467 397 439 454 353 454 c 0
 282 454 213 421 187 276 c 0
 164 144 227 102 290 102 c 0
 309 102 l 0
 352 102 415 103 446 278 c 0
590 33 m 0
 605 9 l 1
 470 9 l 1
 467 17 l 0
 467 17 459 39 454 60 c 1
 403 13 324 -5 273 -5 c 0
 207 -5 34 32 75 273 c 1
 77 283 l 0
 123 544 326 559 372 560 c 1
 458 560 500 522 520 493 c 1
 540 549 l 1
 640 526 l 1
 581 385 l 1
 565 351 554 311 547 272 c 0
 540 233 538 193 543 159 c 0
 554 90 590 33 590 33 c 0
EndSplineSet
EndChar

StartChar: beta
Encoding: 946 946 295
Width: 613
Flags: W
LayerCount: 2
Fore
SplineSet
504 398 m 1
 573 364 605 291 591 210 c 0
 571 94 442 3 330 1 c 1
 327 1 l 0
 254 1 207 39 183 66 c 1
 143 -160 l 1
 33 -160 l 1
 143 464 l 0
 151 511 162 563 195 615 c 1
 247 698 334 742 416 742 c 0
 537 742 618 648 598 534 c 0
 588 480 554 430 504 398 c 1
341 104 m 0
 348 104 l 2
 411 104 468 148 480 215 c 0
 489 263 467 303 432 325 c 1
 406 342 386 344 350 344 c 0
 256 344 l 1
 274 444 l 1
 366 444 l 0
 453 444 478 501 484 536 c 0
 495 600 460 637 401 637 c 0
 367 637 334 629 306 597 c 1
 271 559 262 514 254 467 c 1
 200 167 l 1
 232 150 286 104 341 104 c 0
EndSplineSet
EndChar

StartChar: gamma
Encoding: 947 947 296
Width: 613
Flags: W
LayerCount: 2
Fore
SplineSet
230 -173 m 1
 267 15 l 1
 132 542 l 1
 275 542 l 1
 274 528 l 0
 273 511 264 502 264 501 c 1
 264 501 265 499 265 497 c 1
 345 136 l 1
 479 388 l 1
 503 435 527 482 544 530 c 0
 549 543 l 1
 672 543 l 1
 662 524 l 0
 637 473 609 423 581 375 c 1
 375 10 l 1
 370 1 366 -17 362 -40 c 0
 356 -74 350 -118 343 -158 c 0
 340 -173 l 1
 230 -173 l 1
EndSplineSet
EndChar

StartChar: delta
Encoding: 948 948 297
Width: 613
Flags: W
LayerCount: 2
Fore
SplineSet
495 270 m 0
 518 401 454 454 389 454 c 0
 319 454 241 395 220 279 c 0
 199 161 257 95 330 95 c 0
 396 95 474 150 495 270 c 0
637 625 m 1
 577 671 l 1
 518 671 l 1
 344 669 l 1
 522 500 l 1
 604 436 618 328 606 261 c 0
 577 96 444 -3 312 -3 c 0
 173 -3 73 108 100 260 c 0
 124 397 220 507 340 524 c 1
 303 560 232 627 180 672 c 0
 175 677 l 1
 189 767 l 1
 662 767 l 1
 637 625 l 1
EndSplineSet
EndChar

StartChar: epsilon
Encoding: 949 949 298
Width: 613
Flags: W
HStem: -0 107<246 434> 227 109<263 414> 436 109<284 483>
LayerCount: 2
Fore
SplineSet
506 174 m 0
 520 184 l 1
 560 105 l 1
 550 96 l 0
 481 36 412 0 322 -0 c 0
 195 0 81 62 99 163 c 0
 107 211 136 261 187 286 c 1
 153 306 133 338 141 381 c 0
 156 468 268 546 390 546 c 0
 472 546 554 518 600 458 c 0
 607 449 l 1
 534 370 l 1
 524 383 l 0
 490 425 433 436 370 436 c 0
 304 436 263 410 258 381 c 0
 254 361 256 336 380 336 c 0
 392 336 405 336 417 337 c 0
 434 338 l 1
 413 222 l 1
 397 224 l 0
 377 226 380 227 361 227 c 0
 221 227 218 181 215 163 c 0
 211 139 269 108 340 107 c 1
 425 107 462 143 506 174 c 0
EndSplineSet
EndChar

StartChar: zeta
Encoding: 950 950 299
Width: 613
Flags: W
LayerCount: 2
Fore
SplineSet
359 -98 m 1
 370 -86 363 -94 370 -82 c 0
 388 -52 410 -12 422 9 c 1
 352 17 84 57 119 255 c 0
 119 257 l 1
 160 482 353 603 459 657 c 1
 394 657 295 658 242 658 c 1
 221 657 239 644 210 644 c 0
 194 644 l 1
 218 769 l 1
 670 769 l 1
 651 660 l 1
 640 657 l 1
 631 655 300 557 244 255 c 1
 243 254 l 0
 211 75 525 139 546 103 c 1
 554 89 555 72 552 57 c 0
 541 -4 476 -71 462 -120 c 1
 437 -117 399 -137 366 -137 c 0
 366 -137 328 -149 333 -121 c 0
 333 -119 l 1
 334 -117 l 0
 342 -98 358 -99 359 -98 c 1
EndSplineSet
EndChar

StartChar: eta
Encoding: 951 951 300
Width: 613
Flags: W
LayerCount: 2
Fore
SplineSet
84 0 m 1
 169 485 l 1
 158 542 l 1
 297 542 l 1
 286 476 l 1
 336 522 399 555 464 555 c 0
 531 555 587 519 605 455 c 1
 618 409 610 363 603 323 c 0
 518 -160 l 1
 403 -160 l 1
 487 318 l 0
 493 355 500 395 480 423 c 1
 467 442 445 451 422 451 c 0
 373 451 316 409 293 385 c 1
 268 360 262 341 256 307 c 0
 202 0 l 1
 84 0 l 1
EndSplineSet
EndChar

StartChar: theta
Encoding: 952 952 301
Width: 613
Flags: W
LayerCount: 2
Fore
SplineSet
128 387 m 0
 166 601 259 764 416 764 c 0
 579 764 628 593 592 391 c 0
 564 233 504 2 285 1 c 0
 283 1 l 0
 83 1 98 215 128 387 c 0
250 427 m 1
 308 427 422 428 484 428 c 1
 507 584 456 657 399 657 c 0
 349 657 284 593 250 427 c 1
305 114 m 0
 404 114 446 215 468 337 c 1
 233 337 l 1
 214 212 220 114 305 114 c 0
EndSplineSet
EndChar

StartChar: iota
Encoding: 953 953 302
Width: 613
Flags: W
HStem: -1 22G<346 387> 444 100<198 334>
VStem: 173 296
LayerCount: 2
Fore
SplineSet
173 392 m 1
 198 545 l 1
 469 545 l 1
 400 156 l 0
 392 110 401 113 442 113 c 0
 457 113 l 1
 437 0 l 1
 422 0 l 0
 408 0 394 -1 380 -1 c 0
 312 -1 260 20 282 149 c 1
 283 159 286 173 288 187 c 0
 293 217 300 250 300 250 c 1
 334 444 l 1
 217 444 l 0
 214 444 211 442 210 441 c 1
 173 392 l 1
EndSplineSet
EndChar

StartChar: kappa
Encoding: 954 954 303
Width: 613
Flags: W
HStem: -1 22G<47 167 429 584> 521 20G<139 271 486 519>
LayerCount: 2
Fore
SplineSet
47 -1 m 1
 143 542 l 1
 271 542 l 1
 268 524 l 0
 266 510 256 503 253 500 c 1
 251 498 252 500 251 496 c 0
 219 313 l 1
 512 546 l 1
 519 544 l 0
 537 539 565 539 585 539 c 0
 655 539 l 1
 368 319 l 1
 584 -1 l 1
 442 -1 l 1
 273 265 l 1
 201 213 l 1
 164 -1 l 1
 47 -1 l 1
EndSplineSet
EndChar

StartChar: lambda
Encoding: 955 955 304
Width: 613
Flags: W
LayerCount: 2
Fore
SplineSet
472.615 658.543 m 0
 473.874 654.426 475.061 650.265 476.18 646.065 c 0
 493.756 584.844 495.768 515.412 502.471 465.762 c 0
 524.982 318.38 573.927 47.9766 591.447 25.8926 c 1
 626.019 0 l 1
 475.729 0 l 1
 473.046 8.29199 l 2
 456.913 58.1357 421.202 295.824 406.297 379.783 c 1
 124.754 0 l 1
 8.84277 0 l 1
 380.836 502.343 l 1
 378.114 589.881 351.74 668.66 300.31 682.511 c 0
 297.791 683.22 295.211 683.767 292.569 684.143 c 0
 292.426 684.163 292.281 684.184 292.139 684.204 c 0
 291.998 684.233 291.857 684.262 291.717 684.291 c 0
 288.416 684.976 285.88 685 280.784 685 c 0
 257.535 685 246.63 677 234.373 677 c 2
 219.739 677 l 1
 236.57 788 l 1
 251.945 788 l 2
 270.47 788 291.527 789 307.122 789 c 2
 308.122 789 l 2
 406.066 789 450.543 730.708 472.615 658.543 c 0
EndSplineSet
EndChar

StartChar: mu
Encoding: 956 956 305
Width: 613
Flags: W
LayerCount: 2
Fore
SplineSet
422 77 m 0
 425 91 l 1
 388 48 331 0 258 0 c 0
 233 0 202 9 179 33 c 1
 143 -172 l 1
 28 -172 l 1
 154 541 l 1
 265 541 l 1
 216 261 l 0
 194 138 232 117 278 117 c 0
 336 117 444 202 460 291 c 0
 504 541 l 1
 617 541 l 1
 541 113 l 2
 538 98 543 100 548 100 c 0
 571 100 l 1
 569 86 l 0
 567 70 558 15 558 15 c 0
 555 0 l 1
 464 0 l 0
 438 0 413 26 422 77 c 0
EndSplineSet
EndChar

StartChar: nu
Encoding: 957 957 306
Width: 613
Flags: W
LayerCount: 2
Fore
SplineSet
261 -4 m 1
 132 553 l 1
 270 553 l 1
 270 541 l 0
 271 527 262 515 262 514 c 1
 263 505 274 446 342 132 c 1
 493 299 538 399 548 456 c 0
 557 504 542 520 538 530 c 0
 529 553 l 1
 666 553 l 1
 667 542 l 0
 667 541 672 509 665 468 c 0
 660 442 654 405 630 362 c 1
 531 180 352 3 351 2 c 0
 346 -4 l 1
 261 -4 l 1
EndSplineSet
EndChar

StartChar: xi
Encoding: 958 958 307
Width: 613
Flags: W
HStem: 335 123<398 559> 632 111<233 344 478 646>
LayerCount: 2
Fore
SplineSet
333 -123 m 0
 359 -80 399 -36 401 -22 c 1
 392 14 89 -14 128 206 c 0
 145 304 223 381 298 404 c 1
 256 438 243 475 249 511 c 0
 258 561 303 605 344 632 c 1
 259 632 l 1
 236 631 257 617 227 617 c 0
 211 617 l 1
 233 742 l 1
 665 742 l 1
 646 630 l 1
 547 630 l 1
 471 622 381 560 374 518 c 0
 370 496 388 470 467 458 c 1
 580 458 l 1
 559 336 l 1
 448 335 l 1
 428 335 l 0
 335 335 261 305 245 216 c 0
 244 210 l 1
 226 91 427 156 510 55 c 1
 520 43 529 25 526 6 c 0
 517 -44 471 -85 453 -131 c 0
 448 -143 l 1
 320 -145 l 1
 333 -123 l 0
EndSplineSet
EndChar

StartChar: omicron
Encoding: 959 959 308
Width: 613
Flags: W
LayerCount: 2
Fore
SplineSet
412 554 m 0
 544 554 652 453 619 268 c 0
 588 91 447 -14 310 -14 c 0
 164 -14 61 104 90 267 c 0
 119 433 264 554 412 554 c 0
501 266 m 0
 524 397 457 451 389 451 c 0
 316 451 233 391 212 274 c 0
 191 156 254 90 329 90 c 0
 398 90 480 146 501 266 c 0
EndSplineSet
EndChar

StartChar: pi
Encoding: 960 960 309
Width: 613
Flags: W
LayerCount: 2
Fore
SplineSet
103 442 m 1
 122 554 l 1
 686 554 l 1
 667 442 l 1
 600 442 l 1
 542 110 l 1
 550 110 l 1
 582 137 l 1
 575 100 l 1
 575 98 565 47 559 15 c 0
 556 0 l 1
 467 0 l 0
 420 0 413 32 417 53 c 0
 486 442 l 1
 287 442 l 1
 209 0 l 1
 90 0 l 1
 168 442 l 1
 103 442 l 1
EndSplineSet
EndChar

StartChar: rho
Encoding: 961 961 310
Width: 613
Flags: W
LayerCount: 2
Fore
SplineSet
28 -198 m 1
 120 339 l 2
 142 463 231 554 394 554 c 0
 545 554 633 450 600 263 c 0
 565 66 410 -8 293 -8 c 0
 235 -8 197 15 177 33 c 1
 136 -198 l 1
 28 -198 l 1
487 260 m 0
 518 434 415 451 374 451 c 0
 324 451 276 427 251 387 c 1
 236 365 229 336 222 294 c 0
 209 221 205 192 213 162 c 1
 225 122 258 98 311 98 c 0
 358 98 461 113 487 260 c 0
EndSplineSet
EndChar

StartChar: sigma
Encoding: 963 963 311
Width: 613
Flags: W
HStem: -14 104<238 382> 449 105<287 447 576 677>
LayerCount: 2
Fore
SplineSet
576 449 m 1
 603 403 613 340 600 265 c 0
 569 90 428 -14 291 -14 c 0
 145 -14 43 104 72 267 c 0
 101 430 242 551 387 554 c 1
 705 554 l 1
 689 515 l 1
 677 449 l 1
 576 449 l 1
486 281 m 0
 507 400 463 441 368 450 c 1
 296 450 216 401 194 274 c 0
 171 146 236 90 311 90 c 0
 380 90 463 151 486 281 c 0
EndSplineSet
EndChar

StartChar: tau
Encoding: 964 964 312
Width: 613
Flags: W
HStem: 2 106<390 519> 445 109<189 319 435 650>
LayerCount: 2
Fore
SplineSet
98 414 m 1
 189 554 l 1
 669 554 l 1
 650 443 l 1
 435 443 l 1
 383 154 l 1
 377 120 422 109 471 109 c 0
 496 109 517 112 517 112 c 0
 535 116 l 1
 518 10 l 1
 505 7 l 0
 504 7 476 2 440 2 c 0
 366 2 246 23 267 149 c 1
 268 159 270 172 273 187 c 0
 278 217 285 250 285 250 c 1
 319 445 l 1
 282 445 246 445 217 445 c 0
 180 445 153 442 146 439 c 0
 98 414 l 1
EndSplineSet
EndChar

StartChar: upsilon
Encoding: 965 965 313
Width: 613
Flags: W
LayerCount: 2
Fore
SplineSet
95 459 m 1
 131 542 l 1
 282 542 l 1
 229 240 l 0
 219 183 205 95 316 95 c 0
 382 95 452 158 468 247 c 0
 520 542 l 1
 637 542 l 1
 585 245 l 0
 573 176 538 112 499 73 c 1
 426 0 357 -14 291 -14 c 0
 216 -14 132 24 109 100 c 1
 94 147 103 196 111 241 c 1
 149 453 l 1
 137 454 124 456 112 457 c 0
 95 459 l 1
EndSplineSet
EndChar

StartChar: Xi
Encoding: 926 926 322
Width: 613
Flags: W
LayerCount: 2
Fore
SplineSet
282 108 m 1
 282 108 332 106 365 106 c 2
 533 106 l 1
 514 -1 l 1
 99 -1 l 1
 118 108 l 1
 282 108 l 1
644 739 m 1
 625 632 l 1
 211 632 l 1
 230 739 l 1
 644 739 l 1
194 333 m 1
 213 440 l 1
 558 440 l 1
 539 333 l 1
 194 333 l 1
EndSplineSet
EndChar

StartChar: tonos
Encoding: 900 900 328
Width: 613
Flags: W
LayerCount: 2
Fore
SplineSet
402.058 836.295 m 1
 526.735 825.404 l 1
 433.256 617 l 1
 355.225 617 l 1
 402.058 836.295 l 1
EndSplineSet
EndChar

StartChar: sigma1
Encoding: 962 962 346
Width: 613
Flags: W
LayerCount: 2
Fore
SplineSet
202 82 m 1
 159 112 109 202 125 292 c 0
 144 396 238 509 347 536 c 0
 408 552 490 554 538 554 c 0
 576 554 l 0
 602 554 588 531 588 531 c 0
 585 516 579 480 573 453 c 0
 570 439 l 1
 556 438 l 0
 510 437 462 436 438 436 c 0
 331 436 265 393 245 281 c 0
 236 229 276 167 312 151 c 1
 383 121 535 129 515 17 c 1
 503 -44 441 -106 432 -125 c 0
 427 -136 l 1
 302 -137 l 1
 313 -117 l 0
 342 -63 393 -18 396 -1 c 0
 404 44 307 9 202 82 c 1
EndSplineSet
EndChar

StartChar: chi
Encoding: 967 967 347
Width: 613
Flags: W
LayerCount: 2
Fore
SplineSet
364 289 m 1
 528 543 l 1
 644 543 l 1
 407 187 l 1
 499 -78 l 1
 504 -92 518 -95 527 -95 c 0
 551 -95 l 1
 533 -196 l 1
 508 -196 l 0
 483 -196 413 -193 389 -138 c 0
 389 -137 l 1
 325 71 l 1
 154 -196 l 1
 29 -196 l 1
 281 176 l 1
 197 387 l 1
 154 442 l 0
 124 442 l 1
 143 553 l 1
 186 553 l 0
 217 553 256 545 279 498 c 1
 286 485 320 424 364 289 c 1
EndSplineSet
EndChar

StartChar: psi
Encoding: 968 968 348
Width: 613
Flags: W
HStem: 521 20G<170 284 519 634>
LayerCount: 2
Fore
SplineSet
170 526 m 1
 172 542 l 1
 284 542 l 1
 227 219 l 2
 218 169 209 97 265 73 c 1
 362 627 l 1
 481 668 l 1
 379 86 l 1
 421 113 456 164 467 226 c 2
 523 542 l 1
 634 542 l 1
 582 245 l 2
 570 176 533 115 494 77 c 0
 447 30 406 5 362 -6 c 1
 329 -194 l 1
 218 -194 l 1
 250 -10 l 1
 188 3 135 40 116 100 c 0
 101 147 110 197 118 241 c 0
 159 470 170 526 170 526 c 1
EndSplineSet
EndChar

StartChar: phi
Encoding: 966 966 349
Width: 613
Flags: W
HStem: -197 22G<217 338>
LayerCount: 2
Fore
SplineSet
348 547 m 1
 358 604 l 1
 478 621 l 1
 465 547 l 1
 570 522 647 425 619 268 c 0
 592 117 482 18 367 -7 c 1
 334 -197 l 1
 217 -197 l 1
 250 -9 l 1
 133 18 65 126 90 267 c 0
 115 410 224 519 348 547 c 1
207 274 m 0
 190 179 221 111 267 84 c 1
 333 458 l 1
 278 433 224 370 207 274 c 0
506 265 m 0
 524 365 491 426 449 453 c 1
 384 86 l 1
 436 112 490 172 506 265 c 0
EndSplineSet
EndChar

StartChar: omega
Encoding: 969 969 350
Width: 613
Flags: W
LayerCount: 2
Fore
SplineSet
179 164 m 1
 186 121 196 106 212 106 c 0
 253 106 282 172 300 266 c 1
 324 402 l 1
 433 402 l 1
 410 266 l 1
 393 171 398 106 440 106 c 0
 457 106 470 120 493 164 c 1
 495 168 510 207 522 276 c 0
 533 337 542 424 541 535 c 0
 541 553 l 1
 654 553 l 1
 654 540 l 0
 654 508 661 399 640 282 c 0
 627 211 605 137 565 74 c 1
 532 24 469 -2 422 -2 c 0
 419 -2 l 0
 389 -2 346 14 315 46 c 1
 272 13 224 -2 194 -2 c 0
 192 -2 l 0
 145 -2 91 24 76 74 c 1
 58 137 61 211 74 282 c 0
 95 399 139 508 151 540 c 0
 155 553 l 1
 269 553 l 1
 263 535 l 0
 222 422 201 335 190 274 c 0
 178 206 179 168 179 164 c 1
EndSplineSet
EndChar

StartChar: Lambda
Encoding: 923 923 352
Width: 613
Flags: W
HStem: 0 20G<6 126 485 606>
LayerCount: 2
Fore
SplineSet
485 10 m 0
 451 181 419 355 387 529 c 1
 300 354 214 182 126 9 c 0
 121 -1 l 1
 6 -1 l 1
 410 753 l 1
 441 753 l 1
 606 0 l 1
 487 0 l 1
 485 10 l 0
EndSplineSet
EndChar

StartChar: Delta
Encoding: 916 916 353
Width: 613
Flags: W
LayerCount: 2
Fore
SplineSet
606 0 m 1
 6 0 l 1
 411 753 l 1
 441 753 l 1
 606 0 l 1
387 530 m 1
 177 112 l 1
 465 112 l 1
 387 530 l 1
EndSplineSet
EndChar

StartChar: Gamma
Encoding: 915 915 355
Width: 613
Flags: W
LayerCount: 2
Fore
SplineSet
661 636 m 1
 286 636 l 1
 189 85 l 1
 175 0 l 1
 65 0 l 1
 195 740 l 1
 679 740 l 1
 661 636 l 1
EndSplineSet
EndChar

StartChar: Theta
Encoding: 920 920 356
Width: 613
Flags: W
LayerCount: 2
Fore
SplineSet
511 407 m 1
 497 325 l 1
 238 325 l 1
 253 406 l 1
 258 436 l 1
 258 436 l 1
 273 436 l 2
 276 436 409 437 486 437 c 1
 486 437 l 1
 501 437 l 1
 516 437 l 1
 511 407 l 1
652 382 m 0
 625 228 555 0 310 0 c 0
 75 0 70 228 97 381 c 0
 132 578 230 750 441 750 c 0
 629 750 691 602 652 382 c 0
539 382 m 0
 563 516 560 641 421 641 c 0
 275 641 237 520 213 381 c 0
 181 201 230 106 333 106 c 0
 427 106 504 183 539 382 c 0
EndSplineSet
EndChar

StartChar: Pi
Encoding: 928 928 357
Width: 613
Flags: W
LayerCount: 2
Fore
SplineSet
551 636 m 1
 286 636 l 1
 189 85 l 1
 175 0 l 1
 65 0 l 1
 195 740 l 1
 679 740 l 1
 549 0 l 1
 439 0 l 1
 551 636 l 1
EndSplineSet
EndChar

StartChar: Phi
Encoding: 934 934 358
Width: 613
Flags: W
LayerCount: 2
Fore
SplineSet
65 396 m 0
 101 598 274 737 439 737 c 0
 592 737 725 597 690 399 c 0
 656 206 490 111 377 83 c 1
 362 0 l 1
 255 0 l 1
 269 82 l 1
 157 111 33 215 65 396 c 0
176 399 m 0
 154 276 222 212 283 183 c 1
 364 642 l 1
 293 610 198 522 176 399 c 0
582 401 m 0
 605 530 535 605 479 639 c 1
 399 184 l 1
 469 215 561 281 582 401 c 0
EndSplineSet
EndChar

StartChar: Chi
Encoding: 935 935 359
Width: 613
Flags: W
LayerCount: 2
Fore
SplineSet
388 485 m 1
 558 739 l 1
 675 739 l 1
 431 380 l 1
 569 1 l 1
 441 1 l 1
 351 269 l 1
 173 1 l 1
 49 1 l 1
 309 376 l 1
 180 739 l 1
 303 739 l 1
 388 485 l 1
EndSplineSet
EndChar

StartChar: Sigma
Encoding: 931 931 362
Width: 613
Flags: W
HStem: -22 104<214 570> 634 105<324 672>
LayerCount: 2
Fore
SplineSet
62 44 m 1
 304 362 l 1
 191 665 l 1
 203 739 l 1
 690 739 l 1
 672 634 l 1
 324 634 l 1
 421 377 l 1
 428 377 l 1
 426 364 l 1
 426 361 l 1
 425 359 l 1
 423 348 l 1
 416 348 l 1
 214 83 l 1
 538 83 l 2
 546 83 552 90 571 90 c 2
 590 90 l 1
 571 -22 l 1
 50 -22 l 1
 62 44 l 1
EndSplineSet
EndChar

StartChar: Psi
Encoding: 936 936 363
Width: 613
Flags: W
LayerCount: 2
Fore
SplineSet
306 293 m 1
 378 705 l 1
 491 705 l 1
 419 295 l 1
 486 321 513 402 522 452 c 0
 573 740 l 1
 688 740 l 1
 639 465 l 0
 630 411 617 364 574 312 c 1
 525 253 461 226 404 214 c 1
 367 0 l 1
 254 0 l 1
 291 212 l 1
 231 223 183 249 151 311 c 1
 126 360 131 410 140 461 c 1
 190 740 l 1
 304 740 l 1
 253 452 l 0
 245 405 248 319 306 293 c 1
EndSplineSet
EndChar

StartChar: Omega
Encoding: 937 937 364
Width: 613
Flags: W
LayerCount: 2
Fore
SplineSet
70 108 m 1
 165 108 l 1
 124 172 99 272 111 341 c 0
 172 689 307 740 439 740 c 0
 565 740 683 685 623 343 c 0
 609 263 558 171 498 108 c 1
 582 108 l 1
 563 0 l 1
 346 0 l 1
 363 93 l 1
 368 98 l 0
 398 121 496 256 510 338 c 0
 548 554 527 639 421 639 c 0
 313 639 261 555 223 339 c 0
 209 257 264 121 287 99 c 0
 291 95 l 1
 274 0 l 1
 51 0 l 1
 70 108 l 1
EndSplineSet
EndChar

StartChar: anoteleia
Encoding: 903 903 366
Width: 613
Flags: W
LayerCount: 2
Fore
SplineSet
391 554 m 0
 438 554 469 517 461 471 c 0
 453 425 408 387 361 387 c 0
 314 387 282 425 290 471 c 0
 298 517 344 554 391 554 c 0
EndSplineSet
EndChar

StartChar: afii10018
Encoding: 1041 1041 368
Width: 613
Flags: W
LayerCount: 2
Fore
SplineSet
276 0 m 0
 52 0 l 1
 183 740 l 1
 667 740 l 1
 649 636 l 1
 277 636 l 1
 244 449 l 1
 344 449 l 0
 425 449 482 448 538 406 c 0
 595 364 620 301 605 213 c 0
 591 134 530 58 439 23 c 0
 381 1 326 0 276 0 c 0
226 348 m 1
 183 103 l 1
 309 103 l 0
 341 103 369 104 400 116 c 0
 449 135 481 176 489 221 c 0
 497 266 478 310 433 332 c 0
 402 347 369 348 332 348 c 0
 226 348 l 1
EndSplineSet
EndChar

StartChar: afii10021
Encoding: 1044 1044 371
Width: 613
Flags: W
LayerCount: 2
Fore
SplineSet
12 -171 m 1
 60 100 l 1
 116 100 l 1
 117 101 116 101 117 102 c 0
 127 119 141 146 149 165 c 0
 211 319 263 544 287 656 c 0
 294 687 291 722 291 722 c 0
 290 740 l 1
 679 740 l 1
 567 100 l 1
 627 100 l 1
 579 -172 l 1
 464 -172 l 1
 494 -1 l 1
 158 -1 l 1
 128 -171 l 1
 12 -171 l 1
248 125 m 0
 245 117 241 108 237 100 c 1
 457 100 l 1
 551 636 l 1
 395 636 l 1
 364 508 306 262 248 125 c 0
EndSplineSet
EndChar

StartChar: afii10024
Encoding: 1046 1046 373
Width: 613
Flags: W
HStem: 0 16G<121 146 252 369 474 491> 719 20G<379 498>
LayerCount: 2
Fore
SplineSet
17 0 m 0
 -7 0 l 1
 284 377 l 1
 150 740 l 1
 207 740 l 0
 227 740 248 741 268 746 c 0
 280 749 l 1
 351 516 l 1
 382 739 l 1
 495 739 l 1
 498 731 l 0
 499 727 500 723 499 719 c 0
 495 698 488 699 487 695 c 0
 466 524 l 1
 592 749 l 1
 603 746 l 0
 621 741 642 740 662 740 c 0
 719 740 l 1
 484 383 l 1
 620 0 l 1
 596 0 l 0
 538 0 491 -4 491 -4 c 0
 479 -5 l 1
 416 243 l 1
 365 0 l 1
 252 0 l 1
 302 234 l 1
 132 -5 l 1
 121 -4 l 0
 121 -4 75 0 17 0 c 0
EndSplineSet
EndChar

StartChar: afii10025
Encoding: 1047 1047 374
Width: 613
Flags: W
LayerCount: 2
Fore
SplineSet
49 133 m 0
 43 145 l 1
 158 218 l 1
 165 206 l 0
 179 183 167 172 170 167 c 0
 173 161 213 93 299 93 c 0
 412 93 483 154 495 221 c 0
 507 291 444 339 308 339 c 0
 291 339 275 338 258 336 c 0
 241 334 l 1
 257 429 l 1
 273 429 l 0
 368 429 415 441 432 446 c 0
 499 465 523 504 530 542 c 0
 539 591 502 637 402 637 c 0
 346 637 274 596 236 560 c 0
 224 549 l 1
 161 618 l 1
 171 629 l 0
 242 708 338 742 425 742 c 0
 577 742 662 654 643 547 c 0
 632 484 591 425 521 393 c 1
 592 357 618 288 604 210 c 0
 583 90 465 -12 282 -12 c 0
 183 -12 83 58 49 133 c 0
EndSplineSet
EndChar

StartChar: afii10026
Encoding: 1048 1048 375
Width: 613
Flags: W
LayerCount: 2
Fore
SplineSet
145 0 m 1
 54 0 l 1
 185 739 l 1
 302 739 l 1
 304 731 l 0
 305 727 306 723 305 719 c 0
 301 698 295 699 294 695 c 0
 214 246 l 1
 580 739 l 1
 686 739 l 1
 556 -1 l 1
 444 -1 l 1
 540 539 l 1
 145 0 l 1
EndSplineSet
EndChar

StartChar: afii10029
Encoding: 1051 1051 378
Width: 613
Flags: W
LayerCount: 2
Fore
SplineSet
14 42 m 0
 10 48 l 1
 69 153 l 1
 83 133 l 0
 90 123 88 111 88 110 c 1
 90 104 103 89 110 88 c 1
 111 89 114 92 117 97 c 0
 127 115 141 142 149 161 c 0
 211 316 263 542 287 655 c 0
 294 686 291 722 291 722 c 0
 290 740 l 1
 679 740 l 1
 549 0 l 1
 439 0 l 1
 551 636 l 1
 395 636 l 1
 363 507 306 258 248 120 c 0
 235 90 219 56 196 29 c 0
 169 -3 119 -8 94 -8 c 0
 59 -8 31 10 14 42 c 0
EndSplineSet
EndChar

StartChar: afii10037
Encoding: 1059 1059 386
Width: 613
Flags: W
LayerCount: 2
Fore
SplineSet
319 235 m 1
 147 740 l 1
 301 740 l 1
 299 726 l 0
 297 709 289 701 289 700 c 0
 289 700 290 698 290 696 c 1
 397 357 l 1
 519 586 l 0
 544 632 567 680 584 728 c 0
 589 740 l 1
 711 740 l 1
 702 721 l 0
 677 670 649 620 621 570 c 0
 376 140 l 0
 359 110 342 81 311 53 c 0
 265 11 214 -8 173 -8 c 0
 125 -8 83 8 54 41 c 0
 47 49 l 1
 123 152 l 1
 136 141 l 0
 148 130 145 117 145 117 c 1
 147 113 160 92 191 92 c 0
 201 92 214 98 240 121 c 0
 258 136 271 157 284 177 c 1
 319 235 l 1
EndSplineSet
EndChar

StartChar: afii10038
Encoding: 1060 1060 387
Width: 613
Flags: W
HStem: 0 22G<255 366>
LayerCount: 2
Fore
SplineSet
582 401 m 0
 605 530 535 605 479 639 c 1
 399 184 l 1
 469 215 561 281 582 401 c 0
176 399 m 0
 154 276 222 212 283 183 c 1
 364 642 l 1
 293 610 198 522 176 399 c 0
496 731 m 1
 623 701 720 572 690 399 c 0
 656 206 490 111 377 83 c 1
 362 0 l 1
 255 0 l 1
 269 82 l 1
 157 111 33 215 65 396 c 0
 96 574 234 704 380 732 c 1
 396 817 l 1
 513 817 l 1
 496 731 l 1
EndSplineSet
EndChar

StartChar: afii10040
Encoding: 1062 1062 389
Width: 613
Flags: W
LayerCount: 2
Fore
SplineSet
498 0 m 1
 39 0 l 1
 169 739 l 1
 286 739 l 1
 289 731 l 0
 290 727 291 723 290 719 c 0
 286 699 280 701 279 697 c 0
 174 101 l 1
 433 101 l 1
 545 739 l 1
 659 739 l 1
 662 732 l 0
 664 728 665 723 664 719 c 0
 660 697 652 700 652 698 c 0
 545 92 l 1
 628 92 l 1
 581 -172 l 1
 467 -172 l 1
 498 0 l 1
EndSplineSet
EndChar

StartChar: afii10041
Encoding: 1063 1063 390
Width: 613
Flags: W
LayerCount: 2
Fore
SplineSet
146 349 m 0
 126 402 134 454 143 505 c 2
 185 739 l 1
 303 739 l 1
 306 730 l 0
 307 726 307 722 306 718 c 0
 304 704 293 696 291 694 c 0
 288 691 289 692 288 688 c 0
 256 505 l 0
 250 470 245 439 255 407 c 0
 270 358 316 331 369 331 c 0
 421 331 476 357 509 406 c 0
 531 439 538 471 544 508 c 0
 585 739 l 1
 695 739 l 1
 564 0 l 1
 455 0 l 1
 502 270 l 1
 454 243 401 229 349 229 c 0
 257 229 176 269 146 349 c 0
EndSplineSet
EndChar

StartChar: afii10042
Encoding: 1064 1064 391
Width: 613
Flags: W
LayerCount: 2
Fore
SplineSet
3 15 m 2
 32 15 l 1
 159 739 l 1
 276 739 l 1
 279 731 l 2
 280 727 281 723 280 719 c 0
 276 699 269 701 268 697 c 2
 163 101 l 1
 274 101 l 1
 386 739 l 1
 501 739 l 1
 504 732 l 2
 506 728 506 724 505 720 c 0
 501 698 493 701 493 699 c 2
 388 101 l 1
 493 101 l 1
 606 739 l 1
 720 739 l 1
 723 732 l 2
 725 728 725 724 724 720 c 0
 720 698 712 701 712 699 c 2
 589 0 l 1
 29 0 l 1
 29 2 56 15 3 15 c 2
EndSplineSet
EndChar

StartChar: afii10043
Encoding: 1065 1065 392
Width: 613
Flags: W
LayerCount: 2
Fore
SplineSet
498 0 m 1
 3 0 l 1
 133 739 l 1
 250 739 l 1
 253 731 l 0
 254 727 255 723 254 719 c 0
 250 699 244 701 243 697 c 0
 138 101 l 1
 248 101 l 1
 361 739 l 1
 475 739 l 1
 478 732 l 0
 480 728 480 724 479 720 c 0
 475 698 467 701 467 699 c 0
 362 101 l 1
 467 101 l 1
 580 739 l 1
 694 739 l 1
 697 732 l 0
 699 728 700 724 699 720 c 0
 695 698 686 701 686 699 c 0
 581 101 l 1
 629 101 l 1
 581 -172 l 1
 467 -172 l 1
 498 0 l 1
EndSplineSet
EndChar

StartChar: afii10044
Encoding: 1066 1066 393
Width: 613
Flags: W
LayerCount: 2
Fore
SplineSet
256 634 m 1
 144 634 l 1
 162 739 l 1
 387 739 l 1
 336 449 l 1
 344 449 l 0
 425 449 496 449 553 406 c 0
 610 364 635 301 620 213 c 0
 606 134 545 58 454 23 c 0
 396 1 341 0 291 0 c 0
 144 0 l 1
 256 634 l 1
318 348 m 1
 275 103 l 1
 324 103 l 0
 356 103 384 104 415 116 c 0
 464 135 496 176 504 221 c 0
 512 266 493 310 448 332 c 0
 417 347 384 348 347 348 c 0
 318 348 l 1
EndSplineSet
EndChar

StartChar: afii10045
Encoding: 1067 1067 394
Width: 613
Flags: W
LayerCount: 2
Fore
SplineSet
164 0 m 0
 42 0 l 1
 172 739 l 1
 285 739 l 1
 288 731 l 0
 289 727 290 723 289 719 c 0
 285 699 278 701 277 697 c 0
 233 445 l 1
 305 445 355 445 404 403 c 0
 453 361 474 297 459 211 c 0
 445 133 391 58 309 23 c 0
 256 0 208 0 164 0 c 0
216 348 m 1
 173 103 l 1
 195 103 l 0
 223 103 241 104 266 116 c 0
 305 134 334 175 342 221 c 0
 350 267 336 312 300 333 c 0
 276 348 253 348 220 348 c 0
 216 348 l 1
568 0 m 1
 455 0 l 1
 586 739 l 1
 699 739 l 1
 701 731 l 0
 702 727 703 723 702 719 c 0
 698 699 692 701 691 697 c 0
 568 0 l 1
EndSplineSet
EndChar

StartChar: afii10046
Encoding: 1068 1068 395
Width: 613
Flags: W
LayerCount: 2
Fore
SplineSet
276 0 m 0
 52 0 l 1
 183 739 l 1
 296 739 l 1
 298 731 l 0
 299 727 300 723 299 719 c 0
 295 699 289 701 288 697 c 0
 244 449 l 1
 344 449 l 0
 425 449 482 448 538 406 c 0
 595 364 620 301 605 213 c 0
 591 134 530 58 439 23 c 0
 381 1 326 0 276 0 c 0
226 348 m 1
 183 103 l 1
 309 103 l 0
 341 103 369 104 400 116 c 0
 449 135 481 176 489 221 c 0
 497 266 478 310 433 332 c 0
 402 347 369 348 332 348 c 0
 226 348 l 1
EndSplineSet
EndChar

StartChar: afii10047
Encoding: 1069 1069 396
Width: 613
Flags: W
LayerCount: 2
Fore
SplineSet
70 143 m 0
 66 157 l 1
 175 206 l 1
 181 201 l 0
 192 192 189 178 189 177 c 0
 188 172 187 169 187 168 c 0
 187 166 186 167 188 163 c 0
 207 116 251 85 303 85 c 0
 391 85 491 169 528 333 c 1
 238 333 l 1
 257 439 l 1
 542 439 l 1
 544 575 476 643 394 643 c 0
 342 643 283 612 242 560 c 0
 231 547 l 1
 154 604 l 1
 164 616 l 0
 227 696 323 745 417 745 c 0
 548 745 696 649 646 368 c 0
 595 77 406 -12 283 -12 c 0
 179 -12 96 48 70 143 c 0
EndSplineSet
EndChar

StartChar: afii10048
Encoding: 1070 1070 397
Width: 613
Flags: W
LayerCount: 2
Fore
SplineSet
127 0 m 1
 15 0 l 1
 145 739 l 1
 258 739 l 1
 261 731 l 0
 262 727 263 723 262 719 c 0
 258 699 251 701 250 697 c 0
 205 439 l 1
 259 439 l 1
 316 668 439 748 527 748 c 0
 596 748 656 699 677 604 c 0
 695 525 682 435 670 368 c 0
 659 305 640 215 595 136 c 0
 540 38 462 -11 394 -11 c 0
 300 -11 204 80 239 333 c 1
 186 333 l 1
 127 0 l 1
505 639 m 0
 471 639 396 590 359 381 c 0
 320 157 376 100 413 100 c 0
 435 100 471 119 504 185 c 0
 533 243 547 313 555 358 c 0
 565 417 574 482 569 539 c 0
 561 618 528 639 505 639 c 0
EndSplineSet
EndChar

StartChar: afii10049
Encoding: 1071 1071 398
Width: 613
Flags: W
LayerCount: 2
Fore
SplineSet
156 0 m 1
 28 0 l 1
 259 323 l 1
 177 354 135 436 152 530 c 0
 165 606 217 678 297 714 c 0
 352 739 402 739 450 739 c 0
 683 739 l 1
 553 0 l 1
 438 0 l 1
 493 311 l 1
 375 311 l 1
 156 0 l 1
345 617 m 0
 301 598 273 560 266 520 c 0
 259 481 273 444 307 427 c 0
 330 415 354 415 383 415 c 0
 511 415 l 1
 549 631 l 1
 431 631 l 0
 400 631 374 629 345 617 c 0
EndSplineSet
EndChar

StartChar: afii10066
Encoding: 1073 1073 400
Width: 613
Flags: W
LayerCount: 2
Fore
SplineSet
388 451 m 0
 315 451 234 394 213 277 c 0
 194 167 239 90 329 90 c 0
 398 90 481 145 502 265 c 0
 525 397 456 451 388 451 c 0
117 87 m 0
 80 159 88 250 103 333 c 0
 115 401 135 484 174 554 c 1
 245 688 357 748 452 748 c 0
 481 748 528 763 541 770 c 1
 543 774 546 785 557 793 c 0
 573 804 l 1
 614 701 l 1
 604 693 l 0
 561 658 481 643 434 643 c 0
 398 643 329 630 275 518 c 1
 319 542 366 554 413 554 c 0
 545 554 652 453 619 269 c 0
 588 92 448 -14 310 -14 c 0
 220 -14 151 21 117 87 c 0
EndSplineSet
Substitution2: "Macedonian-Serbian Italic subtable" afii10066.mkd
EndChar

StartChar: afii10067
Encoding: 1074 1074 401
Width: 613
Flags: W
LayerCount: 2
Fore
SplineSet
161 59 m 0
 113 111 94 188 110 274 c 0
 128 371 186 453 266 502 c 0
 305 526 349 543 390 543 c 0
 426 543 467 543 513 528 c 0
 586 505 606 452 596 400 c 0
 588 356 555 316 510 292 c 1
 577 263 589 208 579 154 c 0
 568 96 524 41 435 16 c 0
 379 0 334 0 284 0 c 0
 230 0 194 23 161 59 c 0
324 243 m 0
 225 243 l 1
 222 177 246 128 285 102 c 0
 301 91 365 88 396 96 c 0
 445 108 458 133 463 159 c 0
 468 188 463 227 422 236 c 0
 388 243 361 243 324 243 c 0
339 441 m 0
 302 421 271 387 250 344 c 1
 331 344 l 0
 364 344 389 344 423 351 c 0
 464 359 477 387 481 407 c 0
 484 424 483 439 442 449 c 0
 428 452 416 455 402 456 c 0
 390 457 365 456 339 441 c 0
EndSplineSet
EndChar

StartChar: afii10068
Encoding: 1075 1075 402
Width: 613
Flags: W
LayerCount: 2
Fore
SplineSet
243 -8 m 0
 128 11 76 89 90 164 c 0
 97 203 125 253 200 289 c 0
 271 323 360 334 412 356 c 0
 457 375 467 395 469 407 c 0
 469 409 469 411 469 413 c 0
 469 436 438 460 383 460 c 0
 312 460 254 415 230 390 c 0
 230 390 230 389 230 387 c 0
 228 373 216 366 210 365 c 0
 198 362 l 1
 151 458 l 1
 159 466 l 0
 222 524 303 555 387 555 c 0
 406 555 424 553 441 550 c 0
 540 534 598 471 584 396 c 0
 565 297 447 264 417 254 c 0
 367 238 304 225 263 208 c 0
 219 190 209 168 206 154 c 0
 206 151 206 148 206 146 c 0
 206 117 245 90 315 90 c 0
 402 90 469 143 488 161 c 0
 488 162 l 1
 488 163 489 164 489 165 c 0
 489 166 490 181 505 188 c 0
 519 194 l 1
 564 84 l 1
 555 77 l 0
 478 16 387 -12 301 -12 c 0
 280 -12 261 -11 243 -8 c 0
EndSplineSet
Substitution2: "Macedonian-Serbian Italic subtable" afii10068.mkd
EndChar

StartChar: afii10072
Encoding: 1078 1078 405
Width: 613
Flags: W
LayerCount: 2
Fore
SplineSet
19 95 m 0
 18 102 l 1
 116 186 l 1
 117 154 l 1
 117 143 114 133 113 127 c 1
 113 123 117 100 121 90 c 1
 139 111 170 173 187 263 c 0
 204 352 197 420 188 445 c 1
 182 437 176 426 169 406 c 0
 162 383 l 1
 86 454 l 1
 91 464 l 0
 123 516 152 553 206 553 c 0
 281 553 305 454 295 340 c 1
 313 340 l 1
 351 543 l 1
 453 543 l 1
 456 532 l 0
 457 528 458 524 457 520 c 0
 453 501 447 504 446 499 c 0
 416 340 l 1
 436 340 l 1
 470 460 531 553 604 553 c 0
 666 553 681 503 688 445 c 0
 689 437 l 1
 591 354 l 1
 590 385 l 0
 590 395 593 407 594 413 c 1
 594 417 590 440 586 450 c 1
 568 429 537 367 520 277 c 0
 503 184 511 113 520 92 c 1
 528 98 541 110 549 134 c 0
 556 157 l 1
 632 85 l 1
 626 76 l 0
 594 23 565 -13 502 -13 c 0
 499 -13 496 -13 493 -13 c 0
 417 -4 398 113 417 244 c 1
 399 244 l 1
 353 0 l 1
 250 0 l 1
 296 244 l 1
 281 244 l 1
 250 101 185 -13 104 -13 c 0
 38 -13 26 37 19 95 c 0
EndSplineSet
EndChar

StartChar: afii10073
Encoding: 1079 1079 406
Width: 613
Flags: W
LayerCount: 2
Fore
SplineSet
97 97 m 0
 89 107 l 1
 154 184 l 1
 166 173 l 0
 199 142 222 107 307 107 c 0
 424 107 471 138 476 166 c 0
 476 168 477 169 477 171 c 0
 477 187 465 227 336 227 c 0
 317 227 320 226 299 224 c 0
 279 222 l 1
 300 338 l 1
 313 337 l 0
 325 336 338 336 350 336 c 0
 473 336 489 361 493 383 c 0
 494 385 493 388 493 390 c 0
 493 414 465 436 404 436 c 0
 341 436 279 425 229 382 c 0
 215 370 l 1
 169 451 l 1
 178 459 l 0
 245 518 335 546 417 546 c 0
 432 546 447 544 461 542 c 0
 559 526 623 456 609 379 c 0
 601 336 569 304 529 285 c 1
 577 260 601 211 592 161 c 0
 574 64 477 0 293 -0 c 0
 203 -0 145 37 97 97 c 0
EndSplineSet
EndChar

StartChar: afii10077
Encoding: 1083 1083 410
Width: 613
Flags: W
LayerCount: 2
Fore
SplineSet
12 45 m 0
 8 53 l 1
 67 159 l 1
 81 137 l 0
 89 125 86 113 86 113 c 1
 90 105 101 92 106 92 c 0
 106 92 l 1
 106 92 110 95 115 103 c 0
 125 120 139 146 147 165 c 0
 156 187 174 279 209 343 c 0
 243 406 279 449 322 485 c 0
 365 521 415 543 460 543 c 0
 613 543 581 514 631 501 c 0
 654 495 l 1
 639 477 l 1
 636 473 624 448 619 423 c 1
 572 164 l 1
 555 74 581 21 581 21 c 1
 590 1 l 1
 447 -6 l 1
 446 10 l 1
 446 10 441 75 456 157 c 0
 502 405 l 1
 509 440 l 1
 505 443 493 449 464 449 c 0
 424 449 362 385 315 315 c 0
 271 250 272 174 246 116 c 0
 233 87 217 53 194 27 c 0
 169 -3 119 -8 94 -8 c 0
 59 -8 29 11 12 45 c 0
EndSplineSet
EndChar

StartChar: afii10078
Encoding: 1084 1084 411
Width: 613
Flags: W
LayerCount: 2
Fore
SplineSet
149 -1 m 1
 40 -1 l 1
 141 542 l 1
 229 542 l 1
 361 299 l 1
 583 543 l 1
 670 543 l 1
 600 164 l 0
 583 74 608 21 608 21 c 1
 618 1 l 1
 480 -6 l 1
 479 8 l 1
 479 13 472 80 488 168 c 0
 524 367 l 1
 355 174 l 1
 307 174 l 1
 214 366 l 1
 149 -1 l 1
EndSplineSet
EndChar

StartChar: afii10079
Encoding: 1085 1085 412
Width: 613
Flags: W
LayerCount: 2
Fore
SplineSet
183 0 m 1
 66 0 l 1
 142 405 l 1
 153 462 142 503 132 520 c 0
 122 539 l 1
 257 555 l 1
 261 543 l 0
 263 537 276 498 265 439 c 0
 244 331 l 1
 488 331 l 1
 528 541 l 1
 642 541 l 1
 572 164 l 0
 555 75 582 22 582 21 c 1
 592 1 l 1
 447 -6 l 1
 446 8 l 1
 446 11 441 75 456 157 c 0
 469 229 l 1
 226 229 l 1
 183 0 l 1
EndSplineSet
EndChar

StartChar: afii10086
Encoding: 1092 1092 419
Width: 613
Flags: W
HStem: -197 22G<217 338>
LayerCount: 2
Fore
SplineSet
348 547 m 1
 375 696 l 1
 494 713 l 1
 465 547 l 1
 570 522 647 425 619 268 c 0
 592 117 482 18 367 -7 c 1
 334 -197 l 1
 217 -197 l 1
 250 -9 l 1
 133 18 65 126 90 267 c 0
 115 410 224 519 348 547 c 1
207 274 m 0
 190 179 221 111 267 84 c 1
 333 458 l 1
 278 433 224 370 207 274 c 0
506 265 m 0
 524 365 491 426 449 453 c 1
 384 86 l 1
 436 112 490 172 506 265 c 0
EndSplineSet
EndChar

StartChar: afii10088
Encoding: 1094 1094 421
Width: 613
Flags: W
LayerCount: 2
Fore
SplineSet
272 -13 m 0
 196 -13 129 27 108 102 c 0
 94 150 103 199 111 243 c 0
 142 405 l 0
 153 462 142 503 132 520 c 0
 122 539 l 1
 257 555 l 1
 261 543 l 0
 263 537 276 497 265 438 c 0
 228 242 l 0
 221 207 216 171 227 140 c 1
 239 105 267 87 304 87 c 0
 350 87 400 117 430 156 c 0
 453 185 461 212 468 251 c 0
 523 542 l 1
 640 542 l 1
 570 164 l 0
 554 76 587 23 588 22 c 1
 601 1 l 1
 571 -0 l 1
 550 -57 501 -108 493 -127 c 0
 489 -136 l 1
 362 -138 l 1
 375 -115 l 0
 402 -66 450 -21 457 -1 c 1
 456 1 l 1
 455 1 l 0
 452 4 451 10 451 15 c 1
 451 15 447 49 447 61 c 1
 396 18 329 -13 272 -13 c 0
EndSplineSet
EndChar

StartChar: afii10089
Encoding: 1095 1095 422
Width: 613
Flags: W
LayerCount: 2
Fore
SplineSet
132 520 m 0
 122 539 l 1
 257 555 l 1
 261 543 l 0
 263 537 276 497 265 437 c 0
 260 409 l 0
 253 374 247 336 258 305 c 1
 270 270 299 252 336 252 c 0
 382 252 432 281 462 321 c 0
 485 351 493 379 500 418 c 0
 523 542 l 1
 640 542 l 1
 570 164 l 0
 553 74 579 21 579 21 c 1
 588 1 l 1
 444 -6 l 1
 443 8 l 1
 443 11 437 73 452 152 c 1
 463 215 l 1
 417 175 361 151 304 151 c 0
 228 151 161 193 140 269 c 1
 126 318 135 367 143 412 c 1
 154 469 142 501 132 520 c 0
EndSplineSet
EndChar

StartChar: afii10090
Encoding: 1096 1096 423
Width: 613
Flags: W
LayerCount: 2
Fore
SplineSet
61 36 m 1
 43 70 49 110 56 146 c 0
 57 152 58 159 59 165 c 0
 106 414 l 0
 117 471 105 502 95 520 c 0
 85 539 l 1
 214 556 l 1
 218 543 l 0
 220 537 233 497 222 438 c 0
 170 165 l 0
 168 156 167 146 165 137 c 0
 162 122 161 107 163 97 c 1
 167 84 175 80 186 80 c 0
 209 80 234 105 246 120 c 1
 270 149 276 168 281 194 c 0
 346 542 l 1
 457 542 l 1
 393 173 l 0
 391 164 389 155 388 147 c 0
 385 132 383 118 385 106 c 1
 388 84 400 78 413 78 c 0
 428 78 451 88 475 122 c 1
 494 148 499 168 503 193 c 0
 564 542 l 1
 673 542 l 1
 604 164 l 1
 587 75 618 22 618 22 c 1
 630 1 l 1
 484 -6 l 1
 483 8 l 1
 483 9 482 21 482 36 c 1
 450 7 410 -13 369 -13 c 0
 326 -13 292 10 278 45 c 1
 244 9 198 -13 151 -13 c 0
 118 -13 79 -1 61 36 c 1
EndSplineSet
EndChar

StartChar: afii10091
Encoding: 1097 1097 424
Width: 613
Flags: W
LayerCount: 2
Fore
SplineSet
483 9 m 1
 483 9 482 10 482 13 c 0
 482 18 482 28 482 36 c 1
 450 7 410 -13 369 -13 c 0
 326 -13 292 10 278 45 c 1
 244 9 198 -13 151 -13 c 0
 118 -13 79 -1 61 36 c 1
 43 70 49 110 56 146 c 0
 57 152 58 159 59 165 c 2
 106 414 l 2
 117 471 105 502 95 520 c 2
 85 539 l 1
 214 556 l 1
 218 543 l 2
 220 537 233 497 222 438 c 2
 170 165 l 2
 168 156 167 146 165 137 c 0
 162 122 161 107 163 97 c 0
 167 84 175 80 186 80 c 0
 209 80 234 105 246 120 c 0
 270 149 276 168 281 194 c 2
 346 542 l 1
 457 542 l 1
 392 173 l 2
 390 164 388 155 387 147 c 0
 384 132 383 118 385 106 c 0
 388 84 400 78 413 78 c 0
 428 78 450 88 474 122 c 0
 493 148 499 168 503 193 c 2
 564 542 l 1
 673 542 l 1
 604 164 l 2
 587 75 618 22 618 22 c 2
 630 1 l 1
 603 -0 l 1
 582 -57 533 -108 525 -127 c 2
 521 -136 l 1
 394 -138 l 1
 406 -115 l 2
 430 -70 476 -29 487 -6 c 1
 484 -6 l 1
 483 9 l 1
EndSplineSet
EndChar

StartChar: afii10092
Encoding: 1098 1098 425
Width: 613
Flags: W
LayerCount: 2
Fore
SplineSet
224 437 m 1
 111 437 l 1
 130 543 l 1
 356 543 l 1
 318 340 l 1
 431 340 486 334 522 305 c 0
 568 268 596 219 584 154 c 0
 572 92 467 0 358 0 c 0
 254 0 234 21 163 33 c 0
 148 35 l 1
 224 437 l 1
300 243 m 1
 276 116 l 1
 285 109 308 94 355 94 c 0
 417 94 461 145 465 167 c 0
 470 191 455 229 417 237 c 0
 387 243 344 243 307 243 c 0
 300 243 l 1
EndSplineSet
EndChar

StartChar: afii10093
Encoding: 1099 1099 426
Width: 613
Flags: W
LayerCount: 2
Fore
SplineSet
61 33 m 0
 47 36 l 1
 141 543 l 1
 253 543 l 1
 257 532 l 0
 258 528 259 524 258 520 c 0
 254 501 247 503 246 498 c 0
 217 340 l 1
 330 340 364 332 399 304 c 0
 447 266 461 217 449 154 c 0
 438 94 378 36 311 16 c 1
 289 10 255 0 205 0 c 0
 152 0 105 24 61 33 c 0
199 243 m 1
 173 113 l 1
 175 109 184 94 229 94 c 0
 285 94 326 144 330 167 c 0
 335 194 329 230 293 237 c 0
 262 244 242 243 205 243 c 0
 199 243 l 1
473 -6 m 1
 472 9 l 2
 472 11 467 77 482 159 c 0
 553 543 l 1
 666 543 l 1
 669 532 l 0
 670 528 671 524 670 520 c 0
 666 501 659 503 658 498 c 0
 596 164 l 0
 579 74 605 21 605 21 c 1
 614 1 l 1
 473 -6 l 1
EndSplineSet
EndChar

StartChar: afii10094
Encoding: 1100 1100 427
Width: 613
Flags: W
LayerCount: 2
Fore
SplineSet
110 33 m 0
 96 36 l 1
 190 543 l 1
 302 543 l 1
 306 532 l 0
 307 528 308 524 307 520 c 0
 303 501 296 504 295 499 c 0
 266 344 l 1
 308 344 l 0
 422 344 466 336 503 308 c 0
 553 269 569 220 557 156 c 0
 546 95 484 36 413 16 c 0
 388 9 341 0 281 0 c 0
 219 0 163 22 110 33 c 0
248 243 m 1
 224 107 l 1
 240 99 266 88 286 88 c 0
 321 88 341 88 373 96 c 0
 422 108 436 133 441 159 c 0
 446 188 440 227 399 236 c 0
 365 243 338 243 301 243 c 0
 248 243 l 1
EndSplineSet
EndChar

StartChar: afii10095
Encoding: 1101 1101 428
Width: 613
Flags: W
LayerCount: 2
Fore
SplineSet
81 94 m 0
 76 103 l 1
 169 194 l 1
 179 185 l 0
 195 171 185 153 185 153 c 1
 188 145 220 90 301 90 c 0
 388 90 467 148 491 244 c 1
 245 244 l 5
 262 340 l 5
 496 340 l 1
 482 405 429 444 356 444 c 0
 306 444 254 422 213 384 c 0
 199 371 l 1
 144 452 l 1
 155 462 l 0
 220 521 302 553 382 553 c 0
 544 553 644 431 615 269 c 0
 587 107 445 -13 277 -13 c 0
 185 -13 115 27 81 94 c 0
EndSplineSet
EndChar

StartChar: afii10096
Encoding: 1102 1102 429
Width: 613
Flags: W
LayerCount: 2
Fore
SplineSet
157 0 m 1
 44 0 l 1
 120 405 l 1
 131 462 120 503 110 520 c 0
 100 539 l 1
 230 555 l 1
 234 543 l 0
 236 537 250 498 239 439 c 0
 220 340 l 1
 275 340 l 1
 317 465 404 554 494 554 c 0
 500 554 507 553 513 552 c 0
 600 538 650 433 619 266 c 0
 587 93 490 -14 392 -14 c 0
 387 -14 383 -14 378 -13 c 0
 284 -2 236 108 254 244 c 1
 203 244 l 1
 157 0 l 1
477 451 m 0
 454 451 403 395 379 271 c 0
 373 238 370 209 370 184 c 0
 370 114 392 90 405 90 c 0
 427 90 477 141 501 268 c 0
 508 304 511 335 511 360 c 0
 511 432 488 451 477 451 c 0
EndSplineSet
EndChar

StartChar: afii10097
Encoding: 1103 1103 430
Width: 613
Flags: W
LayerCount: 2
Fore
SplineSet
186 0 m 1
 52 0 l 1
 250 215 l 1
 234 221 223 228 211 238 c 0
 164 276 150 325 162 388 c 0
 173 448 231 507 299 527 c 0
 330 536 379 543 416 543 c 0
 449 543 l 0
 602 543 567 513 617 501 c 0
 641 495 l 1
 625 477 l 1
 622 473 611 448 606 423 c 1
 559 164 l 1
 542 74 567 21 567 21 c 1
 577 1 l 1
 436 -6 l 1
 435 8 l 1
 435 13 428 74 444 156 c 0
 452 198 l 1
 372 198 l 1
 186 0 l 1
336 432 m 0
 292 421 283 400 278 375 c 0
 272 346 274 313 310 306 c 0
 343 299 347 299 376 299 c 0
 470 299 l 1
 491 406 l 1
 496 431 l 1
 492 434 480 439 451 439 c 0
 392 439 l 0
 367 439 368 440 336 432 c 0
EndSplineSet
EndChar

StartChar: afii10051
Encoding: 1026 1026 433
Width: 613
Flags: W
LayerCount: 2
Fore
SplineSet
224 635 m 1
 111 635 l 1
 130 740 l 1
 535 740 l 1
 516 635 l 1
 339 635 l 1
 307 455 l 1
 358 496 423 519 475 519 c 0
 537 519 627 499 646 431 c 0
 659 385 649 327 642 288 c 0
 603 66 l 0
 594 14 582 -45 541 -101 c 1
 490 -171 402 -207 327 -207 c 0
 258 -207 195 -175 158 -119 c 0
 152 -110 l 1
 241 -20 l 1
 251 -30 l 0
 261 -40 257 -55 257 -55 c 1
 264 -64 297 -102 347 -102 c 0
 378 -102 422 -86 442 -62 c 1
 470 -30 479 13 486 55 c 0
 527 285 l 0
 533 320 538 358 521 385 c 0
 512 398 463 411 426 411 c 0
 393 411 328 386 311 367 c 0
 298 353 286 320 280 301 c 1
 227 -1 l 1
 112 -1 l 1
 224 635 l 1
EndSplineSet
EndChar

StartChar: afii10053
Encoding: 1028 1028 435
Width: 613
Flags: W
LayerCount: 2
Fore
SplineSet
337 -12 m 0
 206 -12 57 84 107 365 c 0
 158 656 348 745 471 745 c 0
 575 745 658 685 684 590 c 0
 688 576 l 1
 579 527 l 1
 572 532 l 0
 561 541 565 555 565 556 c 0
 566 561 567 564 567 565 c 0
 567 567 568 566 566 570 c 0
 547 617 503 648 451 648 c 0
 370 648 279 577 236 439 c 1
 523 439 l 1
 504 333 l 1
 215 333 l 1
 199 171 271 90 360 90 c 0
 412 90 471 121 512 173 c 0
 523 186 l 1
 600 130 l 1
 590 117 l 0
 527 37 431 -12 337 -12 c 0
EndSplineSet
EndChar

StartChar: afii10058
Encoding: 1033 1033 440
Width: 613
Flags: W
LayerCount: 2
Fore
SplineSet
14 42 m 0
 10 48 l 1
 69 153 l 1
 83 133 l 0
 90 122 88 111 88 110 c 0
 88 108 89 104 90 100 c 1
 96 120 103 146 106 159 c 0
 126 237 185 536 208 655 c 0
 214 686 212 722 212 722 c 0
 211 740 l 1
 524 740 l 1
 527 732 l 0
 528 728 528 724 527 720 c 0
 523 700 517 702 516 698 c 0
 472 446 l 1
 529 446 571 445 609 403 c 0
 648 360 662 297 647 212 c 0
 633 135 588 60 519 24 c 0
 475 1 434 1 398 1 c 0
 281 1 l 1
 392 636 l 1
 316 636 l 1
 287 495 230 206 207 122 c 0
 179 23 135 -8 94 -8 c 0
 59 -8 31 10 14 42 c 0
457 365 m 1
 411 104 l 1
 422 104 l 0
 441 104 455 105 472 116 c 0
 500 134 524 179 533 229 c 0
 542 280 534 328 510 350 c 0
 495 364 478 365 457 365 c 1
EndSplineSet
EndChar

StartChar: afii10059
Encoding: 1034 1034 441
Width: 613
Flags: W
LayerCount: 2
Fore
SplineSet
133 0 m 1
 16 0 l 1
 147 739 l 1
 264 739 l 1
 267 731 l 0
 268 727 268 723 267 719 c 0
 263 699 257 701 256 697 c 0
 210 438 l 1
 345 438 l 1
 398 740 l 1
 511 740 l 1
 514 732 l 0
 515 728 515 724 514 720 c 0
 510 700 504 702 503 698 c 0
 459 446 l 1
 520 446 562 445 603 403 c 0
 644 360 661 298 646 212 c 0
 632 135 584 60 512 24 c 0
 466 1 424 1 386 1 c 0
 268 1 l 1
 327 337 l 1
 193 337 l 1
 133 0 l 1
444 365 m 1
 398 104 l 1
 411 104 l 0
 432 104 448 105 467 117 c 0
 497 136 523 179 532 229 c 0
 541 279 530 327 504 349 c 0
 487 363 467 365 444 365 c 1
EndSplineSet
EndChar

StartChar: afii10060
Encoding: 1035 1035 442
Width: 613
Flags: W
LayerCount: 2
Fore
SplineSet
240 635 m 1
 127 635 l 1
 146 740 l 1
 551 740 l 1
 532 635 l 1
 355 635 l 1
 323 455 l 1
 374 496 439 519 491 519 c 0
 554 519 630 497 649 431 c 0
 662 385 652 329 645 290 c 0
 594 -1 l 1
 479 -1 l 1
 530 285 l 0
 536 320 541 358 524 385 c 0
 514 400 478 411 442 411 c 0
 409 411 344 386 327 367 c 0
 314 353 302 320 296 301 c 1
 243 -1 l 1
 128 -1 l 1
 240 635 l 1
EndSplineSet
EndChar

StartChar: afii10145
Encoding: 1039 1039 445
Width: 613
Flags: W
LayerCount: 2
Fore
SplineSet
256 0 m 1
 49 0 l 1
 180 739 l 1
 297 739 l 1
 299 731 l 0
 300 727 301 723 300 719 c 0
 296 699 290 701 289 697 c 0
 184 101 l 1
 473 101 l 1
 585 739 l 1
 699 739 l 1
 703 732 l 0
 705 728 705 724 704 720 c 0
 700 698 692 701 692 699 c 0
 568 0 l 1
 370 0 l 1
 339 -172 l 1
 226 -172 l 1
 256 0 l 1
EndSplineSet
EndChar

StartChar: afii10099
Encoding: 1106 1106 446
Width: 613
Flags: W
LayerCount: 2
Fore
SplineSet
213 614 m 1
 139 614 l 1
 156 709 l 1
 230 709 l 1
 244 788 l 1
 369 788 l 1
 370 778 l 0
 370 775 371 773 370 770 c 0
 367 755 355 747 354 746 c 0
 354 746 354 746 354 745 c 0
 348 709 l 1
 481 709 l 1
 465 614 l 1
 331 614 l 1
 307 476 l 1
 357 522 421 555 485 555 c 0
 553 555 608 518 626 455 c 0
 639 410 631 364 624 324 c 0
 575 47 l 0
 567 2 557 -43 524 -90 c 0
 470 -168 382 -207 300 -207 c 0
 228 -207 170 -177 137 -125 c 0
 131 -116 l 1
 220 -20 l 1
 231 -30 l 0
 243 -41 240 -56 240 -56 c 0
 242 -60 266 -102 324 -102 c 0
 364 -102 405 -81 430 -43 c 0
 446 -19 452 5 457 32 c 0
 508 319 l 0
 514 355 521 395 501 423 c 0
 488 442 467 450 444 450 c 0
 395 450 339 409 315 385 c 0
 290 360 283 340 277 307 c 0
 223 0 l 1
 105 0 l 1
 213 614 l 1
EndSplineSet
EndChar

StartChar: afii10101
Encoding: 1108 1108 448
Width: 613
Flags: W
LayerCount: 2
Fore
SplineSet
293 -9 m 0
 158 13 83 129 110 274 c 0
 140 435 280 553 447 553 c 0
 539 553 610 513 645 444 c 0
 651 434 l 1
 559 346 l 1
 549 355 l 0
 532 370 542 389 542 389 c 1
 538 399 508 450 429 450 c 0
 355 450 284 409 248 340 c 1
 508 340 l 1
 491 244 l 1
 225 244 l 1
 225 240 225 236 225 233 c 0
 225 148 279 95 362 95 c 0
 413 95 499 120 538 157 c 0
 551 169 l 1
 608 86 l 1
 598 77 l 0
 532 18 420 -13 341 -13 c 0
 324 -13 309 -12 293 -9 c 0
EndSplineSet
EndChar

StartChar: afii10106
Encoding: 1113 1113 453
Width: 613
Flags: W
LayerCount: 2
Fore
SplineSet
12 42 m 0
 8 49 l 1
 67 150 l 1
 81 130 l 0
 89 118 86 106 86 106 c 0
 86 105 87 100 88 98 c 1
 95 119 101 145 105 159 c 0
 118 207 119 215 145 337 c 0
 158 399 187 447 219 483 c 0
 253 521 302 543 338 543 c 0
 454 543 430 514 481 501 c 0
 504 495 l 1
 489 477 l 1
 486 473 474 449 469 423 c 0
 454 339 l 1
 542 339 571 331 599 303 c 0
 638 264 649 215 637 153 c 0
 626 94 544 0 459 0 c 0
 391 0 360 21 297 33 c 0
 282 36 l 1
 360 446 l 1
 360 446 356 449 345 449 c 0
 315 449 267 386 253 320 c 0
 224 189 221 172 205 118 c 0
 177 21 134 -8 94 -8 c 0
 59 -8 29 10 12 42 c 0
436 242 m 1
 410 111 l 1
 411 100 424 94 442 94 c 0
 493 94 523 141 528 166 c 0
 534 195 528 230 503 236 c 0
 478 242 466 242 438 242 c 0
 436 242 l 1
EndSplineSet
EndChar

StartChar: afii10107
Encoding: 1114 1114 454
Width: 613
Flags: W
LayerCount: 2
Fore
SplineSet
130 0 m 1
 13 0 l 1
 88 404 l 0
 99 460 88 503 79 520 c 0
 69 539 l 1
 204 555 l 1
 208 543 l 0
 210 537 222 498 211 439 c 0
 191 331 l 1
 323 331 l 1
 363 541 l 1
 376 541 l 0
 404 541 431 541 459 541 c 0
 476 541 l 1
 480 531 l 0
 481 527 481 523 480 519 c 0
 476 500 470 503 469 498 c 0
 439 343 l 1
 441 343 l 0
 533 343 570 335 599 306 c 0
 638 267 649 218 637 155 c 0
 626 97 593 52 548 22 c 0
 533 12 503 0 428 0 c 0
 350 0 344 21 283 33 c 0
 268 36 l 1
 304 229 l 1
 173 229 l 1
 130 0 l 1
422 242 m 1
 396 112 l 1
 403 105 437 94 463 94 c 0
 489 94 523 140 528 166 c 0
 534 195 528 230 503 236 c 0
 479 242 452 242 424 242 c 0
 422 242 l 1
EndSplineSet
EndChar

StartChar: afii10108
Encoding: 1115 1115 455
Width: 613
Flags: W
LayerCount: 2
Fore
SplineSet
356 743 m 2
 350 709 l 1
 484 709 l 1
 468 614 l 1
 333 614 l 1
 309 478 l 1
 359 523 421 555 485 555 c 0
 553 555 609 518 627 454 c 0
 640 409 631 364 624 324 c 2
 594 164 l 2
 577 75 605 22 605 21 c 2
 615 1 l 1
 470 -6 l 1
 469 9 l 2
 469 12 463 76 478 157 c 2
 509 323 l 2
 516 359 522 397 503 424 c 0
 491 441 472 450 449 450 c 0
 399 450 341 408 317 384 c 0
 291 358 283 337 277 304 c 2
 220 0 l 1
 102 0 l 1
 215 614 l 1
 142 614 l 1
 158 709 l 1
 232 709 l 1
 246 788 l 1
 370 788 l 1
 372 776 l 2
 372 773 372 770 372 767 c 0
 370 753 359 746 358 745 c 0
 357 744 356 744 356 744 c 2
 356 744 356 744 356 743 c 2
EndSplineSet
EndChar

StartChar: afii10193
Encoding: 1119 1119 458
Width: 613
Flags: W
LayerCount: 2
Fore
SplineSet
267 -13 m 1
 192 -11 129 29 108 102 c 0
 94 150 103 199 111 243 c 0
 142 405 l 0
 153 462 142 503 132 520 c 0
 122 539 l 1
 257 555 l 1
 261 543 l 0
 263 537 276 497 265 438 c 0
 228 242 l 0
 221 207 216 171 227 140 c 1
 239 105 267 87 304 87 c 0
 350 87 400 117 430 156 c 0
 453 185 461 212 468 251 c 0
 523 542 l 1
 640 542 l 1
 570 164 l 0
 554 76 587 23 588 22 c 1
 601 1 l 1
 456 -6 l 1
 453 5 l 1
 452 11 448 25 447 61 c 1
 429 46 412 34 394 24 c 1
 393 20 393 16 392 12 c 0
 379 -49 318 -108 310 -127 c 0
 306 -136 l 1
 179 -138 l 1
 191 -115 l 0
 213 -74 251 -37 267 -13 c 1
EndSplineSet
EndChar

StartChar: afii10050
Encoding: 1168 1168 459
Width: 613
Flags: W
LayerCount: 2
Fore
SplineSet
175 0 m 1
 65 0 l 1
 195 740 l 1
 565 740 l 1
 600 939 l 1
 714 939 l 1
 661 636 l 1
 286 636 l 1
 189 85 l 1
 184 58 182 43 178 15 c 0
 175 0 l 1
EndSplineSet
EndChar

StartChar: afii10098
Encoding: 1169 1169 460
Width: 613
Flags: W
LayerCount: 2
Fore
SplineSet
200 0 m 1
 85 0 l 1
 186 544 l 1
 459 544 l 0
 486 544 514 583 519 611 c 1
 533 684 l 1
 671 692 l 1
 659 669 l 0
 659 669 638 626 633 599 c 0
 622 539 589 491 544 460 c 0
 528 449 499 438 424 438 c 0
 282 438 l 1
 200 0 l 1
EndSplineSet
EndChar

StartChar: afii10084.mkd
Encoding: 65548 -1 465
Width: 613
Flags: W
LayerCount: 2
Fore
SplineSet
203 640 m 1
 220 737 l 1
 654 737 l 1
 637 640 l 1
 203 640 l 1
EndSplineSet
Refer: 423 1096 N 1 0 0 1 0 0 2
EndChar

StartChar: afii61352
Encoding: 8470 8470 467
Width: 613
Flags: W
LayerCount: 2
Fore
SplineSet
435 333 m 0
 459 468 520 568 584 568 c 0
 640 568 672 489 647 347 c 0
 620 194 557 114 500 114 c 0
 439 114 412 204 435 333 c 0
566 481 m 0
 561 481 531 444 512 338 c 0
 494 235 512 203 517 203 c 0
 521 203 550 232 569 338 c 0
 588 444 571 481 566 481 c 0
364 0 m 1
 377 75 l 1
 616 75 l 1
 603 0 l 1
 364 0 l 1
121 0 m 1
 20 0 l 1
 151 739 l 1
 250 739 l 1
 288 322 l 1
 362 741 l 1
 469 741 l 1
 469 733 l 0
 469 722 462 714 460 711 c 0
 456 705 456 705 455 699 c 0
 331 0 l 1
 248 0 l 1
 198 435 l 1
 121 0 l 1
EndSplineSet
EndChar

StartChar: Hbar
Encoding: 294 294 468
Width: 613
Flags: W
LayerCount: 2
Fore
SplineSet
173 644 m 1
 190 739 l 1
 307 739 l 1
 310 731 l 0
 311 727 311 723 310 719 c 0
 306 698 300 699 299 695 c 0
 289 640 l 1
 548 640 l 1
 566 739 l 1
 680 739 l 1
 683 732 l 0
 685 728 685 724 684 720 c 0
 680 698 672 701 672 699 c 0
 662 644 l 1
 713 644 l 1
 697 553 l 1
 646 553 l 1
 549 -1 l 1
 434 -1 l 1
 494 337 l 1
 236 337 l 1
 176 0 l 1
 59 0 l 1
 157 554 l 1
 113 554 l 1
 129 644 l 1
 173 644 l 1
512 438 m 1
 534 561 l 1
 275 561 l 1
 253 438 l 1
 512 438 l 1
EndSplineSet
EndChar

StartChar: Tbar
Encoding: 358 358 491
Width: 613
Flags: W
LayerCount: 2
Fore
SplineSet
144 635 m 1
 162 740 l 1
 705 740 l 1
 686 635 l 1
 468 635 l 1
 435 445 l 1
 603 445 l 1
 586 348 l 1
 418 348 l 1
 356 -1 l 1
 241 -1 l 1
 303 348 l 1
 147 348 l 1
 165 445 l 1
 320 445 l 1
 354 635 l 1
 144 635 l 1
EndSplineSet
EndChar

StartChar: tbar
Encoding: 359 359 497
Width: 613
Flags: W
LayerCount: 2
Fore
SplineSet
304 542 m 1
 340 685 l 1
 459 704 l 1
 463 694 l 0
 465 688 463 683 463 681 c 0
 460 665 452 657 450 653 c 1
 442 630 426 571 419 543 c 1
 594 543 l 1
 577 441 l 1
 397 441 l 1
 387 408 379 375 372 343 c 1
 534 343 l 1
 516 246 l 1
 354 246 l 1
 344 186 343 172 342 165 c 1
 341 114 374 99 407 99 c 0
 436 99 478 113 528 146 c 0
 546 157 l 1
 567 60 l 1
 556 53 l 0
 502 18 432 -10 363 -10 c 0
 304 -10 259 12 237 50 c 1
 210 97 220 152 228 197 c 0
 231 213 234 230 237 246 c 1
 127 246 l 1
 144 343 l 1
 257 343 l 1
 265 377 272 408 281 441 c 1
 155 441 l 1
 175 542 l 1
 304 542 l 1
EndSplineSet
EndChar

StartChar: Uogonek
Encoding: 370 370 505
Width: 613
Flags: W
LayerCount: 2
Fore
SplineSet
100 259 m 2
 185 739 l 1
 303 739 l 1
 306 730 l 2
 307 726 307 723 306 719 c 0
 304 706 293 696 291 694 c 0
 288 691 289 692 288 688 c 2
 213 261 l 2
 207 226 202 194 212 163 c 0
 227 114 273 88 326 88 c 0
 378 88 433 113 466 162 c 0
 488 195 495 228 501 264 c 2
 585 739 l 1
 695 739 l 1
 611 263 l 2
 602 211 590 158 551 105 c 0
 542 92 532 82 521 71 c 1
 521 71 l 0
 518 68 515 65 512 62 c 0
 511 61 509 59 507 58 c 2
 427 -11 l 1
 382 -44 348 -73 336 -83 c 0
 326 -92 313 -103 311 -117 c 0
 309 -131 317 -142 335 -142 c 0
 341 -142 350 -140 363 -136 c 0
 382 -130 395 -122 403 -116 c 2
 414 -108 l 1
 402 -178 l 1
 399 -180 l 2
 371 -201 338 -209 308 -209 c 0
 244 -209 215 -176 222 -135 c 0
 228 -99 265 -57 326 -13 c 1
 319 -13 312 -13 306 -13 c 0
 214 -13 133 26 103 105 c 0
 83 157 91 209 100 259 c 2
EndSplineSet
EndChar

StartChar: IJ
Encoding: 306 306 521
Width: 613
Flags: W
LayerCount: 2
Fore
SplineSet
308 -1 m 1
 12 -1 l 1
 30 99 l 1
 110 99 l 1
 210 639 l 1
 139 639 l 1
 156 739 l 1
 748 739 l 1
 730 639 l 1
 657 639 l 1
 552 68 l 0
 543 17 532 -40 492 -94 c 1
 443 -161 370 -199 294 -199 c 0
 225 -199 161 -167 123 -110 c 0
 116 -99 l 1
 203 -12 l 1
 214 -23 l 0
 224 -33 221 -47 221 -48 c 1
 230 -59 261 -94 309 -94 c 0
 339 -94 370 -80 392 -53 c 1
 421 -20 430 23 438 65 c 0
 544 639 l 1
 325 639 l 1
 224 98 l 1
 325 98 l 1
 308 -1 l 1
EndSplineSet
EndChar

StartChar: ij
Encoding: 307 307 522
Width: 613
Flags: W
LayerCount: 2
Fore
SplineSet
512 441 m 1
 342 441 l 1
 290 171 l 1
 288 159 286 146 286 136 c 0
 286 114 290 105 310 105 c 0
 333 105 339 110 371 112 c 0
 391 113 l 1
 369 0 l 1
 316 0 l 0
 278 0 238 1 210 20 c 1
 165 49 161 103 173 165 c 0
 225 442 l 1
 103 442 l 1
 121 543 l 1
 648 543 l 1
 555 44 l 0
 547 -1 537 -46 504 -92 c 0
 451 -169 365 -207 283 -207 c 0
 212 -207 151 -177 117 -124 c 0
 111 -114 l 1
 198 -20 l 1
 209 -31 l 0
 223 -44 219 -58 219 -58 c 0
 221 -62 244 -102 301 -102 c 0
 341 -102 384 -81 409 -41 c 0
 426 -17 431 8 436 35 c 0
 512 441 l 1
308 627 m 0
 271 633 248 668 255 706 c 0
 262 747 300 778 342 778 c 0
 346 778 351 778 355 777 c 0
 392 771 415 737 408 699 c 0
 401 658 363 626 321 626 c 0
 317 626 312 626 308 627 c 0
594 627 m 0
 557 633 535 668 542 706 c 0
 549 747 587 778 629 778 c 0
 633 778 638 778 642 777 c 0
 679 771 702 737 695 699 c 0
 688 658 649 626 607 626 c 0
 603 626 598 626 594 627 c 0
EndSplineSet
EndChar

StartChar: napostrophe
Encoding: 329 329 525
Width: 613
Flags: W
LayerCount: 2
Fore
SplineSet
284 0 m 1
 166 0 l 1
 236 377 l 0
 249 448 242 501 231 520 c 0
 221 539 l 1
 356 555 l 1
 360 543 l 0
 363 535 366 512 365 471 c 1
 407 515 455 554 528 555 c 0
 596 556 652 518 670 454 c 0
 683 409 674 364 667 324 c 0
 637 164 l 0
 620 75 648 22 648 21 c 1
 658 1 l 1
 513 -6 l 1
 512 9 l 0
 512 10 505 75 521 157 c 0
 552 323 l 0
 559 359 565 397 546 424 c 0
 534 441 515 450 492 450 c 0
 444 450 408 411 381 384 c 0
 355 358 348 337 342 304 c 0
 284 0 l 1
EndSplineSet
Refer: 56 8217 N 1 0 0 1 -195 0 2
EndChar

StartChar: longs
Encoding: 383 383 532
Width: 613
Flags: W
LayerCount: 2
Fore
SplineSet
267 -172 m 1
 154 -172 l 1
 287 551 l 0
 296 599 306 648 344 696 c 0
 396 762 478 796 558 796 c 0
 631 796 690 767 724 715 c 0
 729 706 l 1
 666 612 l 1
 658 612 l 0
 647 612 633 623 635 639 c 1
 635 642 636 644 636 644 c 1
 635 645 l 0
 621 674 589 698 542 698 c 0
 502 698 461 680 434 644 c 1
 412 615 405 581 399 545 c 0
 398 541 398 538 397 534 c 0
 267 -172 l 1
EndSplineSet
EndChar

StartChar: endash
Encoding: 8211 8211 547
Width: 613
Flags: W
LayerCount: 2
Fore
SplineSet
169 334 m 1
 189 443 l 1
 582 443 l 1
 563 334 l 1
 169 334 l 1
EndSplineSet
EndChar

StartChar: emdash
Encoding: 8212 8212 548
Width: 613
Flags: W
LayerCount: 2
Fore
SplineSet
98 334 m 1
 118 443 l 1
 662 443 l 1
 643 334 l 1
 98 334 l 1
EndSplineSet
EndChar

StartChar: afii00208
Encoding: 8213 8213 549
Width: 613
Flags: W
LayerCount: 2
Fore
SplineSet
44 334 m 1
 63 443 l 1
 708 443 l 1
 689 334 l 1
 44 334 l 1
EndSplineSet
EndChar

StartChar: quotereversed
Encoding: 8219 8219 551
Width: 613
Flags: W
LayerCount: 2
Fore
SplineSet
399 440 m 0
 329 517 295 590 306 653 c 0
 317 715 370 757 422 757 c 0
 470 757 499 721 492 682 c 0
 486 646 453 630 442 624 c 0
 430 618 418 612 416 598 c 0
 414 586 421 569 425 561 c 0
 433 545 448 520 471 498 c 0
 482 486 l 1
 407 429 l 1
 399 440 l 0
EndSplineSet
EndChar

StartChar: uni201F
Encoding: 8223 8223 552
Width: 613
Flags: W
LayerCount: 2
Fore
SplineSet
276 440 m 0
 206 517 172 590 183 653 c 0
 194 715 247 757 299 757 c 0
 347 757 376 721 369 682 c 0
 363 646 330 630 319 624 c 0
 307 618 296 612 294 598 c 0
 292 586 298 569 302 561 c 0
 310 545 325 520 348 498 c 0
 359 486 l 1
 284 429 l 1
 276 440 l 0
521 440 m 0
 451 517 417 590 428 653 c 0
 439 715 493 757 545 757 c 0
 593 757 622 721 615 682 c 0
 609 646 576 630 565 624 c 0
 553 618 541 612 539 598 c 0
 537 586 544 569 548 561 c 0
 556 545 571 520 594 498 c 0
 604 486 l 1
 530 429 l 1
 521 440 l 0
EndSplineSet
EndChar

StartChar: perthousand
Encoding: 8240 8240 553
Width: 613
Flags: W
LayerCount: 2
Fore
SplineSet
239 589 m 0
 253 671 235 675 235 675 c 1
 234 675 214 667 202 598 c 0
 188 520 206 513 207 513 c 0
 209 513 227 522 239 589 c 0
120 594 m 0
 136 684 192 753 249 753 c 0
 307 753 338 680 322 588 c 0
 321 584 321 580 320 576 c 2
 394 739 l 1
 490 739 l 1
 263 250 l 1
 287 284 319 306 350 306 c 0
 408 306 439 235 423 146 c 0
 408 59 353 -12 295 -12 c 0
 236 -12 205 60 221 148 c 0
 223 157 225 165 227 174 c 1
 146 -0 l 1
 54 -0 l 1
 275 483 l 1
 252 453 223 435 194 435 c 0
 135 435 105 506 120 594 c 0
549 143 m 0
 563 225 544 228 544 228 c 1
 543 228 523 220 511 151 c 0
 497 73 515 67 516 67 c 0
 518 67 537 76 549 143 c 0
430 147 m 0
 446 237 502 306 559 306 c 0
 617 306 648 235 632 146 c 0
 617 59 562 -12 504 -12 c 0
 445 -12 415 59 430 147 c 0
340 143 m 0
 354 225 335 228 335 228 c 1
 334 228 314 220 302 151 c 0
 288 73 306 67 307 67 c 0
 309 67 328 76 340 143 c 0
EndSplineSet
EndChar

StartChar: minute
Encoding: 8242 8242 554
Width: 613
Flags: W
LayerCount: 2
Fore
SplineSet
308 523 m 1
 434 758 l 1
 577 758 l 1
 413 523 l 1
 308 523 l 1
EndSplineSet
EndChar

StartChar: uni207F
Encoding: 8319 8319 558
Width: 613
Flags: W
LayerCount: 2
Fore
SplineSet
551 519 m 1
 544 472 l 1
 527 378 554 321 554 320 c 1
 564 299 l 1
 431 292 l 1
 430 307 l 0
 430 308 424 378 440 466 c 1
 450 523 l 1
 453 540 453 548 447 554 c 0
 446 556 l 1
 445 557 l 0
 441 543 433 536 424 536 c 0
 401 536 373 545 361 550 c 1
 349 536 346 528 343 509 c 0
 306 299 l 1
 202 299 l 1
 265 624 l 1
 369 624 l 1
 366 606 l 1
 393 622 420 632 450 632 c 0
 497 632 536 603 549 558 c 1
 559 543 554 529 551 519 c 1
EndSplineSet
EndChar

StartChar: franc
Encoding: 8355 8355 559
Width: 613
Flags: W
LayerCount: 2
Fore
SplineSet
263 228 m 1
 223 0 l 1
 109 0 l 1
 149 228 l 1
 57 228 l 1
 75 331 l 1
 167 331 l 1
 176 384 l 1
 85 384 l 1
 103 486 l 1
 194 486 l 1
 239 740 l 1
 696 740 l 1
 678 637 l 1
 336 637 l 1
 309 486 l 1
 585 486 l 1
 567 384 l 1
 291 384 l 1
 282 331 l 1
 558 331 l 1
 540 228 l 1
 263 228 l 1
EndSplineSet
EndChar

StartChar: lira
Encoding: 8356 8356 560
Width: 613
Flags: W
LayerCount: 2
Fore
SplineSet
635 675 m 0
 644 665 l 1
 558 577 l 1
 548 586 l 0
 534 597 535 611 534 612 c 0
 532 615 507 641 463 641 c 0
 408 641 345 604 330 520 c 0
 327 502 326 483 327 464 c 1
 447 464 l 1
 430 366 l 1
 332 366 l 1
 332 354 333 342 333 331 c 1
 424 331 l 1
 407 232 l 1
 320 232 l 1
 310 196 292 164 272 135 c 1
 275 135 275 135 277 135 c 0
 363 135 405 91 465 91 c 0
 494 91 523 102 548 120 c 0
 565 133 l 1
 595 43 l 1
 584 35 l 0
 552 13 498 -18 441 -18 c 0
 357 -18 318 35 239 35 c 0
 217 35 174 32 93 -7 c 0
 77 -15 l 1
 49 76 l 1
 64 82 l 0
 125 107 134 109 155 133 c 0
 180 162 198 196 209 232 c 1
 116 232 l 1
 133 331 l 1
 221 331 l 1
 221 343 221 356 220 366 c 1
 139 366 l 1
 157 464 l 1
 215 464 l 1
 215 483 217 501 220 521 c 0
 244 655 364 739 482 739 c 0
 542 739 597 717 635 675 c 0
EndSplineSet
EndChar

StartChar: peseta
Encoding: 8359 8359 561
Width: 613
VWidth: 0
Flags: W
LayerCount: 2
Fore
SplineSet
499 267 m 0
 488 277 449 311 456 393 c 1
 448 353 441 315 434 275 c 0
 420 196 418 176 417 171 c 0
 409 104 425 91 432 91 c 0
 452 91 476 90 504 90 c 0
 511 90 535 110 544 161 c 0
 547 179 549 204 541 221 c 0
 534 236 517 250 499 267 c 0
257 631 m 2
 223 631 l 1
 184 415 l 1
 223 415 l 2
 235 415 242 415 253 424 c 0
 271 439 289 478 296 520 c 0
 304 563 300 604 286 620 c 0
 277 631 270 631 257 631 c 2
487 -12 m 0
 449 -12 433 -12 396 -12 c 0
 356 -12 327 16 317 54 c 0
 305 101 315 154 323 200 c 0
 336 273 352 348 367 420 c 1
 350 386 330 359 305 339 c 0
 271 313 240 311 214 311 c 2
 167 311 l 1
 112 0 l 1
 15 0 l 1
 146 739 l 1
 286 739 l 2
 313 739 344 738 370 712 c 0
 393 689 404 652 407 612 c 1
 424 688 l 1
 520 708 l 1
 520 694 l 2
 520 690 519 688 519 686 c 0
 517 675 514 668 512 661 c 0
 507 641 494 583 489 558 c 1
 551 558 l 1
 567 567 580 570 596 570 c 0
 642 570 672 533 686 476 c 2
 687 471 l 1
 640 373 l 1
 625 382 l 2
 617 387 616 396 618 405 c 0
 619 410 619 410 619 411 c 0
 615 436 585 475 575 475 c 0
 573 475 553 461 545 418 c 0
 542 402 541 379 549 362 c 0
 557 345 595 332 620 295 c 0
 646 256 644 205 637 167 c 0
 623 87 570 -12 487 -12 c 0
467 444 m 1
 468 446 468 449 469 451 c 1
 468 449 467 446 467 444 c 1
EndSplineSet
EndChar

StartChar: uni2070
Encoding: 8304 8304 562
Width: 613
Flags: W
LayerCount: 2
Fore
SplineSet
333 299 m 0
 239 315 168 409 193 550 c 0
 220 684 338 770 444 770 c 0
 453 770 463 770 472 768 c 0
 565 754 634 671 608 541 c 0
 579 377 458 296 362 296 c 0
 352 296 342 297 333 299 c 0
298 554 m 0
 296 540 294 527 294 515 c 1
 488 655 l 1
 472 675 453 683 433 683 c 0
 390 683 317 641 298 554 c 0
374 385 m 0
 412 385 483 422 504 540 c 0
 507 555 508 572 509 584 c 1
 316 421 l 1
 333 395 353 385 374 385 c 0
EndSplineSet
EndChar

StartChar: uni2075
Encoding: 8309 8309 563
Width: 613
Flags: W
LayerCount: 2
Fore
SplineSet
290 510 m 1
 220 533 l 1
 289 761 l 1
 626 761 l 1
 611 673 l 1
 369 673 l 1
 351 629 l 1
 375 635 397 636 420 636 c 0
 435 636 451 635 465 633 c 0
 548 619 607 559 591 466 c 0
 571 354 465 296 358 296 c 0
 284 296 217 323 181 374 c 0
 167 394 l 1
 264 446 l 1
 275 439 l 0
 287 431 289 419 289 412 c 1
 300 402 326 384 367 384 c 0
 421 384 471 416 481 472 c 0
 482 478 483 484 483 489 c 0
 483 532 449 555 401 555 c 0
 367 555 327 542 299 518 c 0
 290 510 l 1
EndSplineSet
EndChar

StartChar: uni2076
Encoding: 8310 8310 564
Width: 613
Flags: W
LayerCount: 2
Fore
SplineSet
206 534 m 0
 214 573 229 622 259 664 c 0
 313 740 402 772 478 772 c 0
 529 772 578 756 612 726 c 0
 631 709 l 1
 545 645 l 1
 533 653 l 0
 523 659 518 668 517 672 c 1
 510 676 493 684 468 684 c 0
 437 684 372 677 335 616 c 1
 366 631 397 638 431 638 c 0
 443 638 454 637 465 635 c 0
 541 622 602 561 585 467 c 0
 566 361 467 297 370 297 c 0
 313 297 258 319 226 366 c 0
 192 417 196 480 206 534 c 0
383 385 m 0
 424 385 468 411 478 469 c 0
 479 477 480 484 480 490 c 0
 480 536 450 551 415 551 c 0
 381 551 340 531 311 502 c 1
 310 499 310 496 309 492 c 0
 308 484 307 476 307 469 c 0
 307 417 338 385 383 385 c 0
EndSplineSet
EndChar

StartChar: uni2077
Encoding: 8311 8311 565
Width: 613
Flags: W
LayerCount: 2
Fore
SplineSet
479 670 m 1
 246 670 l 1
 262 761 l 1
 635 761 l 1
 625 711 l 1
 622 707 l 0
 571 647 522 587 476 526 c 1
 431 457 388 387 347 316 c 0
 340 304 l 1
 217 304 l 1
 236 336 l 1
 285 409 336 482 390 554 c 0
 419 593 449 632 479 670 c 1
EndSplineSet
EndChar

StartChar: uni2078
Encoding: 8312 8312 566
Width: 613
Flags: W
LayerCount: 2
Fore
SplineSet
295 558 m 1
 261 583 245 616 252 654 c 0
 266 724 356 773 451 773 c 0
 465 773 477 772 490 770 c 0
 561 759 616 714 604 653 c 0
 596 613 562 579 519 556 c 1
 564 529 591 488 582 440 c 0
 567 355 467 297 359 297 c 0
 342 297 326 298 311 301 c 0
 230 315 170 369 183 442 c 0
 192 491 240 532 295 558 c 1
372 386 m 0
 428 386 468 416 473 444 c 0
 478 470 452 505 388 523 c 1
 334 505 299 471 294 443 c 0
 294 441 293 439 293 437 c 0
 293 413 319 386 372 386 c 0
423 571 m 1
 467 590 492 618 496 638 c 0
 496 640 496 641 496 643 c 0
 496 660 477 681 435 681 c 0
 390 681 360 656 357 636 c 0
 352 608 399 581 423 571 c 1
EndSplineSet
EndChar

StartChar: uni2079
Encoding: 8313 8313 567
Width: 613
Flags: W
LayerCount: 2
Fore
SplineSet
599 554 m 0
 586 477 562 435 547 412 c 0
 494 333 406 297 329 297 c 0
 276 297 228 313 194 343 c 0
 174 360 l 1
 260 424 l 1
 272 417 l 0
 283 411 287 400 288 397 c 1
 295 393 314 386 341 386 c 0
 378 386 421 401 448 438 c 1
 452 444 463 460 473 489 c 1
 443 475 412 468 379 468 c 0
 367 468 356 469 345 471 c 0
 267 483 209 539 225 619 c 0
 243 710 340 772 440 772 c 0
 507 772 580 743 601 673 c 1
 611 642 609 605 599 554 c 0
428 684 m 0
 384 684 341 660 331 616 c 0
 330 611 330 607 330 603 c 0
 330 571 358 555 396 555 c 0
 430 555 469 570 496 591 c 1
 498 597 498 598 499 602 c 0
 501 609 501 615 501 621 c 0
 501 662 470 684 428 684 c 0
EndSplineSet
EndChar

StartChar: afii61289
Encoding: 8467 8467 568
Width: 613
Flags: W
LayerCount: 2
Fore
SplineSet
347 168 m 1
 366 123 390 105 415 105 c 0
 439 105 460 110 491 112 c 0
 511 113 l 1
 489 0 l 1
 457 0 l 0
 444 0 412 1 401 1 c 0
 335 1 281 39 246 103 c 1
 209 88 172 79 133 79 c 0
 115 79 l 1
 134 180 l 1
 147 180 l 0
 169 180 191 186 213 196 c 1
 195 277 193 381 213 507 c 0
 238 669 295 796 446 796 c 0
 454 796 462 795 469 794 c 0
 565 778 582 669 552 505 c 0
 531 392 453 255 347 168 c 1
453 637 m 0
 453 684 443 692 427 692 c 0
 409 692 355 633 335 498 c 0
 322 408 318 328 322 265 c 1
 381 336 424 426 436 494 c 0
 447 556 453 604 453 637 c 0
EndSplineSet
EndChar

StartChar: estimated
Encoding: 8494 8494 570
Width: 613
Flags: W
LayerCount: 2
Fore
SplineSet
317 748 m 0
 405 748 533 685 558 490 c 0
 562 463 564 436 564 405 c 0
 564 387 564 369 563 351 c 1
 185 351 l 1
 185 148 l 1
 231 87 293 68 335 68 c 0
 389 68 466 98 502 154 c 1
 549 100 l 1
 503 26 406 -12 328 -12 c 0
 182 -12 41 116 41 359 c 0
 41 624 187 748 317 748 c 0
185 422 m 1
 420 422 l 1
 420 614 l 1
 389 650 349 672 311 672 c 0
 277 672 225 653 185 597 c 1
 185 422 l 1
EndSplineSet
EndChar

StartChar: arrowleft
Encoding: 8592 8592 575
Width: 613
Flags: W
LayerCount: 2
Fore
SplineSet
240 183 m 1
 166 109 l 1
 14 350 l 1
 20 384 l 1
 255 597 l 1
 299 515 l 1
 179 417 l 1
 609 417 l 1
 590 307 l 1
 153 307 l 1
 240 183 l 1
EndSplineSet
EndChar

StartChar: arrowright
Encoding: 8594 8594 576
Width: 613
Flags: W
LayerCount: 2
Fore
SplineSet
597 346 m 1
 363 109 l 1
 313 187 l 1
 439 307 l 1
 6 307 l 1
 25 417 l 1
 459 417 l 1
 373 519 l 1
 445 597 l 1
 604 381 l 1
 597 346 l 1
EndSplineSet
EndChar

StartChar: arrowboth
Encoding: 8596 8596 577
Width: 613
Flags: W
LayerCount: 2
Fore
SplineSet
597 346 m 1
 363 109 l 1
 313 187 l 1
 439 307 l 1
 153 307 l 1
 240 183 l 1
 166 109 l 1
 14 350 l 1
 20 384 l 1
 255 597 l 1
 299 515 l 1
 179 417 l 1
 459 417 l 1
 373 519 l 1
 445 597 l 1
 604 381 l 1
 597 346 l 1
EndSplineSet
EndChar

StartChar: arrowupdn
Encoding: 8597 8597 578
Width: 613
Flags: W
LayerCount: 2
Fore
SplineSet
534 241 m 1
 247 -40 l 1
 206 -40 l 1
 39 248 l 1
 131 304 l 1
 214 164 l 1
 285 563 l 1
 141 416 l 1
 75 479 l 1
 362 760 l 1
 403 760 l 1
 571 472 l 1
 478 416 l 1
 395 563 l 1
 324 168 l 1
 468 304 l 1
 534 241 l 1
EndSplineSet
EndChar

StartChar: partialdiff
Encoding: 8706 8706 579
Width: 613
Flags: W
LayerCount: 2
Fore
SplineSet
505 283 m 0
 532 434 449 466 395 466 c 0
 324 466 236 411 214 283 c 0
 192 156 254 90 329 90 c 0
 387 90 478 131 505 283 c 0
301 750 m 0
 261 769 l 1
 415 799 l 1
 419 796 l 0
 588 694 664 524 625 304 c 0
 614 241 593 165 541 100 c 0
 482 26 396 -14 312 -14 c 0
 166 -14 62 106 91 272 c 0
 120 437 264 570 406 570 c 0
 443 570 476 559 503 543 c 1
 465 637 393 707 301 750 c 0
EndSplineSet
EndChar

StartChar: radical
Encoding: 8730 8730 585
Width: 613
Flags: W
LayerCount: 2
Fore
SplineSet
275 483 m 1
 321 174 l 1
 667 795 l 1
 757 747 l 1
 343 0 l 1
 234 0 l 1
 183 339 l 1
 41 144 l 1
 78 355 l 1
 173 483 l 1
 275 483 l 1
EndSplineSet
EndChar

StartChar: infinity
Encoding: 8734 8734 586
Width: 613
Flags: W
LayerCount: 2
Fore
SplineSet
476 237 m 0
 418 237 376 267 354 304 c 1
 320 268 271 237 227 237 c 0
 149 237 100 327 114 408 c 0
 128 486 205 574 282 574 c 0
 341 574 381 541 403 504 c 1
 438 542 486 574 531 574 c 0
 609 574 657 484 643 403 c 0
 629 325 553 237 476 237 c 0
420 398 m 1
 434 363 456 334 483 334 c 0
 502 334 546 372 552 407 c 0
 558 441 529 478 512 478 c 0
 483 478 436 422 420 398 c 1
337 413 m 1
 323 448 301 477 274 477 c 0
 255 477 211 439 205 404 c 0
 199 370 229 333 246 333 c 0
 275 333 321 389 337 413 c 1
EndSplineSet
EndChar

StartChar: orthogonal
Encoding: 8735 8735 587
Width: 613
Flags: W
LayerCount: 2
Fore
SplineSet
203 587 m 1
 203 290 l 1
 515 290 l 1
 515 186 l 1
 99 186 l 1
 99 587 l 1
 203 587 l 1
EndSplineSet
EndChar

StartChar: intersection
Encoding: 8745 8745 588
Width: 613
Flags: W
LayerCount: 2
Fore
SplineSet
164 72 m 1
 54 72 l 1
 54 266 l 0
 54 320 56 375 86 430 c 0
 131 513 220 554 310 554 c 0
 402 554 490 513 534 431 c 0
 563 376 564 322 564 270 c 0
 564 72 l 1
 452 72 l 1
 452 271 l 0
 452 308 450 341 435 374 c 0
 411 425 361 453 308 453 c 0
 256 453 206 426 181 375 c 0
 165 341 164 306 164 268 c 0
 164 72 l 1
EndSplineSet
EndChar

StartChar: integral
Encoding: 8747 8747 589
Width: 613
Flags: W
LayerCount: 2
Fore
SplineSet
466 552 m 0
 377 45 l 2
 369 1 364 -46 330 -94 c 0
 278 -168 210 -207 127 -207 c 0
 55 -207 15 -175 -16 -125 c 0
 -21 -116 l 1
 68 -20 l 1
 78 -30 l 0
 90 -41 87 -56 87 -56 c 0
 92 -67 95 -102 151 -102 c 0
 189 -102 209 -86 236 -45 c 0
 252 -21 257 4 262 32 c 0
 354 556 l 0
 362 603 373 650 411 697 c 1
 462 760 525 796 606 796 c 0
 680 796 717 765 749 716 c 0
 754 709 l 1
 690 612 l 1
 680 612 l 0
 669 612 658 622 660 637 c 1
 660 641 l 1
 660 642 l 1
 660 643 l 0
 644 677 630 698 585 698 c 0
 546 698 528 684 500 647 c 1
 479 620 472 587 466 552 c 0
EndSplineSet
EndChar

StartChar: equivalence
Encoding: 8801 8801 592
Width: 613
Flags: W
LayerCount: 2
Fore
SplineSet
63 83 m 5
 81 186 l 5
 599 186 l 5
 581 83 l 5
 63 83 l 5
137 502 m 1
 155 605 l 1
 673 605 l 1
 655 502 l 1
 137 502 l 1
101 300 m 1
 119 403 l 1
 637 403 l 1
 619 300 l 1
 101 300 l 1
EndSplineSet
EndChar

StartChar: SF100000
Encoding: 9472 9472 595
Width: 613
Flags: W
LayerCount: 2
Fore
SplineSet
0 368 m 0
 614 368 l 0
 614 289 l 0
 0 289 l 0
 0 368 l 0
EndSplineSet
EndChar

StartChar: SF110000
Encoding: 9474 9474 596
Width: 613
Flags: W
LayerCount: 2
Fore
SplineSet
347 840 m 0
 347 -184 l 0
 268 -184 l 0
 268 840 l 0
 347 840 l 0
EndSplineSet
EndChar

StartChar: SF010000
Encoding: 9484 9484 597
Width: 613
Flags: W
LayerCount: 2
Fore
SplineSet
268 368 m 5
 614 368 l 5
 614 289 l 5
 347 289 l 5
 347 -184 l 1
 268 -184 l 1
 268 368 l 5
EndSplineSet
EndChar

StartChar: SF030000
Encoding: 9488 9488 598
Width: 613
Flags: W
LayerCount: 2
Fore
SplineSet
347 368 m 5
 347 -184 l 1
 268 -184 l 1
 268 289 l 5
 0 289 l 5
 0 368 l 5
 347 368 l 5
EndSplineSet
EndChar

StartChar: SF020000
Encoding: 9492 9492 599
Width: 613
Flags: W
LayerCount: 2
Fore
SplineSet
268 289 m 5
 268 840 l 1
 347 840 l 1
 347 368 l 5
 614 368 l 5
 614 289 l 5
 268 289 l 5
EndSplineSet
EndChar

StartChar: SF040000
Encoding: 9496 9496 600
Width: 613
Flags: W
LayerCount: 2
Fore
SplineSet
347 289 m 5
 0 289 l 5
 0 368 l 5
 268 368 l 5
 268 840 l 1
 347 840 l 1
 347 289 l 5
EndSplineSet
EndChar

StartChar: SF080000
Encoding: 9500 9500 601
Width: 613
Flags: W
LayerCount: 2
Fore
SplineSet
268 840 m 1
 347 840 l 1
 347 368 l 5
 614 368 l 5
 614 289 l 5
 347 289 l 5
 347 -184 l 1
 268 -184 l 1
 268 840 l 1
EndSplineSet
EndChar

StartChar: SF090000
Encoding: 9508 9508 602
Width: 613
Flags: W
LayerCount: 2
Fore
SplineSet
347 -184 m 1
 268 -184 l 1
 268 289 l 5
 0 289 l 5
 0 368 l 5
 268 368 l 5
 268 840 l 1
 347 840 l 1
 347 -184 l 1
EndSplineSet
EndChar

StartChar: SF060000
Encoding: 9516 9516 603
Width: 613
Flags: W
LayerCount: 2
Fore
SplineSet
614 368 m 5
 614 289 l 5
 347 289 l 5
 347 -184 l 1
 268 -184 l 1
 268 289 l 5
 0 289 l 5
 0 368 l 5
 614 368 l 5
EndSplineSet
EndChar

StartChar: SF070000
Encoding: 9524 9524 604
Width: 613
Flags: W
LayerCount: 2
Fore
SplineSet
0 289 m 5
 0 368 l 5
 268 368 l 5
 268 840 l 1
 347 840 l 1
 347 368 l 5
 614 368 l 5
 614 289 l 5
 0 289 l 5
EndSplineSet
EndChar

StartChar: SF050000
Encoding: 9532 9532 605
Width: 613
Flags: W
LayerCount: 2
Fore
SplineSet
347 289 m 5
 347 -184 l 1
 268 -184 l 1
 268 289 l 5
 0 289 l 5
 0 368 l 5
 268 368 l 5
 268 840 l 1
 347 840 l 1
 347 368 l 5
 614 368 l 5
 614 289 l 5
 347 289 l 5
EndSplineSet
EndChar

StartChar: SF510000
Encoding: 9554 9554 608
Width: 613
Flags: W
LayerCount: 2
Fore
SplineSet
268 471 m 5
 614 471 l 5
 614 392 l 5
 347 392 l 5
 347 266 l 5
 614 266 l 5
 614 187 l 5
 347 187 l 5
 347 -184 l 1
 268 -184 l 1
 268 471 l 5
 268 471 l 5
EndSplineSet
EndChar

StartChar: SF520000
Encoding: 9555 9555 609
Width: 613
Flags: W
LayerCount: 2
Fore
SplineSet
165 368 m 5
 614 368 l 5
 614 289 l 5
 449 289 l 5
 449 -184 l 1
 370 -184 l 1
 370 289 l 5
 244 289 l 5
 244 -184 l 1
 165 -184 l 1
 165 368 l 5
EndSplineSet
EndChar

StartChar: SF390000
Encoding: 9556 9556 610
Width: 613
Flags: W
LayerCount: 2
Fore
SplineSet
244 -184 m 1
 165 -184 l 1
 165 471 l 5
 614 471 l 5
 614 392 l 5
 244 392 l 5
 244 -184 l 1
370 266 m 5
 614 266 l 5
 614 187 l 5
 449 187 l 5
 449 -184 l 1
 370 -184 l 1
 370 266 l 5
EndSplineSet
EndChar

StartChar: SF220000
Encoding: 9557 9557 611
Width: 613
Flags: W
LayerCount: 2
Fore
SplineSet
347 471 m 5
 347 471 l 5
 347 -184 l 1
 268 -184 l 1
 268 187 l 5
 0 187 l 5
 0 266 l 5
 268 266 l 5
 268 392 l 5
 0 392 l 5
 0 471 l 5
 347 471 l 5
EndSplineSet
EndChar

StartChar: SF210000
Encoding: 9558 9558 612
Width: 613
Flags: W
LayerCount: 2
Fore
SplineSet
449 368 m 1
 449 -184 l 1
 370 -184 l 1
 370 289 l 1
 244 289 l 1
 244 -184 l 1
 165 -184 l 1
 165 289 l 1
 0 289 l 1
 0 368 l 1
 449 368 l 1
EndSplineSet
EndChar

StartChar: SF250000
Encoding: 9559 9559 613
Width: 613
Flags: W
LayerCount: 2
Fore
SplineSet
370 -184 m 1
 370 392 l 1
 0 392 l 1
 0 471 l 1
 449 471 l 1
 449 -184 l 1
 370 -184 l 1
244 266 m 1
 244 -184 l 1
 165 -184 l 1
 165 187 l 1
 0 187 l 1
 0 266 l 1
 244 266 l 1
EndSplineSet
EndChar

StartChar: SF500000
Encoding: 9560 9560 614
Width: 613
Flags: W
LayerCount: 2
Fore
SplineSet
268 184 m 5
 268 184 l 5
 268 840 l 1
 347 840 l 1
 347 468 l 5
 614 468 l 5
 614 390 l 5
 347 390 l 5
 347 264 l 5
 614 264 l 5
 614 185 l 5
 268 184 l 5
EndSplineSet
EndChar

StartChar: SF490000
Encoding: 9561 9561 615
Width: 613
Flags: W
LayerCount: 2
Fore
SplineSet
165 287 m 5
 165 840 l 1
 244 840 l 1
 244 366 l 5
 370 366 l 5
 370 840 l 1
 449 840 l 1
 449 366 l 5
 614 366 l 5
 614 287 l 5
 165 287 l 5
EndSplineSet
EndChar

StartChar: SF380000
Encoding: 9562 9562 616
Width: 613
Flags: W
LayerCount: 2
Fore
SplineSet
244 840 m 1
 244 264 l 5
 614 264 l 5
 614 185 l 5
 165 185 l 5
 165 840 l 1
 244 840 l 1
370 390 m 5
 370 840 l 1
 449 840 l 1
 449 468 l 5
 614 468 l 5
 614 390 l 5
 370 390 l 5
EndSplineSet
EndChar

StartChar: SF280000
Encoding: 9563 9563 617
Width: 613
Flags: W
LayerCount: 2
Fore
SplineSet
347 184 m 5
 0 185 l 5
 0 264 l 5
 268 264 l 5
 268 390 l 5
 0 390 l 5
 0 468 l 5
 268 468 l 5
 268 840 l 1
 347 840 l 1
 347 184 l 5
 347 184 l 5
EndSplineSet
EndChar

StartChar: SF270000
Encoding: 9564 9564 618
Width: 613
Flags: W
LayerCount: 2
Fore
SplineSet
449 287 m 1
 0 287 l 1
 0 366 l 1
 165 366 l 1
 165 840 l 1
 244 840 l 1
 244 366 l 1
 370 366 l 1
 370 840 l 1
 449 840 l 1
 449 287 l 1
EndSplineSet
EndChar

StartChar: SF260000
Encoding: 9565 9565 619
Width: 613
Flags: W
LayerCount: 2
Fore
SplineSet
370 840 m 1
 449 840 l 1
 449 185 l 1
 0 185 l 1
 0 264 l 1
 370 264 l 1
 370 840 l 1
244 390 m 1
 0 390 l 1
 0 468 l 1
 165 468 l 1
 165 840 l 1
 244 840 l 1
 244 390 l 1
EndSplineSet
EndChar

StartChar: SF360000
Encoding: 9566 9566 620
Width: 613
Flags: W
LayerCount: 2
Fore
SplineSet
268 840 m 1
 347 840 l 1
 347 471 l 1
 614 471 l 1
 614 392 l 1
 347 392 l 1
 347 266 l 1
 614 266 l 1
 614 187 l 1
 347 187 l 1
 347 -184 l 1
 268 -184 l 1
 268 840 l 1
EndSplineSet
EndChar

StartChar: SF370000
Encoding: 9567 9567 621
Width: 613
Flags: W
LayerCount: 2
Fore
SplineSet
244 -184 m 1
 165 -184 l 1
 165 840 l 1
 244 840 l 1
 244 -184 l 1
370 840 m 1
 449 840 l 1
 449 368 l 1
 614 368 l 1
 614 289 l 1
 449 289 l 1
 449 -184 l 1
 370 -184 l 1
 370 840 l 1
EndSplineSet
EndChar

StartChar: SF420000
Encoding: 9568 9568 622
Width: 613
Flags: W
LayerCount: 2
Fore
SplineSet
244 -184 m 1
 165 -184 l 1
 165 840 l 1
 244 840 l 1
 244 -184 l 1
370 840 m 1
 449 840 l 1
 449 471 l 1
 614 471 l 1
 614 392 l 1
 370 392 l 1
 370 840 l 1
370 266 m 1
 614 266 l 1
 614 187 l 1
 449 187 l 1
 449 -184 l 1
 370 -184 l 1
 370 266 l 1
EndSplineSet
EndChar

StartChar: SF190000
Encoding: 9569 9569 623
Width: 613
Flags: W
LayerCount: 2
Fore
SplineSet
347 840 m 1
 347 -184 l 1
 268 -184 l 1
 268 187 l 1
 0 187 l 1
 0 266 l 1
 268 266 l 1
 268 392 l 1
 0 392 l 1
 0 471 l 1
 268 471 l 1
 268 840 l 1
 347 840 l 1
EndSplineSet
EndChar

StartChar: SF200000
Encoding: 9570 9570 624
Width: 613
Flags: W
LayerCount: 2
Fore
SplineSet
370 -184 m 1
 370 840 l 1
 449 840 l 1
 449 -184 l 1
 370 -184 l 1
244 840 m 1
 244 -184 l 1
 165 -184 l 1
 165 289 l 1
 0 289 l 1
 0 368 l 1
 165 368 l 1
 165 840 l 1
 244 840 l 1
EndSplineSet
EndChar

StartChar: SF230000
Encoding: 9571 9571 625
Width: 613
Flags: W
LayerCount: 2
Fore
SplineSet
370 -184 m 1
 370 840 l 1
 449 840 l 1
 449 -184 l 1
 370 -184 l 1
244 840 m 1
 244 392 l 1
 0 392 l 1
 0 471 l 1
 165 471 l 1
 165 840 l 1
 244 840 l 1
244 266 m 1
 244 -184 l 1
 165 -184 l 1
 165 187 l 1
 0 187 l 1
 0 266 l 1
 244 266 l 1
EndSplineSet
EndChar

StartChar: SF470000
Encoding: 9572 9572 626
Width: 613
Flags: W
LayerCount: 2
Fore
SplineSet
0 471 m 1
 614 471 l 1
 614 392 l 1
 0 392 l 1
 0 471 l 1
0 266 m 1
 614 266 l 1
 614 187 l 1
 347 187 l 1
 347 -184 l 1
 268 -184 l 1
 268 187 l 1
 0 187 l 1
 0 266 l 1
EndSplineSet
EndChar

StartChar: SF480000
Encoding: 9573 9573 627
Width: 613
Flags: W
LayerCount: 2
Fore
SplineSet
0 368 m 1
 614 368 l 1
 614 289 l 1
 449 289 l 1
 449 -184 l 1
 370 -184 l 1
 370 289 l 1
 244 289 l 1
 244 -184 l 1
 165 -184 l 1
 165 289 l 1
 0 289 l 1
 0 368 l 1
EndSplineSet
EndChar

StartChar: SF410000
Encoding: 9574 9574 628
Width: 613
Flags: W
LayerCount: 2
Fore
SplineSet
0 471 m 1
 614 471 l 1
 614 392 l 1
 0 392 l 1
 0 471 l 1
165 187 m 1
 0 187 l 1
 0 266 l 1
 244 266 l 1
 244 -184 l 1
 165 -184 l 1
 165 187 l 1
449 187 m 1
 449 -184 l 1
 370 -184 l 1
 370 266 l 1
 614 266 l 1
 614 187 l 1
 449 187 l 1
EndSplineSet
EndChar

StartChar: SF450000
Encoding: 9575 9575 629
Width: 613
Flags: W
LayerCount: 2
Fore
SplineSet
0 185 m 1
 0 264 l 1
 614 264 l 1
 614 185 l 1
 0 185 l 1
0 390 m 1
 0 468 l 1
 268 468 l 1
 268 840 l 1
 347 840 l 1
 347 468 l 1
 614 468 l 1
 614 390 l 1
 0 390 l 1
EndSplineSet
EndChar

StartChar: SF460000
Encoding: 9576 9576 630
Width: 613
Flags: W
LayerCount: 2
Fore
SplineSet
0 287 m 1
 0 366 l 1
 165 366 l 1
 165 840 l 1
 244 840 l 1
 244 366 l 1
 370 366 l 1
 370 840 l 1
 449 840 l 1
 449 366 l 1
 614 366 l 1
 614 287 l 1
 0 287 l 1
EndSplineSet
EndChar

StartChar: SF400000
Encoding: 9577 9577 631
Width: 613
Flags: W
LayerCount: 2
Fore
SplineSet
0 185 m 1
 0 264 l 1
 614 264 l 1
 614 185 l 1
 0 185 l 1
165 468 m 1
 165 840 l 1
 244 840 l 1
 244 390 l 1
 0 390 l 1
 0 468 l 1
 165 468 l 1
449 468 m 1
 614 468 l 1
 614 390 l 1
 370 390 l 1
 370 840 l 1
 449 840 l 1
 449 468 l 1
EndSplineSet
EndChar

StartChar: SF540000
Encoding: 9578 9578 632
Width: 613
Flags: W
LayerCount: 2
Fore
SplineSet
268 266 m 1
 268 392 l 1
 0 392 l 1
 0 471 l 1
 268 471 l 1
 268 840 l 1
 347 840 l 1
 347 471 l 1
 614 471 l 1
 614 392 l 1
 347 392 l 1
 347 266 l 1
 614 266 l 1
 614 187 l 1
 347 187 l 1
 347 -184 l 1
 268 -184 l 1
 268 187 l 1
 0 187 l 1
 0 266 l 1
 268 266 l 1
EndSplineSet
EndChar

StartChar: SF530000
Encoding: 9579 9579 633
Width: 613
Flags: W
LayerCount: 2
Fore
SplineSet
165 368 m 1
 165 840 l 1
 244 840 l 1
 244 368 l 1
 370 368 l 1
 370 840 l 1
 449 840 l 1
 449 368 l 1
 614 368 l 1
 614 289 l 1
 449 289 l 1
 449 -184 l 1
 370 -184 l 1
 370 289 l 1
 244 289 l 1
 244 -184 l 1
 165 -184 l 1
 165 289 l 1
 0 289 l 1
 0 368 l 1
 165 368 l 1
EndSplineSet
EndChar

StartChar: SF440000
Encoding: 9580 9580 634
Width: 613
Flags: W
LayerCount: 2
Fore
SplineSet
370 392 m 1
 370 840 l 1
 449 840 l 1
 449 471 l 1
 614 471 l 1
 614 392 l 1
 370 392 l 1
370 266 m 1
 614 266 l 1
 614 187 l 1
 449 187 l 1
 449 -184 l 1
 370 -184 l 1
 370 266 l 1
244 266 m 1
 244 -184 l 1
 165 -184 l 1
 165 187 l 1
 0 187 l 1
 0 266 l 1
 244 266 l 1
244 392 m 1
 0 392 l 1
 0 471 l 1
 165 471 l 1
 165 840 l 1
 244 840 l 1
 244 392 l 1
EndSplineSet
EndChar

StartChar: dnblock
Encoding: 9604 9604 635
Width: 613
Flags: W
LayerCount: 2
Fore
SplineSet
0 328 m 29
 614 328 l 29
 614 -184 l 29
 0 -184 l 29
 0 328 l 29
EndSplineSet
EndChar

StartChar: block
Encoding: 9608 9608 636
Width: 613
Flags: W
LayerCount: 2
Fore
SplineSet
0 840 m 25
 614 840 l 25
 614 -184 l 25
 0 -184 l 25
 0 840 l 25
EndSplineSet
EndChar

StartChar: lfblock
Encoding: 9612 9612 637
Width: 613
Flags: W
LayerCount: 2
Fore
SplineSet
0 840 m 25
 307 840 l 25
 307 -184 l 29
 0 -184 l 25
 0 840 l 25
EndSplineSet
EndChar

StartChar: shade
Encoding: 9618 9618 638
Width: 613
Flags: W
LayerCount: 2
Fore
SplineSet
0 840 m 1
 61 840 l 1
 61 788 l 1
 0 788 l 1
 0 840 l 1
123 840 m 1
 184 840 l 1
 184 788 l 1
 123 788 l 1
 123 737 l 1
 61 737 l 1
 61 788 l 1
 123 788 l 1
 123 840 l 1
246 840 m 1
 307 840 l 1
 307 788 l 1
 246 788 l 1
 246 737 l 1
 184 737 l 1
 184 788 l 1
 246 788 l 1
 246 840 l 1
369 840 m 1
 430 840 l 1
 430 788 l 1
 369 788 l 1
 369 737 l 1
 307 737 l 1
 307 788 l 1
 369 788 l 1
 369 840 l 1
492 840 m 1
 553 840 l 1
 553 788 l 1
 492 788 l 1
 492 737 l 1
 430 737 l 1
 430 788 l 1
 492 788 l 1
 492 840 l 1
553 788 m 1
 614 788 l 1
 614 737 l 1
 553 737 l 1
 553 788 l 1
61 737 m 1
 61 686 l 1
 0 686 l 1
 0 737 l 1
 61 737 l 1
61 686 m 1
 123 686 l 1
 123 635 l 1
 61 635 l 1
 61 686 l 1
123 686 m 1
 123 737 l 1
 184 737 l 1
 184 686 l 1
 123 686 l 1
184 686 m 1
 246 686 l 1
 246 635 l 1
 184 635 l 1
 184 686 l 1
246 686 m 1
 246 737 l 1
 307 737 l 1
 307 686 l 1
 246 686 l 1
307 686 m 1
 369 686 l 1
 369 635 l 1
 307 635 l 1
 307 686 l 1
369 686 m 1
 369 737 l 1
 430 737 l 1
 430 686 l 1
 369 686 l 1
430 686 m 1
 492 686 l 1
 492 635 l 1
 430 635 l 1
 430 686 l 1
492 686 m 1
 492 737 l 1
 553 737 l 1
 553 686 l 1
 492 686 l 1
553 686 m 1
 614 686 l 1
 614 635 l 1
 553 635 l 1
 553 686 l 1
61 635 m 1
 61 584 l 1
 0 584 l 1
 0 635 l 1
 61 635 l 1
61 584 m 1
 123 584 l 1
 123 532 l 1
 61 532 l 1
 61 584 l 1
123 584 m 1
 123 635 l 1
 184 635 l 1
 184 584 l 1
 123 584 l 1
184 584 m 1
 246 584 l 1
 246 532 l 1
 184 532 l 1
 184 584 l 1
246 584 m 1
 246 635 l 1
 307 635 l 1
 307 584 l 1
 246 584 l 1
307 584 m 1
 369 584 l 1
 369 532 l 1
 307 532 l 1
 307 584 l 1
369 584 m 1
 369 635 l 1
 430 635 l 1
 430 584 l 1
 369 584 l 1
430 584 m 1
 492 584 l 1
 492 532 l 1
 430 532 l 1
 430 584 l 1
492 584 m 1
 492 635 l 1
 553 635 l 1
 553 584 l 1
 492 584 l 1
553 584 m 1
 614 584 l 1
 614 532 l 1
 553 532 l 1
 553 584 l 1
61 532 m 1
 61 481 l 1
 0 481 l 1
 0 532 l 1
 61 532 l 1
61 481 m 1
 123 481 l 1
 123 430 l 1
 61 430 l 1
 61 481 l 1
123 481 m 1
 123 532 l 1
 184 532 l 1
 184 481 l 1
 123 481 l 1
184 481 m 1
 246 481 l 1
 246 430 l 1
 184 430 l 1
 184 481 l 1
246 481 m 1
 246 532 l 1
 307 532 l 1
 307 481 l 1
 246 481 l 1
307 481 m 1
 369 481 l 1
 369 430 l 1
 307 430 l 1
 307 481 l 1
369 481 m 1
 369 532 l 1
 430 532 l 1
 430 481 l 1
 369 481 l 1
430 481 m 1
 492 481 l 1
 492 430 l 1
 430 430 l 1
 430 481 l 1
492 481 m 1
 492 532 l 1
 553 532 l 1
 553 481 l 1
 492 481 l 1
553 481 m 1
 614 481 l 1
 614 430 l 1
 553 430 l 1
 553 481 l 1
61 430 m 1
 61 379 l 1
 0 379 l 1
 0 430 l 1
 61 430 l 1
61 379 m 1
 123 379 l 1
 123 328 l 1
 61 328 l 1
 61 379 l 1
123 379 m 1
 123 430 l 1
 184 430 l 1
 184 379 l 1
 123 379 l 1
184 379 m 1
 246 379 l 1
 246 328 l 1
 184 328 l 1
 184 379 l 1
246 379 m 1
 246 430 l 1
 307 430 l 1
 307 379 l 1
 246 379 l 1
307 379 m 1
 369 379 l 1
 369 328 l 1
 307 328 l 1
 307 379 l 1
369 379 m 1
 369 430 l 1
 430 430 l 1
 430 379 l 1
 369 379 l 1
430 379 m 1
 492 379 l 1
 492 328 l 1
 430 328 l 1
 430 379 l 1
492 379 m 1
 492 430 l 1
 553 430 l 1
 553 379 l 1
 492 379 l 1
553 379 m 1
 614 379 l 1
 614 328 l 1
 553 328 l 1
 553 379 l 1
61 328 m 1
 61 276 l 1
 0 276 l 1
 0 328 l 1
 61 328 l 1
61 276 m 1
 123 276 l 1
 123 225 l 1
 61 225 l 1
 61 276 l 1
123 276 m 1
 123 328 l 1
 184 328 l 1
 184 276 l 1
 123 276 l 1
184 276 m 1
 246 276 l 1
 246 225 l 1
 184 225 l 1
 184 276 l 1
246 276 m 1
 246 328 l 1
 307 328 l 1
 307 276 l 1
 246 276 l 1
307 276 m 1
 369 276 l 1
 369 225 l 1
 307 225 l 1
 307 276 l 1
369 276 m 1
 369 328 l 1
 430 328 l 1
 430 276 l 1
 369 276 l 1
430 276 m 1
 492 276 l 1
 492 225 l 1
 430 225 l 1
 430 276 l 1
492 276 m 1
 492 328 l 1
 553 328 l 1
 553 276 l 1
 492 276 l 1
553 276 m 1
 614 276 l 1
 614 225 l 1
 553 225 l 1
 553 276 l 1
61 225 m 1
 61 174 l 1
 0 174 l 1
 0 225 l 1
 61 225 l 1
61 174 m 1
 123 174 l 1
 123 123 l 1
 61 123 l 1
 61 174 l 1
123 174 m 1
 123 225 l 1
 184 225 l 1
 184 174 l 1
 123 174 l 1
184 174 m 1
 246 174 l 1
 246 123 l 1
 184 123 l 1
 184 174 l 1
246 174 m 1
 246 225 l 1
 307 225 l 1
 307 174 l 1
 246 174 l 1
307 174 m 1
 369 174 l 1
 369 123 l 1
 307 123 l 1
 307 174 l 1
369 174 m 1
 369 225 l 1
 430 225 l 1
 430 174 l 1
 369 174 l 1
430 174 m 1
 492 174 l 1
 492 123 l 1
 430 123 l 1
 430 174 l 1
492 174 m 1
 492 225 l 1
 553 225 l 1
 553 174 l 1
 492 174 l 1
553 174 m 1
 614 174 l 1
 614 123 l 1
 553 123 l 1
 553 174 l 1
61 123 m 1
 61 72 l 1
 0 72 l 1
 0 123 l 1
 61 123 l 1
61 72 m 1
 123 72 l 1
 123 20 l 1
 61 20 l 1
 61 72 l 1
123 72 m 1
 123 123 l 1
 184 123 l 1
 184 72 l 1
 123 72 l 1
184 72 m 1
 246 72 l 1
 246 20 l 1
 184 20 l 1
 184 72 l 1
246 72 m 1
 246 123 l 1
 307 123 l 1
 307 72 l 1
 246 72 l 1
307 72 m 1
 369 72 l 1
 369 20 l 1
 307 20 l 1
 307 72 l 1
369 72 m 1
 369 123 l 1
 430 123 l 1
 430 72 l 1
 369 72 l 1
430 72 m 1
 492 72 l 1
 492 20 l 1
 430 20 l 1
 430 72 l 1
492 72 m 1
 492 123 l 1
 553 123 l 1
 553 72 l 1
 492 72 l 1
553 72 m 1
 614 72 l 1
 614 20 l 1
 553 20 l 1
 553 72 l 1
61 20 m 1
 61 -31 l 1
 0 -31 l 1
 0 20 l 1
 61 20 l 1
61 -31 m 1
 123 -31 l 1
 123 -82 l 1
 61 -82 l 1
 61 -31 l 1
123 -31 m 1
 123 20 l 1
 184 20 l 1
 184 -31 l 1
 123 -31 l 1
184 -31 m 1
 246 -31 l 1
 246 -82 l 1
 184 -82 l 1
 184 -31 l 1
246 -31 m 1
 246 20 l 1
 307 20 l 1
 307 -31 l 1
 246 -31 l 1
307 -31 m 1
 369 -31 l 1
 369 -82 l 1
 307 -82 l 1
 307 -31 l 1
369 -31 m 1
 369 20 l 1
 430 20 l 1
 430 -31 l 1
 369 -31 l 1
430 -31 m 1
 492 -31 l 1
 492 -82 l 1
 430 -82 l 1
 430 -31 l 1
492 -31 m 1
 492 20 l 1
 553 20 l 1
 553 -31 l 1
 492 -31 l 1
553 -31 m 1
 614 -31 l 1
 614 -82 l 1
 553 -82 l 1
 553 -31 l 1
61 -82 m 1
 61 -133 l 1
 0 -133 l 1
 0 -82 l 1
 61 -82 l 1
61 -133 m 1
 123 -133 l 1
 123 -184 l 1
 61 -184 l 1
 61 -133 l 1
123 -133 m 1
 123 -82 l 1
 184 -82 l 1
 184 -133 l 1
 123 -133 l 1
184 -133 m 1
 246 -133 l 1
 246 -184 l 1
 184 -184 l 1
 184 -133 l 1
246 -133 m 1
 246 -82 l 1
 307 -82 l 1
 307 -133 l 1
 246 -133 l 1
307 -133 m 1
 369 -133 l 1
 369 -184 l 1
 307 -184 l 1
 307 -133 l 1
369 -133 m 1
 369 -82 l 1
 430 -82 l 1
 430 -133 l 1
 369 -133 l 1
430 -133 m 1
 492 -133 l 1
 492 -184 l 1
 430 -184 l 1
 430 -133 l 1
492 -133 m 1
 492 -82 l 1
 553 -82 l 1
 553 -133 l 1
 492 -133 l 1
553 -133 m 1
 614 -133 l 1
 614 -184 l 1
 553 -184 l 1
 553 -133 l 1
EndSplineSet
EndChar

StartChar: dkshade
Encoding: 9619 9619 639
Width: 613
Flags: W
LayerCount: 2
Fore
SplineSet
0 840 m 1
 61 840 l 1
 61 788 l 1
 123 788 l 1
 123 840 l 1
 184 840 l 1
 184 788 l 1
 246 788 l 1
 246 840 l 1
 307 840 l 1
 307 788 l 1
 369 788 l 1
 369 840 l 1
 430 840 l 1
 430 788 l 1
 492 788 l 1
 492 840 l 1
 553 840 l 1
 553 788 l 1
 614 788 l 1
 614 635 l 1
 553 635 l 1
 553 584 l 1
 614 584 l 1
 614 430 l 1
 553 430 l 1
 553 379 l 1
 614 379 l 1
 614 225 l 1
 553 225 l 1
 553 174 l 1
 614 174 l 1
 614 20 l 1
 553 20 l 1
 553 -31 l 1
 614 -31 l 1
 614 -184 l 1
 409 -184 205 -184 0 -184 c 1
 0 -133 l 1
 61 -133 l 1
 61 -82 l 1
 0 -82 l 1
 0 72 l 1
 61 72 l 1
 61 123 l 1
 0 123 l 1
 0 276 l 1
 61 276 l 1
 61 328 l 1
 0 328 l 1
 0 481 l 1
 61 481 l 1
 61 532 l 1
 0 532 l 1
 0 686 l 1
 61 686 l 1
 61 737 l 1
 0 737 l 1
 0 771 0 806 0 840 c 1
123 737 m 1
 123 686 l 1
 184 686 l 1
 184 737 l 1
 123 737 l 1
246 737 m 1
 246 686 l 1
 307 686 l 1
 307 737 l 1
 246 737 l 1
369 737 m 1
 369 686 l 1
 430 686 l 1
 430 737 l 1
 369 737 l 1
492 737 m 1
 492 686 l 1
 553 686 l 1
 553 737 l 1
 492 737 l 1
61 635 m 1
 61 584 l 1
 123 584 l 1
 123 635 l 1
 61 635 l 1
184 635 m 1
 184 584 l 1
 246 584 l 1
 246 635 l 1
 184 635 l 1
307 635 m 1
 307 584 l 1
 369 584 l 1
 369 635 l 1
 307 635 l 1
430 635 m 1
 430 584 l 1
 492 584 l 1
 492 635 l 1
 430 635 l 1
123 532 m 1
 123 481 l 1
 184 481 l 1
 184 532 l 1
 123 532 l 1
246 532 m 1
 246 481 l 1
 307 481 l 1
 307 532 l 1
 246 532 l 1
369 532 m 1
 369 481 l 1
 430 481 l 1
 430 532 l 1
 369 532 l 1
492 532 m 1
 492 481 l 1
 553 481 l 1
 553 532 l 1
 492 532 l 1
61 430 m 1
 61 379 l 1
 123 379 l 1
 123 430 l 1
 61 430 l 1
184 430 m 1
 184 379 l 1
 246 379 l 1
 246 430 l 1
 184 430 l 1
307 430 m 1
 307 379 l 1
 369 379 l 1
 369 430 l 1
 307 430 l 1
430 430 m 1
 430 379 l 1
 492 379 l 1
 492 430 l 1
 430 430 l 1
123 328 m 1
 123 276 l 1
 184 276 l 1
 184 328 l 1
 123 328 l 1
246 328 m 1
 246 276 l 1
 307 276 l 1
 307 328 l 1
 246 328 l 1
369 328 m 1
 369 276 l 1
 430 276 l 1
 430 328 l 1
 369 328 l 1
492 328 m 1
 492 276 l 1
 553 276 l 1
 553 328 l 1
 492 328 l 1
61 225 m 1
 61 174 l 1
 123 174 l 1
 123 225 l 1
 61 225 l 1
184 225 m 1
 184 174 l 1
 246 174 l 1
 246 225 l 1
 184 225 l 1
307 225 m 1
 307 174 l 1
 369 174 l 1
 369 225 l 1
 307 225 l 1
430 225 m 1
 430 174 l 1
 492 174 l 1
 492 225 l 1
 430 225 l 1
123 123 m 1
 123 72 l 1
 184 72 l 1
 184 123 l 1
 123 123 l 1
246 123 m 1
 246 72 l 1
 307 72 l 1
 307 123 l 1
 246 123 l 1
369 123 m 1
 369 72 l 1
 430 72 l 1
 430 123 l 1
 369 123 l 1
492 123 m 1
 492 72 l 1
 553 72 l 1
 553 123 l 1
 492 123 l 1
61 20 m 1
 61 -31 l 1
 123 -31 l 1
 123 20 l 1
 61 20 l 1
184 20 m 1
 184 -31 l 1
 246 -31 l 1
 246 20 l 1
 184 20 l 1
307 20 m 1
 307 -31 l 1
 369 -31 l 1
 369 20 l 1
 307 20 l 1
430 20 m 1
 430 -31 l 1
 492 -31 l 1
 492 20 l 1
 430 20 l 1
123 -82 m 1
 123 -133 l 1
 184 -133 l 1
 184 -82 l 1
 123 -82 l 1
246 -82 m 1
 246 -133 l 1
 307 -133 l 1
 307 -82 l 1
 246 -82 l 1
369 -82 m 1
 369 -133 l 1
 430 -133 l 1
 430 -82 l 1
 369 -82 l 1
492 -82 m 1
 492 -133 l 1
 553 -133 l 1
 553 -82 l 1
 492 -82 l 1
EndSplineSet
EndChar

StartChar: filledbox
Encoding: 9632 9632 640
Width: 613
Flags: W
LayerCount: 2
Fore
SplineSet
82 553 m 25
 532 553 l 29
 532 102 l 29
 82 102 l 25
 82 553 l 25
EndSplineSet
EndChar

StartChar: H22073
Encoding: 9633 9633 641
Width: 613
Flags: W
LayerCount: 2
Fore
SplineSet
82 553 m 25
 532 553 l 25
 532 102 l 25
 82 102 l 25
 82 553 l 25
154 481 m 25
 154 174 l 25
 461 174 l 25
 461 481 l 25
 154 481 l 25
EndSplineSet
EndChar

StartChar: H18543
Encoding: 9642 9642 642
Width: 613
Flags: W
LayerCount: 2
Fore
SplineSet
143 492 m 25
 471 492 l 25
 471 164 l 25
 143 164 l 25
 143 492 l 25
EndSplineSet
EndChar

StartChar: H18551
Encoding: 9643 9643 643
Width: 613
Flags: W
LayerCount: 2
Fore
SplineSet
143 492 m 25
 471 492 l 25
 471 164 l 25
 143 164 l 25
 143 492 l 25
215 420 m 25
 215 236 l 29
 399 236 l 29
 399 420 l 25
 215 420 l 25
EndSplineSet
EndChar

StartChar: triagup
Encoding: 9650 9650 644
Width: 613
Flags: W
LayerCount: 2
Fore
SplineSet
307 553 m 1
 532 102 l 1
 82 102 l 1
 307 553 l 1
EndSplineSet
EndChar

StartChar: triagdn
Encoding: 9660 9660 645
Width: 613
Flags: W
LayerCount: 2
Fore
SplineSet
82 553 m 1
 532 553 l 1
 307 102 l 1
 82 553 l 1
EndSplineSet
EndChar

StartChar: lozenge
Encoding: 9674 9674 646
Width: 613
Flags: W
LayerCount: 2
Fore
SplineSet
307 655 m 25
 532 328 l 25
 307 0 l 25
 82 328 l 25
 307 655 l 25
307 563 m 25
 154 328 l 25
 307 92 l 25
 461 328 l 25
 307 563 l 25
EndSplineSet
EndChar

StartChar: circle
Encoding: 9675 9675 647
Width: 613
Flags: W
LayerCount: 2
Fore
SplineSet
123 328 m 0
 123 226 205 143 307 143 c 0
 409 143 492 226 492 328 c 0
 492 430 409 512 307 512 c 0
 205 512 123 430 123 328 c 0
41 328 m 0
 41 475 160 594 307 594 c 0
 454 594 573 475 573 328 c 0
 573 181 454 61 307 61 c 0
 160 61 41 181 41 328 c 0
EndSplineSet
EndChar

StartChar: H18533
Encoding: 9679 9679 648
Width: 613
Flags: W
LayerCount: 2
Fore
SplineSet
41 328 m 0
 41 475 160 594 307 594 c 0
 454 594 573 475 573 328 c 0
 573 181 454 61 307 61 c 0
 160 61 41 181 41 328 c 0
EndSplineSet
EndChar

StartChar: openbullet
Encoding: 9702 9702 649
Width: 613
Flags: W
LayerCount: 2
Fore
SplineSet
314 430 m 0
 269 430 233 395 233 352 c 0
 233 309 269 273 314 273 c 0
 359 273 394 309 394 352 c 0
 394 395 359 430 314 430 c 0
314 502 m 0
 397 502 466 435 466 352 c 0
 466 269 397 202 314 202 c 0
 231 202 162 269 162 352 c 0
 162 435 231 502 314 502 c 0
EndSplineSet
EndChar

StartChar: female
Encoding: 9792 9792 650
Width: 613
Flags: W
LayerCount: 2
Fore
SplineSet
313 309 m 1
 213 331 153 420 172 526 c 0
 194 648 313 748 439 748 c 0
 565 748 650 648 628 526 c 0
 610 422 520 335 418 311 c 1
 406 241 l 1
 609 241 l 1
 590 137 l 1
 388 137 l 1
 364 0 l 1
 258 0 l 1
 282 137 l 1
 72 137 l 1
 91 241 l 1
 300 241 l 1
 313 309 l 1
422 651 m 0
 349 651 280 592 267 519 c 0
 254 446 302 387 375 387 c 0
 448 387 518 446 531 519 c 0
 544 592 495 651 422 651 c 0
EndSplineSet
EndChar

StartChar: male
Encoding: 9794 9794 651
Width: 613
Flags: W
LayerCount: 2
Fore
SplineSet
206 414 m 1
 142 473 l 1
 429 760 l 1
 469 760 l 1
 638 470 l 1
 544 415 l 1
 461 554 l 1
 437 419 l 1
 532 395 590 308 572 206 c 0
 551 85 431 -13 305 -13 c 0
 179 -13 94 85 115 206 c 0
 133 310 225 397 328 420 c 1
 352 558 l 1
 206 414 l 1
368 347 m 0
 295 347 226 288 213 215 c 0
 200 142 249 83 322 83 c 0
 395 83 464 142 477 215 c 0
 490 288 441 347 368 347 c 0
EndSplineSet
EndChar

StartChar: spade
Encoding: 9824 9824 652
Width: 613
Flags: W
LayerCount: 2
Fore
SplineSet
26 391 m 0
 26 565 289 753 289 753 c 1
 298 753 l 1
 298 753 560 565 560 391 c 0
 560 323 559 313 531 263 c 0
 511 227 470 207 428 207 c 0
 427 207 427 207 426 207 c 0
 408 207 368 229 335 260 c 1
 335 68 l 1
 488 68 l 1
 488 -1 l 1
 106 -1 l 1
 106 69 l 1
 252 69 l 1
 252 262 l 1
 219 231 178 207 160 207 c 0
 159 207 159 207 158 207 c 0
 116 207 73 227 53 263 c 0
 25 313 26 323 26 391 c 0
EndSplineSet
EndChar

StartChar: club
Encoding: 9827 9827 653
Width: 613
Flags: W
LayerCount: 2
Fore
SplineSet
561 358 m 0
 561 263 499 208 430 208 c 0
 394 208 360 224 335 250 c 1
 335 68 l 1
 488 68 l 1
 488 -1 l 1
 106 -1 l 1
 106 69 l 1
 252 69 l 1
 252 246 l 1
 228 221 196 208 162 208 c 0
 89 208 25 269 25 357 c 0
 25 446 89 510 163 510 c 0
 170 510 178 509 185 508 c 1
 169 532 161 561 161 595 c 0
 161 684 224 748 298 748 c 0
 364 748 428 695 428 596 c 0
 428 560 419 531 405 507 c 1
 414 509 423 510 432 510 c 0
 498 510 561 457 561 358 c 0
EndSplineSet
EndChar

StartChar: heart
Encoding: 9829 9829 654
Width: 613
Flags: W
LayerCount: 2
Fore
SplineSet
560 472 m 8
 560 261 297 0 297 0 c 0
 288 0 l 0
 288 0 26 261 26 472 c 16
 26 540 26 594 47 645 c 0
 65 689 95 753 158 753 c 0
 159 753 159 753 160 753 c 0
 246 753 272 690 293 622 c 1
 315 688 340 753 426 753 c 0
 427 753 427 753 428 753 c 0
 500 753 529 690 543 645 c 0
 558 596 560 540 560 472 c 8
EndSplineSet
EndChar

StartChar: diamond
Encoding: 9830 9830 655
Width: 613
Flags: W
LayerCount: 2
Fore
SplineSet
534 376 m 5
 298 -1 l 1
 289 -1 l 1
 65 376 l 5
 289 753 l 1
 298 753 l 1
 534 376 l 5
EndSplineSet
EndChar

StartChar: musicalnote
Encoding: 9834 9834 656
Width: 613
Flags: W
LayerCount: 2
Fore
SplineSet
327 104 m 0
 299 28 219 -16 147 -16 c 0
 85 -16 41 17 41 67 c 0
 41 78 43 90 48 103 c 0
 74 174 159 225 236 225 c 0
 241 225 247 225 252 224 c 1
 252 670 l 1
 252 739 l 1
 289 740 l 1
 298 740 l 1
 298 740 552 562 552 395 c 0
 552 309 500 250 426 220 c 1
 426 294 l 1
 451 318 466 352 466 395 c 0
 466 472 384 553 335 594 c 1
 335 146 l 2
 335 133 333 120 327 104 c 0
EndSplineSet
EndChar

StartChar: afii10146
Encoding: 1122 1122 661
Width: 613
Flags: W
LayerCount: 2
Fore
SplineSet
319 348 m 1
 273 103 l 1
 318 103 l 0
 350 103 379 104 410 116 c 0
 460 136 494 178 502 223 c 0
 510 268 494 312 450 333 c 0
 420 348 386 348 349 348 c 0
 319 348 l 1
559 534 m 1
 352 534 l 1
 336 449 l 1
 342 449 l 0
 423 449 493 450 551 406 c 0
 609 363 634 297 618 210 c 0
 604 131 543 58 453 23 c 0
 395 1 341 0 291 0 c 0
 141 0 l 1
 239 532 l 1
 126 532 l 1
 143 622 l 1
 256 622 l 1
 277 739 l 1
 396 739 l 1
 398 726 l 0
 398 723 398 721 398 718 c 0
 396 705 385 699 384 698 c 0
 383 697 l 1
 383 697 382 696 382 695 c 0
 369 623 l 1
 575 623 l 1
 559 534 l 1
EndSplineSet
EndChar

StartChar: afii10194
Encoding: 1123 1123 662
Width: 613
Flags: W
LayerCount: 2
Fore
SplineSet
412 242 m 1
 387 113 l 1
 396 105 435 94 463 94 c 0
 489 94 523 140 528 166 c 0
 534 195 528 230 503 236 c 0
 479 242 452 242 424 242 c 0
 412 242 l 1
431 523 m 0
 451 501 454 471 445 423 c 2
 430 343 l 1
 441 343 l 0
 533 343 570 335 599 306 c 0
 638 267 649 218 637 155 c 0
 626 97 593 52 548 22 c 0
 533 12 503 0 428 0 c 0
 350 0 335 21 273 33 c 0
 258 36 l 1
 321 370 l 0
 323 378 325 386 326 394 c 0
 329 408 331 422 329 433 c 1
 326 454 314 459 301 459 c 0
 287 459 264 450 240 418 c 1
 221 393 216 374 212 351 c 0
 146 0 l 1
 37 0 l 1
 107 377 l 0
 120 448 113 501 102 520 c 0
 92 539 l 1
 219 556 l 1
 223 543 l 0
 225 536 227 522 227 503 c 1
 257 532 293 555 340 555 c 0
 390 555 409 547 431 523 c 0
EndSplineSet
EndChar

StartChar: afii10195
Encoding: 1139 1139 664
Width: 613
Flags: W
LayerCount: 2
Fore
SplineSet
413 554 m 0
 545 554 652 453 619 269 c 0
 588 92 448 -14 310 -14 c 0
 164 -14 61 103 90 267 c 0
 119 433 265 554 413 554 c 0
502 265 m 0
 525 397 456 451 388 451 c 0
 315 451 233 391 212 274 c 0
 191 156 253 90 329 90 c 0
 398 90 481 145 502 265 c 0
474 340 m 5
 457 244 l 5
 251 244 l 1
 268 340 l 1
 474 340 l 5
EndSplineSet
EndChar

StartChar: afii61248
Encoding: 8453 8453 667
Width: 613
Flags: W
LayerCount: 2
Fore
SplineSet
316.066 766 m 0
 367.066 766 407.011 743 427.134 704 c 2
 435.312 688 l 1
 365.322 620 l 1
 347.791 634 l 0
 338.202 642 338.317 654 339.199 659 c 1
 334.434 666 321.55 678 297.55 678 c 0
 262.55 678 229.317 654 220.502 604 c 0
 211.156 551 238.043 522 274.043 522 c 0
 294.043 522 313.63 531 330.274 546 c 0
 354.153 568 l 1
 400.163 500 l 1
 382.166 483 l 0
 345.347 450 299.173 432 254.173 432 c 0
 162.173 432 108.045 505 124.62 599 c 0
 141.194 693 222.066 766 316.066 766 c 0
339.744 146 m 0
 355.437 235 437.427 303 521.427 303 c 0
 597.427 303 657.2 245 639.92 147 c 0
 623.346 53 543.766 -7 464.766 -7 c 0
 381.766 -7 324.227 58 339.744 146 c 0
481.282 81 m 0
 504.282 81 537.104 97 545.744 146 c 0
 555.266 200 525.91 215 502.91 215 c 0
 477.91 215 444.736 197 436.449 150 c 0
 427.985 102 455.282 81 481.282 81 c 0
EndSplineSet
Refer: 274 8260 N 1 0 0 1 0 0 2
EndChar

StartChar: acute.cap.pl
Encoding: 65550 -1 668
Width: 613
Flags: W
HStem: 639 164
VStem: 386 167
LayerCount: 2
Fore
SplineSet
386 652 m 1
 449 802 l 1
 553 802 l 1
 467 639 l 1
 386 652 l 1
EndSplineSet
EndChar

StartChar: acute.pl
Encoding: 65551 -1 669
Width: 613
Flags: W
HStem: 614 225
VStem: 378 186
LayerCount: 2
Fore
SplineSet
378 631 m 1
 449 840 l 1
 564 814 l 1
 472 614 l 1
 378 631 l 1
EndSplineSet
EndChar

StartChar: uni2574
Encoding: 9588 9588 684
Width: 613
VWidth: 1046
Flags: MW
LayerCount: 2
Fore
SplineSet
346 289 m 1
 0 289 l 1
 0 367 l 1
 346 367 l 1
 346 289 l 1
EndSplineSet
EndChar

StartChar: uni2575
Encoding: 9589 9589 685
Width: 613
VWidth: 1046
Flags: MW
LayerCount: 2
Fore
SplineSet
346 289 m 1
 267 289 l 1
 267 838 l 1
 346 838 l 1
 346 289 l 1
EndSplineSet
EndChar

StartChar: uni2576
Encoding: 9590 9590 686
Width: 613
VWidth: 1046
Flags: MW
LayerCount: 2
Fore
SplineSet
267 289 m 1
 267 367 l 1
 613 367 l 1
 613 289 l 1
 267 289 l 1
EndSplineSet
EndChar

StartChar: uni2577
Encoding: 9591 9591 687
Width: 613
VWidth: 1046
Flags: MW
LayerCount: 2
Fore
SplineSet
346 367 m 1
 346 -184 l 1
 267 -184 l 1
 267 367 l 1
 346 367 l 1
EndSplineSet
EndChar

StartChar: uni2501
Encoding: 9473 9473 688
Width: 613
VWidth: 1046
Flags: MW
LayerCount: 2
Fore
SplineSet
0 408 m 1
 613 408 l 1
 613 248 l 1
 0 248 l 1
 0 408 l 1
EndSplineSet
EndChar

StartChar: uni2503
Encoding: 9475 9475 689
Width: 613
VWidth: 1046
Flags: MW
LayerCount: 2
Fore
SplineSet
387 838 m 1
 387 -184 l 1
 226 -184 l 1
 226 838 l 1
 387 838 l 1
EndSplineSet
EndChar

StartChar: uni250D
Encoding: 9485 9485 690
Width: 613
VWidth: 1046
Flags: MW
LayerCount: 2
Fore
SplineSet
267 -184 m 1
 267 408 l 1
 613 408 l 1
 613 248 l 1
 346 248 l 1
 346 -184 l 1
 267 -184 l 1
EndSplineSet
EndChar

StartChar: uni250E
Encoding: 9486 9486 691
Width: 613
VWidth: 1046
Flags: MW
LayerCount: 2
Fore
SplineSet
226 367 m 1
 613 367 l 1
 613 289 l 1
 387 289 l 1
 387 -184 l 1
 226 -184 l 1
 226 367 l 1
EndSplineSet
EndChar

StartChar: uni250F
Encoding: 9487 9487 692
Width: 613
VWidth: 1046
Flags: MW
LayerCount: 2
Fore
SplineSet
226 -184 m 1
 226 408 l 1
 613 408 l 1
 613 248 l 1
 387 248 l 1
 387 -184 l 1
 226 -184 l 1
EndSplineSet
EndChar

StartChar: uni2511
Encoding: 9489 9489 693
Width: 613
VWidth: 1046
Flags: MW
LayerCount: 2
Fore
SplineSet
267 248 m 1
 0 248 l 1
 0 408 l 1
 346 408 l 1
 346 -184 l 1
 267 -184 l 1
 267 248 l 1
EndSplineSet
EndChar

StartChar: uni2512
Encoding: 9490 9490 694
Width: 613
VWidth: 1046
Flags: MW
LayerCount: 2
Fore
SplineSet
387 367 m 1
 387 -184 l 1
 226 -184 l 1
 226 289 l 1
 0 289 l 1
 0 367 l 1
 387 367 l 1
EndSplineSet
EndChar

StartChar: uni2513
Encoding: 9491 9491 695
Width: 613
VWidth: 1046
Flags: MW
LayerCount: 2
Fore
SplineSet
226 248 m 1
 0 248 l 1
 0 408 l 1
 387 408 l 1
 387 -184 l 1
 226 -184 l 1
 226 248 l 1
EndSplineSet
EndChar

StartChar: uni2515
Encoding: 9493 9493 696
Width: 613
VWidth: 1046
Flags: MW
LayerCount: 2
Fore
SplineSet
346 408 m 1
 613 408 l 1
 613 248 l 1
 267 248 l 1
 267 838 l 1
 346 838 l 1
 346 408 l 1
EndSplineSet
EndChar

StartChar: uni2516
Encoding: 9494 9494 697
Width: 613
VWidth: 1046
Flags: MW
LayerCount: 2
Fore
SplineSet
613 289 m 1
 226 289 l 1
 226 838 l 1
 387 838 l 1
 387 367 l 1
 613 367 l 1
 613 289 l 1
EndSplineSet
EndChar

StartChar: uni2517
Encoding: 9495 9495 698
Width: 613
VWidth: 1046
Flags: MW
LayerCount: 2
Fore
SplineSet
613 248 m 1
 226 248 l 1
 226 838 l 1
 387 838 l 1
 387 408 l 1
 613 408 l 1
 613 248 l 1
EndSplineSet
EndChar

StartChar: uni2519
Encoding: 9497 9497 699
Width: 613
VWidth: 1046
Flags: MW
LayerCount: 2
Fore
SplineSet
346 248 m 1
 0 248 l 1
 0 408 l 1
 267 408 l 1
 267 838 l 1
 346 838 l 1
 346 248 l 1
EndSplineSet
EndChar

StartChar: uni251A
Encoding: 9498 9498 700
Width: 613
VWidth: 1046
Flags: MW
LayerCount: 2
Fore
SplineSet
226 367 m 1
 226 838 l 1
 387 838 l 1
 387 289 l 1
 0 289 l 1
 0 367 l 1
 226 367 l 1
EndSplineSet
EndChar

StartChar: uni251B
Encoding: 9499 9499 701
Width: 613
VWidth: 1046
Flags: MW
LayerCount: 2
Fore
SplineSet
387 248 m 1
 0 248 l 1
 0 408 l 1
 226 408 l 1
 226 838 l 1
 387 838 l 1
 387 248 l 1
EndSplineSet
EndChar

StartChar: uni2578
Encoding: 9592 9592 702
Width: 613
VWidth: 1046
Flags: MW
LayerCount: 2
Fore
SplineSet
346 248 m 1
 0 248 l 1
 0 408 l 1
 346 408 l 1
 346 248 l 1
EndSplineSet
EndChar

StartChar: uni2579
Encoding: 9593 9593 703
Width: 613
VWidth: 1046
Flags: MW
LayerCount: 2
Fore
SplineSet
387 289 m 1
 226 289 l 1
 226 838 l 1
 387 838 l 1
 387 289 l 1
EndSplineSet
EndChar

StartChar: uni257A
Encoding: 9594 9594 704
Width: 613
VWidth: 1046
Flags: MW
LayerCount: 2
Fore
SplineSet
267 248 m 1
 267 408 l 1
 613 408 l 1
 613 248 l 1
 267 248 l 1
EndSplineSet
EndChar

StartChar: uni257B
Encoding: 9595 9595 705
Width: 613
VWidth: 1046
Flags: MW
LayerCount: 2
Fore
SplineSet
387 367 m 1
 387 -184 l 1
 226 -184 l 1
 226 367 l 1
 387 367 l 1
EndSplineSet
EndChar

StartChar: uni251D
Encoding: 9501 9501 706
Width: 613
VWidth: 1046
Flags: MW
LayerCount: 2
Fore
SplineSet
346 408 m 1
 613 408 l 1
 613 248 l 1
 346 248 l 1
 346 -184 l 1
 267 -184 l 1
 267 838 l 1
 346 838 l 1
 346 408 l 1
EndSplineSet
EndChar

StartChar: uni251E
Encoding: 9502 9502 707
Width: 613
VWidth: 1046
Flags: MW
LayerCount: 2
Fore
SplineSet
613 289 m 1
 524 289 435 289 346 289 c 1
 346 -184 l 1
 267 -184 l 1
 267 289 l 1
 226 289 l 1
 226 838 l 1
 387 838 l 1
 387 367 l 1
 613 367 l 1
 613 289 l 1
EndSplineSet
EndChar

StartChar: uni251F
Encoding: 9503 9503 708
Width: 613
VWidth: 1046
Flags: MW
LayerCount: 2
Fore
SplineSet
267 367 m 1
 267 838 l 1
 346 838 l 1
 346 367 l 1
 435 367 524 367 613 367 c 1
 613 289 l 1
 387 289 l 1
 387 -184 l 1
 226 -184 l 1
 226 367 l 1
 267 367 l 1
EndSplineSet
EndChar

StartChar: uni2520
Encoding: 9504 9504 709
Width: 613
VWidth: 1046
Flags: MW
LayerCount: 2
Fore
SplineSet
226 -184 m 1
 226 838 l 1
 387 838 l 1
 387 367 l 1
 613 367 l 1
 613 289 l 1
 387 289 l 1
 387 -184 l 1
 226 -184 l 1
EndSplineSet
EndChar

StartChar: uni2521
Encoding: 9505 9505 710
Width: 613
VWidth: 1046
Flags: MW
LayerCount: 2
Fore
SplineSet
346 248 m 1
 346 -184 l 1
 267 -184 l 1
 267 248 l 1
 226 248 l 1
 226 838 l 1
 387 838 l 1
 387 408 l 1
 613 408 l 1
 613 248 l 1
 346 248 l 1
EndSplineSet
EndChar

StartChar: uni2522
Encoding: 9506 9506 711
Width: 613
VWidth: 1046
Flags: MW
LayerCount: 2
Fore
SplineSet
226 -184 m 1
 226 408 l 1
 267 408 l 1
 267 838 l 1
 346 838 l 1
 346 408 l 1
 613 408 l 1
 613 248 l 1
 387 248 l 1
 387 -184 l 1
 226 -184 l 1
EndSplineSet
EndChar

StartChar: uni2523
Encoding: 9507 9507 712
Width: 613
VWidth: 1046
Flags: MW
LayerCount: 2
Fore
SplineSet
387 408 m 1
 613 408 l 1
 613 248 l 1
 387 248 l 1
 387 -184 l 1
 226 -184 l 1
 226 838 l 1
 387 838 l 1
 387 408 l 1
EndSplineSet
EndChar

StartChar: uni2525
Encoding: 9509 9509 713
Width: 613
VWidth: 1046
Flags: MW
LayerCount: 2
Fore
SplineSet
346 838 m 1
 346 -184 l 1
 267 -184 l 1
 267 248 l 1
 0 248 l 1
 0 408 l 1
 267 408 l 1
 267 838 l 1
 346 838 l 1
EndSplineSet
EndChar

StartChar: uni2526
Encoding: 9510 9510 714
Width: 613
VWidth: 1046
Flags: MW
LayerCount: 2
Fore
SplineSet
226 367 m 1
 226 838 l 1
 387 838 l 1
 387 289 l 1
 346 289 l 1
 346 -184 l 1
 267 -184 l 1
 267 289 l 1
 178 289 89 289 0 289 c 1
 0 367 l 1
 226 367 l 1
EndSplineSet
EndChar

StartChar: uni2527
Encoding: 9511 9511 715
Width: 613
VWidth: 1046
Flags: MW
LayerCount: 2
Fore
SplineSet
387 367 m 1
 387 -184 l 1
 226 -184 l 1
 226 289 l 1
 0 289 l 1
 0 367 l 1
 89 367 178 367 267 367 c 1
 267 838 l 1
 346 838 l 1
 346 367 l 1
 387 367 l 1
EndSplineSet
EndChar

StartChar: uni2528
Encoding: 9512 9512 716
Width: 613
VWidth: 1046
Flags: MW
LayerCount: 2
Fore
SplineSet
226 289 m 1
 0 289 l 1
 0 367 l 1
 226 367 l 1
 226 838 l 1
 387 838 l 1
 387 -184 l 1
 226 -184 l 1
 226 289 l 1
EndSplineSet
EndChar

StartChar: uni2529
Encoding: 9513 9513 717
Width: 613
VWidth: 1046
Flags: MW
LayerCount: 2
Fore
SplineSet
346 248 m 1
 346 -184 l 1
 267 -184 l 1
 267 248 l 1
 0 248 l 1
 0 408 l 1
 226 408 l 1
 226 838 l 1
 387 838 l 1
 387 248 l 1
 346 248 l 1
EndSplineSet
EndChar

StartChar: uni252A
Encoding: 9514 9514 718
Width: 613
VWidth: 1046
Flags: MW
LayerCount: 2
Fore
SplineSet
226 248 m 1
 0 248 l 1
 0 408 l 1
 267 408 l 1
 267 838 l 1
 346 838 l 1
 346 408 l 1
 387 408 l 1
 387 -184 l 1
 226 -184 l 1
 226 248 l 1
EndSplineSet
EndChar

StartChar: uni252B
Encoding: 9515 9515 719
Width: 613
VWidth: 1046
Flags: MW
LayerCount: 2
Fore
SplineSet
226 408 m 1
 226 838 l 1
 387 838 l 1
 387 -184 l 1
 226 -184 l 1
 226 248 l 1
 0 248 l 1
 0 408 l 1
 226 408 l 1
EndSplineSet
EndChar

StartChar: uni252D
Encoding: 9517 9517 720
Width: 613
VWidth: 1046
Flags: MW
LayerCount: 2
Fore
SplineSet
267 248 m 1
 0 248 l 1
 0 408 l 1
 346 408 l 1
 346 367 l 1
 613 367 l 1
 613 289 l 1
 346 289 l 1
 346 131 346 -26 346 -184 c 1
 267 -184 l 1
 267 248 l 1
EndSplineSet
EndChar

StartChar: uni252E
Encoding: 9518 9518 721
Width: 613
VWidth: 1046
Flags: MW
LayerCount: 2
Fore
SplineSet
267 -184 m 1
 267 -26 267 131 267 289 c 1
 0 289 l 1
 0 367 l 1
 267 367 l 1
 267 408 l 1
 613 408 l 1
 613 248 l 1
 346 248 l 1
 346 -184 l 1
 267 -184 l 1
EndSplineSet
EndChar

StartChar: uni252F
Encoding: 9519 9519 722
Width: 613
VWidth: 1046
Flags: MW
LayerCount: 2
Fore
SplineSet
0 408 m 1
 613 408 l 1
 613 248 l 1
 346 248 l 1
 346 -184 l 1
 267 -184 l 1
 267 248 l 1
 0 248 l 1
 0 408 l 1
EndSplineSet
EndChar

StartChar: uni2530
Encoding: 9520 9520 723
Width: 613
VWidth: 1046
Flags: MW
LayerCount: 2
Fore
SplineSet
0 367 m 1
 613 367 l 1
 613 289 l 1
 387 289 l 1
 387 -184 l 1
 226 -184 l 1
 226 289 l 1
 0 289 l 1
 0 367 l 1
EndSplineSet
EndChar

StartChar: uni2531
Encoding: 9521 9521 724
Width: 613
VWidth: 1046
Flags: MW
LayerCount: 2
Fore
SplineSet
226 248 m 1
 0 248 l 1
 0 408 l 1
 387 408 l 1
 387 367 l 1
 613 367 l 1
 613 289 l 1
 387 289 l 1
 387 -184 l 1
 226 -184 l 1
 226 248 l 1
EndSplineSet
EndChar

StartChar: uni2532
Encoding: 9522 9522 725
Width: 613
VWidth: 1046
Flags: MW
LayerCount: 2
Fore
SplineSet
226 289 m 1
 0 289 l 1
 0 367 l 1
 226 367 l 1
 226 408 l 1
 613 408 l 1
 613 248 l 1
 387 248 l 1
 387 -184 l 1
 226 -184 l 1
 226 289 l 1
EndSplineSet
EndChar

StartChar: uni2533
Encoding: 9523 9523 726
Width: 613
VWidth: 1046
Flags: MW
LayerCount: 2
Fore
SplineSet
0 408 m 1
 613 408 l 1
 613 248 l 1
 387 248 l 1
 387 -184 l 1
 226 -184 l 1
 226 248 l 1
 0 248 l 1
 0 408 l 1
EndSplineSet
EndChar

StartChar: uni2535
Encoding: 9525 9525 727
Width: 613
VWidth: 1046
Flags: MW
LayerCount: 2
Fore
SplineSet
346 248 m 1
 0 248 l 1
 0 408 l 1
 267 408 l 1
 267 838 l 1
 346 838 l 1
 346 681 346 524 346 367 c 1
 613 367 l 1
 613 289 l 1
 346 289 l 1
 346 248 l 1
EndSplineSet
EndChar

StartChar: uni2536
Encoding: 9526 9526 728
Width: 613
VWidth: 1046
Flags: MW
LayerCount: 2
Fore
SplineSet
346 408 m 1
 613 408 l 1
 613 248 l 1
 267 248 l 1
 267 289 l 1
 0 289 l 1
 0 367 l 1
 267 367 l 1
 267 524 267 681 267 838 c 1
 346 838 l 1
 346 408 l 1
EndSplineSet
EndChar

StartChar: uni2537
Encoding: 9527 9527 729
Width: 613
VWidth: 1046
Flags: MW
LayerCount: 2
Fore
SplineSet
613 248 m 1
 0 248 l 1
 0 408 l 1
 267 408 l 1
 267 838 l 1
 346 838 l 1
 346 408 l 1
 613 408 l 1
 613 248 l 1
EndSplineSet
EndChar

StartChar: uni2538
Encoding: 9528 9528 730
Width: 613
VWidth: 1046
Flags: MW
LayerCount: 2
Fore
SplineSet
226 367 m 1
 226 838 l 1
 387 838 l 1
 387 367 l 1
 613 367 l 1
 613 289 l 1
 0 289 l 1
 0 367 l 1
 226 367 l 1
EndSplineSet
EndChar

StartChar: uni2539
Encoding: 9529 9529 731
Width: 613
VWidth: 1046
Flags: MW
LayerCount: 2
Fore
SplineSet
387 248 m 1
 0 248 l 1
 0 408 l 1
 226 408 l 1
 226 838 l 1
 387 838 l 1
 387 367 l 1
 613 367 l 1
 613 289 l 1
 387 289 l 1
 387 248 l 1
EndSplineSet
EndChar

StartChar: uni253A
Encoding: 9530 9530 732
Width: 613
VWidth: 1046
Flags: MW
LayerCount: 2
Fore
SplineSet
613 248 m 1
 226 248 l 1
 226 289 l 1
 0 289 l 1
 0 367 l 1
 226 367 l 1
 226 838 l 1
 387 838 l 1
 387 408 l 1
 613 408 l 1
 613 248 l 1
EndSplineSet
EndChar

StartChar: uni253B
Encoding: 9531 9531 733
Width: 613
VWidth: 1046
Flags: MW
LayerCount: 2
Fore
SplineSet
226 408 m 1
 226 838 l 1
 387 838 l 1
 387 408 l 1
 613 408 l 1
 613 248 l 1
 0 248 l 1
 0 408 l 1
 226 408 l 1
EndSplineSet
EndChar

StartChar: uni253D
Encoding: 9533 9533 734
Width: 613
VWidth: 1046
Flags: MW
LayerCount: 2
Fore
SplineSet
346 838 m 1
 346 681 346 524 346 367 c 1
 613 367 l 1
 613 289 l 1
 346 289 l 1
 346 131 346 -26 346 -184 c 1
 267 -184 l 1
 267 248 l 1
 0 248 l 1
 0 408 l 1
 267 408 l 1
 267 838 l 1
 346 838 l 1
EndSplineSet
EndChar

StartChar: uni253E
Encoding: 9534 9534 735
Width: 613
VWidth: 1046
Flags: MW
LayerCount: 2
Fore
SplineSet
346 408 m 1
 613 408 l 1
 613 248 l 1
 346 248 l 1
 346 -184 l 1
 267 -184 l 1
 267 -26 267 131 267 289 c 1
 0 289 l 1
 0 367 l 1
 267 367 l 1
 267 524 267 681 267 838 c 1
 346 838 l 1
 346 408 l 1
EndSplineSet
EndChar

StartChar: uni253F
Encoding: 9535 9535 736
Width: 613
VWidth: 1046
Flags: MW
LayerCount: 2
Fore
SplineSet
346 408 m 1
 613 408 l 1
 613 248 l 1
 346 248 l 1
 346 -184 l 1
 267 -184 l 1
 267 838 l 1
 346 838 l 1
 346 408 l 1
EndSplineSet
EndChar

StartChar: uni2540
Encoding: 9536 9536 737
Width: 613
VWidth: 1046
Flags: MW
LayerCount: 2
Fore
SplineSet
226 367 m 1
 226 838 l 1
 387 838 l 1
 387 367 l 1
 613 367 l 1
 613 289 l 1
 524 289 435 289 346 289 c 1
 346 -184 l 1
 267 -184 l 1
 267 289 l 1
 178 289 89 289 0 289 c 1
 0 367 l 1
 226 367 l 1
EndSplineSet
EndChar

StartChar: uni2541
Encoding: 9537 9537 738
Width: 613
VWidth: 1046
Flags: MW
LayerCount: 2
Fore
SplineSet
267 367 m 1
 267 838 l 1
 346 838 l 1
 346 367 l 1
 435 367 524 367 613 367 c 1
 613 289 l 1
 387 289 l 1
 387 -184 l 1
 226 -184 l 1
 226 289 l 1
 0 289 l 1
 0 367 l 1
 89 367 178 367 267 367 c 1
EndSplineSet
EndChar

StartChar: uni2542
Encoding: 9538 9538 739
Width: 613
VWidth: 1046
Flags: MW
LayerCount: 2
Fore
SplineSet
226 289 m 1
 0 289 l 1
 0 367 l 1
 226 367 l 1
 226 838 l 1
 387 838 l 1
 387 367 l 1
 613 367 l 1
 613 289 l 1
 387 289 l 1
 387 -184 l 1
 226 -184 l 1
 226 289 l 1
EndSplineSet
EndChar

StartChar: uni2543
Encoding: 9539 9539 740
Width: 613
VWidth: 1046
Flags: MW
LayerCount: 2
Fore
SplineSet
226 408 m 1
 226 838 l 1
 387 838 l 1
 387 367 l 1
 613 367 l 1
 613 289 l 1
 524 289 435 289 346 289 c 1
 346 131 346 -26 346 -184 c 1
 267 -184 l 1
 267 248 l 1
 0 248 l 1
 0 408 l 1
 226 408 l 1
EndSplineSet
EndChar

StartChar: uni2544
Encoding: 9540 9540 741
Width: 613
VWidth: 1046
Flags: MW
LayerCount: 2
Fore
SplineSet
226 367 m 1
 226 838 l 1
 387 838 l 1
 387 408 l 1
 613 408 l 1
 613 248 l 1
 346 248 l 1
 346 -184 l 1
 267 -184 l 1
 267 -26 267 131 267 289 c 1
 178 289 89 289 0 289 c 1
 0 367 l 1
 226 367 l 1
EndSplineSet
EndChar

StartChar: uni2545
Encoding: 9541 9541 742
Width: 613
VWidth: 1046
Flags: MW
LayerCount: 2
Fore
SplineSet
346 838 m 1
 346 681 346 524 346 367 c 1
 435 367 524 367 613 367 c 1
 613 289 l 1
 387 289 l 1
 387 -184 l 1
 226 -184 l 1
 226 248 l 1
 0 248 l 1
 0 408 l 1
 267 408 l 1
 267 838 l 1
 346 838 l 1
EndSplineSet
EndChar

StartChar: uni2546
Encoding: 9542 9542 743
Width: 613
VWidth: 1046
Flags: MW
LayerCount: 2
Fore
SplineSet
346 408 m 1
 613 408 l 1
 613 248 l 1
 387 248 l 1
 387 -184 l 1
 226 -184 l 1
 226 289 l 1
 0 289 l 1
 0 367 l 1
 89 367 178 367 267 367 c 1
 267 524 267 681 267 838 c 1
 346 838 l 1
 346 408 l 1
EndSplineSet
EndChar

StartChar: uni2547
Encoding: 9543 9543 744
Width: 613
VWidth: 1046
Flags: MW
LayerCount: 2
Fore
SplineSet
226 408 m 1
 226 838 l 1
 387 838 l 1
 387 408 l 1
 613 408 l 1
 613 248 l 1
 346 248 l 1
 346 -184 l 1
 267 -184 l 1
 267 248 l 1
 0 248 l 1
 0 408 l 1
 226 408 l 1
EndSplineSet
EndChar

StartChar: uni2548
Encoding: 9544 9544 745
Width: 613
VWidth: 1046
Flags: MW
LayerCount: 2
Fore
SplineSet
346 408 m 1
 613 408 l 1
 613 248 l 1
 387 248 l 1
 387 -184 l 1
 226 -184 l 1
 226 248 l 1
 0 248 l 1
 0 408 l 1
 267 408 l 1
 267 838 l 1
 346 838 l 1
 346 408 l 1
EndSplineSet
EndChar

StartChar: uni2549
Encoding: 9545 9545 746
Width: 613
VWidth: 1046
Flags: MW
LayerCount: 2
Fore
SplineSet
226 408 m 1
 226 838 l 1
 387 838 l 1
 387 367 l 1
 613 367 l 1
 613 289 l 1
 387 289 l 1
 387 -184 l 1
 226 -184 l 1
 226 248 l 1
 0 248 l 1
 0 408 l 1
 226 408 l 1
EndSplineSet
EndChar

StartChar: uni254A
Encoding: 9546 9546 747
Width: 613
VWidth: 1046
Flags: MW
LayerCount: 2
Fore
SplineSet
387 408 m 1
 613 408 l 1
 613 248 l 1
 387 248 l 1
 387 -184 l 1
 226 -184 l 1
 226 289 l 1
 0 289 l 1
 0 367 l 1
 226 367 l 1
 226 838 l 1
 387 838 l 1
 387 408 l 1
EndSplineSet
EndChar

StartChar: uni254B
Encoding: 9547 9547 748
Width: 613
VWidth: 1046
Flags: MW
LayerCount: 2
Fore
SplineSet
226 408 m 1
 226 838 l 1
 387 838 l 1
 387 408 l 1
 613 408 l 1
 613 248 l 1
 387 248 l 1
 387 -184 l 1
 226 -184 l 1
 226 248 l 1
 0 248 l 1
 0 408 l 1
 226 408 l 1
EndSplineSet
EndChar

StartChar: uni254C
Encoding: 9548 9548 749
Width: 613
VWidth: 1046
Flags: MW
LayerCount: 2
Fore
SplineSet
562 289 m 1
 358 289 l 1
 358 367 l 1
 562 367 l 1
 562 289 l 1
255 289 m 1
 51 289 l 1
 51 367 l 1
 255 367 l 1
 255 289 l 1
EndSplineSet
EndChar

StartChar: uni254D
Encoding: 9549 9549 750
Width: 613
VWidth: 1046
Flags: MW
LayerCount: 2
Fore
SplineSet
562 248 m 1
 358 248 l 1
 358 408 l 1
 562 408 l 1
 562 248 l 1
255 248 m 1
 51 248 l 1
 51 408 l 1
 255 408 l 1
 255 248 l 1
EndSplineSet
EndChar

StartChar: uni254E
Encoding: 9550 9550 751
Width: 613
VWidth: 1046
Flags: MW
LayerCount: 2
Fore
SplineSet
346 276 m 0
 346 -133 l 0
 267 -133 l 0
 267 276 l 0
 346 276 l 0
346 787 m 0
 346 378 l 0
 267 378 l 0
 267 787 l 0
 346 787 l 0
EndSplineSet
EndChar

StartChar: uni254F
Encoding: 9551 9551 752
Width: 613
VWidth: 1046
Flags: MW
LayerCount: 2
Fore
SplineSet
387 276 m 1
 387 -133 l 1
 226 -133 l 1
 226 276 l 1
 387 276 l 1
387 787 m 1
 387 378 l 1
 226 378 l 1
 226 787 l 1
 387 787 l 1
EndSplineSet
EndChar

StartChar: uni2504
Encoding: 9476 9476 753
Width: 613
VWidth: 1046
Flags: MW
LayerCount: 2
Fore
SplineSet
450 367 m 0
 572 367 l 0
 572 289 l 0
 450 289 l 0
 450 367 l 0
245 367 m 0
 368 367 l 0
 368 289 l 0
 245 289 l 0
 245 367 l 0
41 367 m 0
 163 367 l 0
 163 289 l 0
 41 289 l 0
 41 367 l 0
EndSplineSet
EndChar

StartChar: uni2505
Encoding: 9477 9477 754
Width: 613
VWidth: 1046
Flags: MW
LayerCount: 2
Fore
SplineSet
450 408 m 1
 572 408 l 1
 572 248 l 1
 450 248 l 1
 450 408 l 1
245 408 m 1
 368 408 l 1
 368 248 l 1
 245 248 l 1
 245 408 l 1
41 408 m 1
 163 408 l 1
 163 248 l 1
 41 248 l 1
 41 408 l 1
EndSplineSet
EndChar

StartChar: uni2506
Encoding: 9478 9478 755
Width: 613
VWidth: 1046
Flags: MW
LayerCount: 2
Fore
SplineSet
346 106 m 0
 346 -133 l 0
 267 -133 l 0
 267 106 l 0
 346 106 l 0
346 446 m 0
 346 208 l 0
 267 208 l 0
 267 446 l 0
 346 446 l 0
346 787 m 0
 346 548 l 0
 267 548 l 0
 267 787 l 0
 346 787 l 0
EndSplineSet
EndChar

StartChar: uni2507
Encoding: 9479 9479 756
Width: 613
VWidth: 1046
Flags: MW
LayerCount: 2
Fore
SplineSet
387 106 m 1
 387 -133 l 1
 226 -133 l 1
 226 106 l 1
 387 106 l 1
387 446 m 1
 387 208 l 1
 226 208 l 1
 226 446 l 1
 387 446 l 1
387 787 m 1
 387 548 l 1
 226 548 l 1
 226 787 l 1
 387 787 l 1
EndSplineSet
EndChar

StartChar: uni2508
Encoding: 9480 9480 757
Width: 613
VWidth: 1046
Flags: MW
LayerCount: 2
Fore
SplineSet
582 289 m 1
 490 289 l 1
 490 367 l 1
 582 367 l 1
 582 289 l 1
429 289 m 1
 337 289 l 1
 337 367 l 1
 429 367 l 1
 429 289 l 1
276 289 m 1
 184 289 l 1
 184 367 l 1
 276 367 l 1
 276 289 l 1
123 289 m 1
 31 289 l 1
 31 367 l 1
 123 367 l 1
 123 289 l 1
EndSplineSet
EndChar

StartChar: uni2509
Encoding: 9481 9481 758
Width: 613
VWidth: 1046
Flags: MW
LayerCount: 2
Fore
SplineSet
582 248 m 1
 490 248 l 1
 490 408 l 1
 582 408 l 1
 582 248 l 1
429 248 m 1
 337 248 l 1
 337 408 l 1
 429 408 l 1
 429 248 l 1
276 248 m 1
 184 248 l 1
 184 408 l 1
 276 408 l 1
 276 248 l 1
123 248 m 1
 31 248 l 1
 31 408 l 1
 123 408 l 1
 123 248 l 1
EndSplineSet
EndChar

StartChar: uni250A
Encoding: 9482 9482 759
Width: 613
VWidth: 1046
Flags: MW
LayerCount: 2
Fore
SplineSet
346 20 m 0
 346 -133 l 0
 267 -133 l 0
 267 20 l 0
 346 20 l 0
346 276 m 0
 346 123 l 0
 267 123 l 0
 267 276 l 0
 346 276 l 0
346 531 m 0
 346 378 l 0
 267 378 l 0
 267 531 l 0
 346 531 l 0
346 787 m 0
 346 633 l 0
 267 633 l 0
 267 787 l 0
 346 787 l 0
EndSplineSet
EndChar

StartChar: uni250B
Encoding: 9483 9483 760
Width: 613
VWidth: 1046
Flags: MW
LayerCount: 2
Fore
SplineSet
387 20 m 1
 387 -133 l 1
 226 -133 l 1
 226 20 l 1
 387 20 l 1
387 276 m 1
 387 123 l 1
 226 123 l 1
 226 276 l 1
 387 276 l 1
387 531 m 1
 387 378 l 1
 226 378 l 1
 226 531 l 1
 387 531 l 1
387 787 m 1
 387 633 l 1
 226 633 l 1
 226 787 l 1
 387 787 l 1
EndSplineSet
EndChar

StartChar: uni257C
Encoding: 9596 9596 761
Width: 613
VWidth: 1046
Flags: MW
LayerCount: 2
Fore
SplineSet
267 367 m 1
 267 408 l 1
 613 408 l 1
 613 248 l 1
 267 248 l 1
 267 289 l 1
 0 289 l 1
 0 367 l 1
 267 367 l 1
EndSplineSet
EndChar

StartChar: uni257D
Encoding: 9597 9597 762
Width: 613
VWidth: 1046
Flags: MW
LayerCount: 2
Fore
SplineSet
387 367 m 1
 387 -184 l 1
 226 -184 l 1
 226 367 l 1
 267 367 l 1
 267 838 l 1
 346 838 l 1
 346 367 l 1
 387 367 l 1
EndSplineSet
EndChar

StartChar: uni257E
Encoding: 9598 9598 763
Width: 613
VWidth: 1046
Flags: MW
LayerCount: 2
Fore
SplineSet
346 248 m 1
 0 248 l 1
 0 408 l 1
 346 408 l 1
 346 367 l 1
 613 367 l 1
 613 289 l 1
 346 289 l 1
 346 248 l 1
EndSplineSet
EndChar

StartChar: uni257F
Encoding: 9599 9599 764
Width: 613
VWidth: 1046
Flags: MW
LayerCount: 2
Fore
SplineSet
267 289 m 1
 226 289 l 1
 226 838 l 1
 387 838 l 1
 387 289 l 1
 346 289 l 1
 346 -184 l 1
 267 -184 l 1
 267 289 l 1
EndSplineSet
EndChar

StartChar: uni256D
Encoding: 9581 9581 765
Width: 613
VWidth: 1046
Flags: MW
LayerCount: 2
Fore
SplineSet
267 -82 m 0
 267 165 376 367 511 367 c 0
 613 367 l 1
 613 289 l 1
 511 289 l 0
 419 289 346 122 346 -82 c 0
 346 -184 l 1
 267 -184 l 1
 267 -82 l 0
EndSplineSet
EndChar

StartChar: uni256E
Encoding: 9582 9582 766
Width: 613
VWidth: 1046
Flags: MW
LayerCount: 2
Fore
SplineSet
0 289 m 1
 0 367 l 1
 102 367 l 0
 237 367 346 165 346 -82 c 0
 346 -184 l 1
 267 -184 l 1
 267 -82 l 0
 267 122 194 289 102 289 c 0
 0 289 l 1
EndSplineSet
EndChar

StartChar: uni256F
Encoding: 9583 9583 767
Width: 613
VWidth: 1046
Flags: MW
LayerCount: 2
Fore
SplineSet
0 287 m 1
 0 365 l 1
 102 365 l 0
 194 365 267 532 267 736 c 0
 267 838 l 1
 346 838 l 1
 346 736 l 0
 346 489 237 287 102 287 c 0
 0 287 l 1
EndSplineSet
EndChar

